<svg width="138" height="127" viewBox="0 0 138 127" fill="none" xmlns="http://www.w3.org/2000/svg">
<path d="M43.8856 2.37549L68.5325 11.3022L76.8905 14.3354C78.1276 14.7859 80.3041 15.6511 81.5116 15.9772C80.7946 18.333 79.6617 20.8368 78.9602 23.173C78.1659 25.0439 69.0425 50.5751 69.0492 50.6267L69.224 50.6489L69.4188 50.6927L69.4081 51.7243L69.2072 51.6859L68.7294 51.6423C68.5493 51.7754 68.3504 52.0518 68.5144 52.2664C68.9484 52.2845 69.4309 52.3629 69.8677 52.4012C72.4286 52.6252 75.0493 52.6437 76.7648 50.4563L81.9585 50.4669C82.5371 50.4657 84.8702 50.3372 85.2323 50.6992C82.4296 53.0913 80.5742 57.0732 84.1874 59.6779C84.3507 59.589 84.5429 59.4781 84.7075 59.3987C85.1114 59.5378 85.8741 59.8252 86.2699 59.8165L86.413 59.8697C87.0574 59.8862 87.4962 59.8913 88.1467 59.8424C88.4571 59.9592 88.7662 60.4006 88.7931 60.7272L88.6997 60.7793C89.1641 60.9476 89.1741 61.3961 89.6553 61.647C90.0826 61.8699 90.9945 61.7471 91.3036 61.9057C89.8636 63.6535 88.4323 65.4094 87.0111 67.1732L86.7315 67.5126C87.804 67.4979 97.7451 67.4065 97.9723 67.6067C97.9971 67.6289 98.0153 67.6571 98.0368 67.6826C97.0597 68.4137 94.6877 70.1131 94.1541 71.1264C92.3331 74.585 95.072 77.3232 92.4198 80.8013C91.6766 81.2978 90.4139 81.8549 89.5659 82.2487C88.566 82.713 87.4283 83.2875 86.4224 83.7014L86.3451 83.7814L86.2726 83.7821C85.9366 83.9628 85.5744 84.1503 85.2048 84.2538L85.1013 84.3479C84.9985 84.3976 84.6067 84.5965 84.5234 84.624C84.2029 84.4594 80.4284 84.5266 79.6987 84.5253C79.4279 85.2577 79.1738 86.0815 78.9145 86.7723C78.0133 87.158 76.9268 87.7574 76.0633 88.2445C73.8908 89.4702 71.5591 90.5635 69.4108 91.816L69.4027 92.9126L69.2166 93.0336C67.671 93.8151 65.2898 95.0575 63.8693 95.9405C63.5381 96.1468 61.0354 100.646 60.6846 101.263L60.4639 101.613C59.5664 103.208 58.1981 106.044 56.899 107.184L48.7103 114.917C47.3803 116.174 46.0355 117.451 44.699 118.704C44.5684 118.827 44.5082 118.837 44.3574 118.846C44.0831 119.124 42.0078 125.208 41.6169 126.121L15.8012 116.769L4.04443 112.519C6.79472 104.602 9.82632 96.5237 12.69 88.6276L30.8932 38.3809L37.9284 18.9687L40.0577 13.08C40.4142 12.1084 41.0838 10.4389 41.3377 9.48418C41.8766 7.83271 42.5422 6.18454 43.1196 4.54377C43.3477 3.89558 43.7164 3.01184 43.8856 2.37549Z" fill="#FED9BE"/>
<path d="M76.764 50.4558L81.9577 50.4664C82.5362 50.4653 84.8693 50.3368 85.2315 50.6988C82.4287 53.0908 80.5734 57.0727 84.1866 59.6774C84.3499 59.5886 84.5421 59.4777 84.7067 59.3983C85.1106 59.5373 85.8732 59.8248 86.269 59.8161L86.4122 59.8692C87.0566 59.8857 87.4954 59.8908 88.1459 59.8419C88.4563 59.9587 88.7654 60.4002 88.7923 60.7268L88.6989 60.7789C89.1632 60.9472 89.1733 61.3957 89.6544 61.6466C90.0818 61.8694 90.9937 61.7467 91.3028 61.9052C89.8627 63.6531 88.4314 65.409 87.0102 67.1728L86.7307 67.5122C87.8031 67.4974 97.7443 67.406 97.9714 67.6063C97.9963 67.6284 98.0144 67.6567 98.0359 67.6822C97.0589 68.4133 94.6868 70.1127 94.1533 71.126C92.3322 74.5845 95.0712 77.3228 92.4189 80.8008C91.6757 81.2974 90.4131 81.8544 89.5651 82.2482C88.5652 82.7125 87.4275 83.2871 86.4216 83.701L86.3443 83.7809L86.2717 83.7816C85.9357 83.9624 85.5735 84.1499 85.204 84.2533L85.1005 84.3474C84.9977 84.3971 84.6059 84.596 84.5226 84.6236C84.202 84.459 80.4276 84.5262 79.6978 84.5248C79.427 85.2572 79.173 86.0811 78.9136 86.7718C78.0125 87.1575 76.9259 87.7569 76.0624 88.2441C73.89 89.4697 71.5582 90.563 69.4099 91.8155L69.4019 92.9122L69.2157 93.0331C67.6702 93.8146 65.289 95.0571 63.8684 95.94C63.5373 96.1463 61.0346 100.645 60.6838 101.263L60.463 101.613C59.5656 103.207 58.1973 106.044 56.8981 107.183L48.7094 114.916C47.3795 116.173 46.0347 117.45 44.6982 118.704C44.5675 118.826 44.5074 118.837 44.3566 118.846C44.1429 118.633 43.9703 118.492 43.8292 118.227L43.8895 118.114C43.8361 118.004 43.8781 118.101 43.8372 117.985C42.9008 115.334 44.0036 113.821 45.2091 111.531C43.8044 112.228 42.1217 112.824 40.6843 113.487C40.0898 113.762 39.4386 113.979 38.8714 114.309C38.3471 111.712 39.409 110.181 41.4497 108.749C41.4474 108.701 41.4097 108.657 41.38 108.606C41.0973 108.711 38.4354 108.66 37.9024 108.655L36.8984 108.658C37.329 107.037 37.7627 106.408 39.0878 105.393L39.4586 104.622C38.9199 104.624 38.3428 104.642 37.8104 104.584C38.1962 102.822 39.1368 101.638 40.7859 100.904C41.1671 100.767 41.5094 100.678 41.9026 100.585C43.7019 100.157 45.5071 99.7749 47.304 99.3354C47.9639 98.3597 48.8201 97.2577 49.5273 96.2975L53.8977 90.344C53.3608 89.8158 52.8421 89.2231 52.335 88.6634L52.1266 88.4033C51.1324 87.2194 50.2591 85.944 49.6033 84.5423L49.4597 84.2863C48.888 82.9847 48.6003 82.0809 48.1739 80.7276C48.0488 80.0281 47.7441 79.215 47.6115 78.4839C47.0548 75.4144 46.821 72.3207 47.1781 69.2149C47.2508 68.67 47.3297 68.1257 47.4147 67.5827C47.7476 65.638 48.1646 64.3936 48.879 62.5747C49.0364 62.2209 49.2573 61.8009 49.4311 61.4472C51.4759 57.713 54.1394 55.1683 58.0586 53.4739C59.8571 52.6962 62.6798 51.8365 64.6391 51.8305C65.7242 51.8272 67.398 52.1064 68.5135 52.2659C68.9476 52.2841 69.4301 52.3625 69.8669 52.4007C72.4278 52.6248 75.0484 52.6432 76.764 50.4558Z" fill="white"/>
<path d="M76.7638 50.4558L81.9575 50.4664C82.5361 50.4653 84.8692 50.3368 85.2313 50.6988C82.4286 53.0908 80.5732 57.0727 84.1864 59.6774C84.3497 59.5886 84.5419 59.4777 84.7065 59.3983C85.1104 59.5373 85.8731 59.8248 86.2689 59.8161L86.412 59.8692C86.414 60.0905 86.4013 60.6856 86.451 60.8692L86.24 60.8443C85.5277 60.7334 84.8416 60.5658 84.2341 60.1509C83.6576 60.9933 82.9816 61.7785 82.487 62.666C82.3425 62.9251 82.2968 63.3697 82.2552 63.6706C81.8836 64.809 80.9186 66.1194 80.3522 67.2024L80.1553 67.5505C79.8058 67.4725 79.4342 67.4961 79.0747 67.5014L79.2333 67.1864C80.4321 65.1442 82.8996 62.1689 80.1156 60.2348C79.8979 60.0833 79.359 59.9092 79.2824 59.6998L79.3395 59.4384C78.894 58.9233 76.9681 59.4666 76.5179 59.8876C75.5072 60.8317 74.6989 62.0632 73.8784 63.1806L70.706 67.4981L58.4089 84.2171C58.3453 84.3051 58.1182 84.6303 58.0547 84.6841C56.7991 86.4419 55.2226 88.6688 53.8976 90.344C53.3606 89.8158 52.842 89.2231 52.3348 88.6634L52.1264 88.4034C51.1323 87.2194 50.259 85.944 49.6032 84.5423L49.4596 84.2863C48.8878 82.9847 48.6001 82.0809 48.1737 80.7276C48.0486 80.0281 47.7439 79.215 47.6113 78.4839C47.0547 75.4144 46.8209 72.3207 47.1779 69.2149C47.2507 68.67 47.3296 68.1257 47.4146 67.5827C47.7474 65.638 48.1644 64.3936 48.8788 62.5747C49.0362 62.2209 49.2571 61.8009 49.4309 61.4472C51.4758 57.713 54.1392 55.1683 58.0585 53.4739C59.8569 52.6962 62.6796 51.8365 64.639 51.8305C65.7241 51.8272 67.3979 52.1064 68.5133 52.2659C68.9474 52.2841 69.4299 52.3625 69.8667 52.4007C72.4276 52.6248 75.0483 52.6432 76.7638 50.4558Z" fill="#1C1410"/>
<path d="M49.4609 84.287C51.3741 84.2534 53.2229 84.246 55.1356 84.2594C56.0643 84.2662 57.5196 84.295 58.4103 84.2178C58.3466 84.3058 58.1196 84.631 58.0561 84.6848C56.8005 86.4426 55.224 88.6695 53.8989 90.3447C53.362 89.8165 52.8433 89.2239 52.3362 88.6641L52.1278 88.4041C51.1336 87.2201 50.2603 85.9447 49.6045 84.543L49.4609 84.287Z" fill="#1C1410"/>
<path d="M49.604 84.5425C50.3748 84.4813 51.3907 84.523 52.1871 84.525C52.1918 85.0773 52.2651 88.0662 52.1273 88.4035C51.1331 87.2195 50.2598 85.9442 49.604 84.5425Z" fill="#1C1410"/>
<path d="M86.4118 59.8701C87.0563 59.8866 87.4951 59.8917 88.1455 59.8428C88.456 59.9596 88.7651 60.401 88.792 60.7276L88.6986 60.7797C89.1629 60.948 89.173 61.3965 89.6541 61.6474C90.0815 61.8703 90.9933 61.7475 91.3024 61.9061C89.8624 63.6539 88.4311 65.4098 87.0099 67.1736L86.7303 67.513C87.8028 67.4983 97.744 67.4069 97.9711 67.6071C97.996 67.6293 98.0141 67.6575 98.0356 67.683C97.0586 68.4141 94.6865 70.1135 94.153 71.1268C92.3319 74.5854 95.0709 77.3236 92.4186 80.8017C91.6754 81.2982 90.4128 81.8553 89.5647 82.2491C88.5648 82.7134 87.4272 83.2879 86.4212 83.7018L86.344 83.7818L86.2714 83.7825C85.9354 83.9632 85.5732 84.1507 85.2036 84.2542L85.1001 84.3483C84.9973 84.398 84.6056 84.5969 84.5222 84.6244C84.2017 84.4598 80.4273 84.527 79.6975 84.5257C79.4267 85.2581 79.1727 86.0819 78.9133 86.7727C78.0122 87.1584 76.9256 87.7578 76.0621 88.2449C73.8896 89.4706 71.5579 90.5639 69.4096 91.8164L69.1973 91.9273C68.1665 92.4003 65.6335 93.7953 64.6587 94.3705C66.2089 91.7956 67.6793 89.0869 69.2208 86.4871L69.4513 86.0382C69.4022 85.7728 69.4029 84.8536 69.3982 84.5485L69.2933 84.3973L69.4217 84.1809C69.8114 83.4552 70.2509 82.7181 70.6702 82.0072C73.5046 77.198 76.2086 72.2913 79.0746 67.5023C79.4341 67.4969 79.8057 67.4734 80.1551 67.5513L80.352 67.2033C80.9185 66.1203 81.8834 64.8098 82.255 63.6715C82.2967 63.3705 82.3424 62.9259 82.4869 62.6668C82.9814 61.7794 83.6574 60.9942 84.234 60.1517C84.8414 60.5666 85.5275 60.7343 86.2398 60.8451L86.4508 60.8701C86.4011 60.6864 86.4138 60.0913 86.4118 59.8701Z" fill="#FE9701"/>
<path d="M86.7302 67.5126C87.8027 67.4978 97.7438 67.4064 97.9709 67.6067C97.9958 67.6289 98.014 67.6571 98.0355 67.6826C97.0584 68.4137 94.6864 70.1131 94.1528 71.1264C92.3318 74.585 95.0707 77.3232 92.4184 80.8012C91.6752 81.2978 90.4126 81.8549 89.5646 82.2486C88.5647 82.713 87.427 83.2875 86.4211 83.7014L86.3438 83.7814L86.2712 83.782C86.1765 82.9159 86.2417 80.5513 86.2444 79.6058L86.2551 71.7379C86.2571 70.9483 86.3391 68.8095 86.2007 68.1543L86.3929 67.9433C86.495 67.8029 86.6213 67.6504 86.7302 67.5126Z" fill="#1C1410"/>
<path d="M92.5181 72.6226C92.551 72.8013 92.5375 73.3194 92.5207 73.5082C92.3171 75.8527 93.3688 78.1474 91.6815 80.1142L91.6143 80.1021L91.6962 79.8044C92.3911 77.3283 91.5303 75.1196 92.5181 72.6226Z" fill="white"/>
<path d="M86.4137 59.8701C87.0581 59.8866 87.4969 59.8917 88.1473 59.8428C88.4578 59.9596 88.7669 60.401 88.7938 60.7276L88.7004 60.7797C89.1647 60.948 89.1748 61.3965 89.6559 61.6474C90.0833 61.8703 90.9952 61.7475 91.3043 61.9061C89.8642 63.6539 88.4329 65.4098 87.0117 67.1736L86.7322 67.513C86.6233 67.6508 86.497 67.8033 86.3948 67.9438L86.2027 68.1548C85.6006 68.9026 85.063 69.7117 84.219 70.17C84.0799 69.918 83.4879 67.8215 83.3797 67.4546L83.3186 67.2006C82.9483 66.0925 82.5801 64.7997 82.2568 63.6715C82.2985 63.3705 82.3442 62.9259 82.4887 62.6668C82.9832 61.7794 83.6592 60.9942 84.2358 60.1517C84.8433 60.5666 85.5293 60.7343 86.2416 60.8451L86.4526 60.8701C86.4029 60.6864 86.4157 60.0913 86.4137 59.8701Z" fill="white"/>
<path d="M86.4132 59.8701C87.0576 59.8866 87.4964 59.8917 88.1469 59.8428C88.4573 59.9596 88.7664 60.401 88.7933 60.7276L88.6999 60.7797C87.8566 60.8916 87.3042 60.9188 86.4522 60.8701C86.4024 60.6864 86.4152 60.0913 86.4132 59.8701Z" fill="#1C1410"/>
<path d="M86.2021 68.1533C86.3405 68.8085 86.2585 70.9473 86.2565 71.7369L86.2458 79.6048C86.2431 80.5503 86.1779 82.9149 86.2726 83.781C85.9366 83.9618 85.5745 84.1493 85.2049 84.2527L85.1014 84.3468C84.9986 84.3966 84.6068 84.5954 84.5235 84.623C84.203 84.4584 80.4285 84.5256 79.6987 84.5242L79.774 84.2951L79.7948 84.2454C80.0972 83.4256 80.3895 82.6017 80.6724 81.7746C82.2018 81.3465 83.5397 80.8668 84.5772 79.586C86.6483 77.0306 85.4481 74.4281 84.6478 71.669C84.5578 71.3599 84.211 70.4373 84.2184 70.1685C85.0624 69.7102 85.6 68.9012 86.2021 68.1533Z" fill="#1C1410"/>
<path d="M79.0762 67.5017C79.4357 67.4963 79.8073 67.4728 80.1567 67.5507L73.6829 78.7529C72.6682 80.5121 71.4641 82.4783 70.5186 84.2408C70.4763 84.3127 70.3331 84.5734 70.2854 84.6151C70.0173 84.4814 69.7042 84.5324 69.3998 84.5479L69.2949 84.3967L69.4233 84.1803C69.813 83.4546 70.2525 82.7175 70.6718 82.0065C73.5062 77.1973 76.2102 72.2907 79.0762 67.5017Z" fill="#1C1410"/>
<path d="M69.4004 84.5489C69.7048 84.5334 70.0179 84.4824 70.286 84.6161C70.0173 85.0898 69.7478 85.581 69.4535 86.0386C69.4044 85.7732 69.4051 84.8539 69.4004 84.5489Z" fill="#000004"/>
<path d="M69.1583 84.6542L69.2947 84.3955L69.3995 84.5467C69.4042 84.8518 69.4036 85.771 69.4526 86.0364L69.2221 86.4853C67.6806 89.0851 66.2103 91.7938 64.6601 94.3687C65.6349 93.7935 68.1678 92.3985 69.1986 91.9255L69.411 91.8146L69.4029 92.9112L69.2168 93.0322C67.6712 93.8137 65.29 95.0561 63.8695 95.9391C63.5383 96.1454 61.0356 100.644 60.6848 101.262L60.4641 101.612C60.183 101.498 59.7122 101.544 59.395 101.553L59.6154 101.176C59.9616 100.458 60.6187 99.4003 61.0317 98.6867L63.6419 94.1759L67.1661 88.0765C67.7908 86.9926 68.4964 85.7031 69.1583 84.6542Z" fill="#1C1410"/>
<path d="M59.395 101.554L59.6154 101.178C59.9051 101.335 60.3371 101.277 60.6848 101.263L60.4641 101.613C60.183 101.5 59.7122 101.545 59.395 101.554Z" fill="#1A1B2C"/>
<path d="M59.3934 101.554C59.7106 101.545 60.1815 101.499 60.4625 101.613C59.5651 103.207 58.1967 106.044 56.8976 107.183L48.7089 114.916C47.3789 116.173 46.0342 117.45 44.6976 118.704C44.567 118.826 44.5068 118.837 44.356 118.846C44.1424 118.633 43.9698 118.492 43.8286 118.227L43.889 118.114C46.7235 115.555 49.6627 112.67 52.4594 110.037L55.241 107.428C55.5631 107.127 56.6168 106.171 56.8312 105.863C57.756 104.534 58.5173 102.937 59.3934 101.554Z" fill="#1C1410"/>
<path d="M50.6291 103.171C50.8175 103.385 51.0926 103.678 51.2467 103.906C50.3447 104.605 49.4493 105.313 48.5606 106.029C48.2871 106.246 47.2276 107.118 46.9697 107.228C46.0394 107.623 44.8857 108.004 43.9225 108.344C43.3914 108.531 42.1126 109.019 41.6526 109.097C41.5169 108.956 41.5203 108.928 41.4508 108.749C41.4485 108.701 41.4108 108.657 41.3812 108.606C41.3743 108.501 41.333 108.271 41.395 108.235C42.4773 107.619 45.074 107.041 46.0806 106.535C47.5695 105.787 49.2508 104.14 50.6291 103.171Z" fill="#1C1410"/>
<path d="M44.2236 103.949C45.1518 103.168 47.2987 101.477 48.2916 100.793C48.4933 101.052 48.6895 101.29 48.8609 101.57C47.6287 102.533 45.9091 103.973 44.5696 104.803C44.2613 104.994 42.2905 104.979 41.812 105.114C41.6825 105.15 41.5933 105.035 41.5211 104.938L41.4905 104.633C41.5114 104.451 41.4898 104.284 41.4785 104.1C42.3943 104.065 43.3095 104.014 44.2236 103.949Z" fill="#1C1410"/>
<path d="M37.811 104.584C38.9053 104.492 40.3628 104.672 41.3743 104.545C41.4901 104.4 41.4572 104.321 41.4792 104.099C41.4905 104.283 41.5121 104.45 41.4912 104.632C40.503 104.716 39.962 104.961 39.0884 105.393L39.4592 104.622C38.9205 104.624 38.3434 104.642 37.811 104.584Z" fill="#8A9E85"/>
<path d="M53.1862 106.172C53.378 106.42 53.6024 106.699 53.7779 106.955C52.3929 108.039 50.9426 109.23 49.4971 110.231C48.9167 110.632 46.2271 111.536 45.8378 111.891C45.3483 112.043 45.1872 111.517 45.192 111.125C45.2987 110.919 45.2718 110.983 45.5512 110.87C46.0299 110.679 48.5866 109.636 48.913 109.413C50.1769 108.551 51.9809 107.153 53.1862 106.172Z" fill="#1C1410"/>
<path d="M45.5512 110.869C45.7165 111.195 45.6217 111.402 45.8378 111.89C45.3483 112.042 45.1872 111.516 45.192 111.124C45.2987 110.918 45.2718 110.982 45.5512 110.869Z" fill="#000004"/>
<path d="M23.4177 85.4121C24.4462 85.8401 25.7175 86.2642 26.7835 86.6499L32.4864 88.7168C36.1904 90.0466 40.0213 91.5142 43.7365 92.7774C42.734 95.4357 41.7379 98.225 40.7871 100.903C39.1381 101.637 38.1974 102.822 37.8117 104.584C38.3441 104.642 38.9211 104.624 39.4598 104.622L39.089 105.393C37.7639 106.407 37.3302 107.037 36.8997 108.658L37.9037 108.655C37.8573 109.177 36.6128 112.417 36.3633 113.118C35.5494 112.756 34.4659 112.398 33.6143 112.09L29.0328 110.436C24.7418 108.882 20.3557 107.236 16.0518 105.744C16.391 104.953 16.762 103.832 17.0635 103.001L18.88 97.9811C20.3845 93.8109 21.9644 89.5944 23.4177 85.4121Z" fill="#E89847"/>
<path d="M34.7422 94.8071C35.3351 94.8622 37.8249 95.6827 38.1486 96.2115C38.2112 96.3143 37.5124 98.2139 37.4053 98.5069L36.2861 101.582L34.8806 105.464C34.6802 106.017 34.1751 107.693 33.7633 107.975C33.1899 107.938 30.7251 107.084 30.3484 106.632C30.2658 106.216 30.9783 104.439 31.1676 103.922L32.6221 99.9348L33.7327 96.8546C33.9764 96.1705 34.1619 95.217 34.7422 94.8071Z" fill="white"/>
<path d="M35.195 96.0952C35.8437 96.3096 36.2557 96.4561 36.8875 96.7349C35.6977 100.065 34.4387 103.415 33.2839 106.753C32.655 106.539 32.1927 106.369 31.5767 106.105C32.1232 104.44 32.7865 102.707 33.3886 101.05C33.9755 99.4335 34.5617 97.6824 35.195 96.0952Z" fill="#E89847"/>
<path d="M24.185 95.5371C24.8026 95.5895 27.2916 96.4194 27.6078 96.9126C27.5924 97.5657 25.144 104.342 24.7776 104.711L24.7063 104.703C24.467 104.68 23.6481 104.447 23.4456 104.328C22.91 104.011 21.0753 103.836 21.3459 102.973C22.1089 100.541 23.0224 98.184 23.9093 95.7985C23.942 95.7105 24.1061 95.5902 24.185 95.5371Z" fill="white"/>
<path d="M24.6659 96.7891C25.2593 97.0283 25.7751 97.2326 26.3866 97.4328C25.7525 99.4372 24.8819 101.468 24.2576 103.48C23.7318 103.316 23.0938 103.037 22.5151 102.849C23.2315 100.858 24.0116 98.7935 24.6659 96.7891Z" fill="#E89847"/>
<path d="M27.9084 99.5566C28.3521 99.6003 31.4018 100.522 31.2608 101.075C30.9824 102.166 29.9005 105.742 29.2084 106.42C28.4221 106.116 26.4348 105.565 25.8834 105.129C25.6054 104.551 27.3201 100.703 27.5691 99.8893C27.6016 99.7831 27.8107 99.6265 27.9084 99.5566Z" fill="white"/>
<path d="M28.3443 100.793C28.925 100.989 29.5015 101.195 30.0736 101.415C29.6579 102.584 29.2046 103.983 28.7308 105.11C28.1989 104.866 27.5794 104.672 27.021 104.483C27.4686 103.428 27.9582 101.906 28.3443 100.793Z" fill="#E89847"/>
<path d="M31.365 63.4771C31.9983 63.7502 32.7258 63.9949 33.3813 64.2257C37.9885 65.8476 42.5652 67.6187 47.1789 69.2152C46.8218 72.321 47.0556 75.4147 47.6123 78.4842C47.7449 79.2153 48.0496 80.0284 48.1747 80.7279C47.7189 81.3024 44.7747 89.8833 44.3039 91.1795C43.6232 90.8603 42.4398 90.4686 41.7119 90.2072L37.3127 88.6193C32.9105 87.0214 28.4128 85.3395 23.9941 83.8048C24.2499 83.2551 24.6304 82.1007 24.8447 81.5073L26.4441 77.0832L31.365 63.4771Z" fill="#E89847"/>
<path d="M38.3482 73.7823C38.9043 73.7688 45.2532 76.032 45.5928 76.4049C45.6567 76.4748 45.6745 76.5145 45.6678 76.6045C45.6122 77.3517 42.8133 85.1572 42.3309 86.2041C42.2383 86.405 42.1329 86.5354 41.9653 86.6785C41.2305 86.6523 36.6356 84.832 35.6108 84.5235C35.3887 84.4563 34.7497 84.1996 34.6426 83.9577C34.7157 83.1285 35.2214 81.9231 35.5157 81.1086L36.7308 77.7562C37.0095 76.9882 37.884 74.2419 38.3482 73.7823Z" fill="white"/>
<path d="M36.668 81.2485C37.4257 81.5079 38.1781 81.7834 38.9244 82.0744C38.7152 82.7302 38.4091 83.4956 38.1789 84.1756C37.4222 83.9162 36.6909 83.6172 35.916 83.3605C36.1389 82.6818 36.4304 81.9427 36.668 81.2485Z" fill="#E89847"/>
<path d="M37.8046 78.0874C38.5689 78.3676 39.3314 78.6525 40.092 78.9428C39.7916 79.6537 39.5797 80.274 39.3318 81.0044C38.5868 80.6933 37.8279 80.4171 37.0576 80.1759C37.3087 79.4703 37.5629 78.803 37.8046 78.0874Z" fill="#E89847"/>
<path d="M38.912 74.9951C39.6766 75.2881 40.4466 75.567 41.2217 75.831C40.9716 76.3814 40.6838 77.2489 40.4563 77.8388C40.1417 77.7703 38.5847 77.1575 38.1934 77.011C38.4398 76.3451 38.6988 75.6718 38.912 74.9951Z" fill="#E89847"/>
<path d="M40.0382 82.4648C40.7081 82.741 41.4527 82.9688 42.1627 83.2571C41.9237 83.9539 41.6615 84.6427 41.4211 85.3455C40.7602 85.1486 39.9138 84.8133 39.252 84.5701L40.0382 82.4648Z" fill="#E89847"/>
<path d="M41.1652 79.3076C41.8767 79.5771 42.5994 79.8358 43.3149 80.0965C43.0524 80.7866 42.8019 81.4814 42.5636 82.1802C41.84 81.9034 41.1124 81.6373 40.3809 81.3819C40.6571 80.7886 40.9373 79.9386 41.1652 79.3076Z" fill="#E89847"/>
<path d="M42.2663 76.2144C42.9756 76.5261 43.6742 76.7486 44.4088 76.9844C44.3125 77.3789 43.8561 78.5561 43.6974 79.0372L41.52 78.2363C41.8197 77.5186 42.0219 76.9542 42.2663 76.2144Z" fill="#E89847"/>
<path d="M33.506 68.2654C33.6763 68.2553 33.8242 68.2587 33.9897 68.3044C34.7601 68.5174 40.7039 70.6583 41.0949 71.0225C41.1898 71.1112 41.1702 71.1259 41.1775 71.2503C41.2094 71.7898 41.0046 72.4242 40.6236 72.8159C40.4279 73.0168 40.2503 73.0834 39.9747 73.0881C39.3757 72.8011 39.7054 72.1534 39.9088 71.6984C39.2748 71.4088 38.2539 71.0695 37.5592 70.798C36.8214 72.5606 35.9876 75.0959 35.3188 76.9337L35.0964 77.5969C35.554 77.7481 36.4784 78.1257 35.7869 78.7164C35.1802 78.8797 33.1461 78.1842 32.8227 77.7346C32.7575 77.3751 32.8563 77.2266 33.1805 77.0566C33.4648 76.9081 33.7328 77.0734 34.0014 77.191C34.81 75.0011 35.5932 72.5828 36.4573 70.4426C35.7981 70.153 34.8082 69.8183 34.119 69.565C34.0702 69.7148 34.0178 69.864 33.9618 70.0118C33.8365 70.335 33.4338 70.9096 33.0437 70.538C32.5144 70.034 33.0859 68.6914 33.506 68.2654Z" fill="white"/>
<path d="M39.3014 41.5405C40.7699 41.9867 42.9706 42.8736 44.4885 43.4237L54.4388 47.0314C56.1447 47.6483 57.9151 48.3299 59.6294 48.8944C59.3923 49.6019 57.974 53.022 58.0599 53.4743C54.1406 55.1687 51.4772 57.7134 49.4323 61.4476C49.2585 61.8013 49.0376 62.2213 48.8802 62.5752C48.1658 64.394 47.7488 65.6384 47.416 67.5832C47.3397 67.434 47.3107 67.4024 47.1095 67.3319C45.4109 66.7367 43.7075 66.1072 42.0166 65.4949L31.9521 61.8622C32.3146 60.9658 32.6619 59.9856 32.9774 59.0712C34.9974 53.2173 37.3453 47.4082 39.3014 41.5405Z" fill="#E89847"/>
<path d="M46.3918 57.5777C45.7895 58.2194 43.3576 61.1577 42.7104 60.851C42.4005 60.0535 42.3714 58.119 42.3156 57.197C42.2012 55.2232 42.0975 53.2489 42.0044 51.2739C41.9576 50.3288 41.7251 48.1746 41.8619 47.3729C41.8861 47.231 41.9798 47.0913 42.1075 47.0194C42.2208 46.9556 42.3826 46.8992 42.5063 46.9619C43.0821 47.2538 52.1582 55.7476 52.288 56.044C52.3538 56.1942 52.3372 56.3306 52.2797 56.4791C51.7043 57.0385 48.4477 57.0168 47.4338 57.1315C47.9347 58.4348 48.9936 60.1731 49.4317 61.4474C49.2579 61.8011 49.037 62.2211 48.8796 62.5749C48.5239 62.1982 46.9082 58.4145 46.3918 57.5777Z" fill="white"/>
<path d="M43.8848 2.37549L68.5318 11.3022L76.8897 14.3354C78.1268 14.7859 80.3034 15.6511 81.5109 15.9772C80.7939 18.333 79.661 20.8368 78.9594 23.173C78.2673 22.9826 76.8353 22.4038 76.078 22.1285L70.1626 19.9888L51.411 13.1937C50.3254 12.8007 41.5882 9.71728 41.3369 9.48418C41.8759 7.83271 42.5414 6.18454 43.1188 4.54377C43.347 3.89558 43.7157 3.01184 43.8848 2.37549Z" fill="#E89847"/>
<path d="M45.6833 6.48633C46.3274 6.64642 47.2877 7.03669 47.9074 7.28148C47.6157 7.95243 47.3223 8.92045 47.0394 9.65242C46.817 9.69536 45.1581 9.04692 44.7949 8.92059L45.6833 6.48633Z" fill="white"/>
<path d="M62.2612 49.7505C64.5799 49.6007 66.7329 50.3986 69.0495 50.626L69.2242 50.6483L69.4191 50.6921L69.4083 51.7237L69.2074 51.6853L68.7296 51.6416C67.9105 51.3241 63.2906 50.6877 62.3687 50.7071L62.2612 49.7505Z" fill="#1C1410"/>
<path d="M69.2253 50.6494L69.4202 50.6932L69.4094 51.7248L69.2085 51.6864L69.2253 50.6494Z" fill="#1A1B2C"/>
<path d="M47.3011 19.585C47.9886 19.9187 49.4048 20.3869 50.1802 20.6663L55.532 22.597L63.3224 25.428C64.6312 25.903 66.2883 26.5569 67.6022 26.9461C66.6905 29.211 65.794 31.8862 64.9524 34.2107L60.2206 47.2903C57.9128 46.3421 54.9555 45.3588 52.5677 44.4953L39.9263 39.9211C42.3311 33.2076 44.7816 26.2351 47.3011 19.585Z" fill="#E89847"/>
<path d="M49.9899 24.9289C50.1127 24.9179 50.2862 24.8911 50.4055 24.9191C50.601 24.9651 59.9749 33.5571 60.1856 34.0196C60.2472 34.1548 60.2269 34.3025 60.1835 34.4383C59.6577 34.9558 56.3868 34.958 55.415 35.0213L57.5973 39.6852C57.7069 39.9245 57.7188 39.9351 57.6942 40.1887C57.4653 40.5754 57.0071 40.8801 56.7412 40.3818C55.8951 38.796 55.1874 37.0343 54.3891 35.4291C53.5768 36.5036 52.0856 37.9153 51.0624 38.8366C50.885 38.9964 50.5155 38.7026 50.4818 38.4023C50.4074 37.7412 50.3777 37.0776 50.3355 36.4115C50.24 34.893 50.1561 33.3737 50.0837 31.8538L49.8731 27.5976C49.8391 26.8982 49.632 25.4681 49.9899 24.9289Z" fill="white"/>
<path d="M50.9517 26.8521C51.1668 26.9859 52.6901 28.4351 53.0135 28.7292C54.8294 30.3804 56.6089 32.0975 58.4438 33.728C57.3925 33.8168 56.3397 33.8876 55.2859 33.9402C55.0208 33.9456 54.6507 33.9912 54.3782 34.0161C53.6528 34.6703 52.1095 36.322 51.4614 37.0719C51.2245 33.7363 51.1264 30.2141 50.9517 26.8521Z" fill="#E89847"/>
<path d="M92.4197 80.8008C93.2106 80.6483 94.7125 79.801 95.5121 79.4179L99.5211 77.5351C100.512 77.0634 101.927 76.3491 102.937 76.0185C105.67 75.1302 108.653 75.4836 111.102 76.9868C113.346 78.3825 114.942 80.6154 115.534 83.1903C116.113 85.7108 115.661 88.3583 114.278 90.5429C113.525 91.7403 112.778 92.4432 111.708 93.3342L111.852 93.5667C111.756 93.9242 111.271 94.1291 110.952 94.3744C111.236 94.8965 111.516 95.7257 111.734 96.3036L112.889 99.3401C114.102 102.59 115.367 105.821 116.683 109.031C116.826 109.389 117.211 110.668 117.441 110.823L117.482 110.801C117.438 109.862 117.357 108.724 118.05 107.967C118.291 107.701 118.63 107.543 118.989 107.528C120.567 107.458 122.066 109.858 122.026 111.306C121.988 112.7 120.933 114.323 120.047 115.368C120.314 115.51 120.664 115.685 120.918 115.835C121.482 115.489 122.048 115.146 122.616 114.807C122.849 115.136 122.95 115.272 123.123 115.638L121.987 116.338C122.35 116.587 122.499 116.705 122.91 116.864C123.246 116.653 123.627 116.4 123.967 116.206L124.437 117.034L123.933 117.383C125.123 118.123 126.52 118.707 127.715 119.493C130.526 121.343 132.346 123.557 134.05 126.377C132.82 126.309 131.29 126.347 130.036 126.348L123.105 126.349H101.823L95.0787 105.227C94.5781 105.55 93.9894 105.975 93.5137 106.34C90.1807 108.897 86.419 111.203 83.1371 113.803C82.7084 114.46 82.2366 115.087 81.7239 115.681C81.5291 115.908 81.0439 116.414 80.888 116.629C81.1185 116.769 81.3503 116.906 81.5835 117.042C82.3475 116.715 83.0188 116.347 83.762 116.005C83.8944 116.288 84.0456 116.591 84.1578 116.88L82.5713 117.674C82.9026 117.968 83.0349 118.03 83.4213 118.241C83.5611 118.176 83.6854 118.135 83.8306 118.084C84.1444 117.917 84.6269 117.644 84.9386 117.509L85.2545 118.207L85.3136 118.33C85.1987 118.53 84.684 118.741 84.4427 118.867C84.5556 119.115 85.4547 119.743 85.7511 120.022C87.5822 121.752 88.8845 123.967 89.5047 126.409L59.5346 126.407L59.5393 111.494L59.5261 111.449C59.3303 110.533 58.4599 110.542 58.9542 109.178L58.9414 109.143C58.2845 108.571 57.5284 107.801 56.8989 107.183C58.198 106.044 59.5664 103.207 60.4638 101.613L60.6845 101.263C61.0354 100.645 63.5381 96.1463 63.8692 95.94C65.2898 95.0571 67.671 93.8146 69.2165 93.0331L69.4026 92.9122L69.4107 91.8156C71.559 90.563 73.8907 89.4698 76.0632 88.2441C76.9267 87.7569 78.0133 87.1575 78.9144 86.7718C79.1738 86.0811 79.4278 85.2573 79.6986 84.5248C80.4284 84.5262 84.2028 84.459 84.5234 84.6236C84.6067 84.596 84.9984 84.3971 85.1013 84.3474L85.2047 84.2533C85.5743 84.1499 85.9365 83.9624 86.2725 83.7816L86.3451 83.781L86.4224 83.701C87.4283 83.2871 88.566 82.7125 89.5658 82.2482C90.4139 81.8545 91.6765 81.2974 92.4197 80.8008Z" fill="#FE9701"/>
<path d="M79.3148 114.125C79.0769 112.587 78.7403 110.495 79.6387 109.117C80.22 108.224 81.3408 108.281 82.0679 108.957C83.4683 110.26 83.9629 112.06 83.1363 113.804C82.7076 114.461 82.2359 115.088 81.7232 115.682C81.5283 115.909 81.0431 116.415 80.8872 116.63C80.5082 117.033 80.011 117.017 79.4768 117.035C76.5718 117.133 71.6234 117.546 69.3851 115.379C69.3925 114.963 69.3293 114.318 69.5712 114.034C69.3972 113.312 69.4167 113.179 69.5329 112.442C69.3918 111.901 69.4126 111.448 69.4019 110.894C71.4931 108.667 75.2024 109.522 77.1524 111.491C77.9124 112.257 78.7235 113.216 79.3148 114.125Z" fill="#1C1410"/>
<path d="M69.5332 112.441C70.7132 110.165 73.1544 110.243 75.1919 111.235C76.6789 111.959 78.6082 114.602 79.4428 116.077C76.8859 116.226 72.1142 116.548 70.1601 114.766C69.9263 114.555 69.7274 114.307 69.5715 114.033C69.3974 113.311 69.4169 113.178 69.5332 112.441Z" fill="#FE9701"/>
<path d="M80.7306 109.378C81.7856 109.541 82.465 111.003 82.5839 111.968C82.7109 112.997 81.8427 114.039 81.2245 114.778C81.0579 114.982 80.8039 115.253 80.6245 115.455C80.2199 113.849 79.4042 110.633 80.7306 109.378Z" fill="#FE9701"/>
<path d="M117.483 110.801C117.439 109.863 117.358 108.724 118.051 107.968C118.293 107.701 118.631 107.543 118.991 107.528C120.568 107.458 122.067 109.858 122.027 111.306C121.989 112.7 120.934 114.324 120.048 115.369C119.792 115.718 119.738 115.807 119.393 116.078C116.394 116.615 113.415 117.133 110.369 116.58C106.739 115.92 105.895 112.012 109.083 110.071C109.188 110.322 109.395 110.748 109.41 110.993L109.473 110.991C110.488 110.211 112.993 110.43 113.999 111.067L114.023 111.059C114.178 110.781 114.329 110.5 114.478 110.218C115.924 111.037 116.969 112.217 118.086 113.417C117.911 112.829 117.76 112.313 117.641 111.709C117.619 111.592 117.498 110.851 117.483 110.801Z" fill="#1C1410"/>
<path d="M109.471 110.991C110.487 110.211 112.992 110.429 113.998 111.067L114.022 111.059C115.453 111.881 117.329 113.924 118.324 115.265C115.891 115.682 114.1 115.923 111.599 115.787C108.65 115.628 106.562 113.217 109.408 110.993L109.471 110.991Z" fill="#FE9701"/>
<path d="M118.961 108.439C120.014 108.683 120.784 109.873 121.014 110.875C121.264 111.966 120.513 113.009 119.94 113.873L119.459 114.527C119 113.101 117.676 109.552 118.961 108.439Z" fill="white"/>
<path d="M79.6988 84.5252C80.4286 84.5265 84.203 84.4593 84.5235 84.6239C83.7763 84.9774 79.0886 87.1142 78.9737 87.338L79.004 87.4166C79.0382 87.512 79.0597 87.5799 79.0873 87.676C78.8467 87.9689 70.3322 92.4206 69.4028 92.9125L69.4109 91.8159C71.5592 90.5634 73.8909 89.4701 76.0634 88.2444C76.9269 87.7573 78.0135 87.1579 78.9146 86.7722C79.174 86.0814 79.428 85.2576 79.6988 84.5252Z" fill="#1C1410"/>
<path d="M102.192 84.1948L102.258 84.3306C102.175 84.4959 102.033 84.5335 101.86 84.6168L91.6465 90.8412C90.0204 91.8316 88.071 93.0895 86.4327 94C86.4072 93.6929 86.4172 93.2091 86.4146 92.8893C86.6262 92.7206 87.6026 92.1521 87.8848 91.9808L90.9759 90.1013C93.991 88.2702 97.0976 86.3001 100.131 84.5348C100.314 84.4105 100.453 84.3272 100.646 84.2177C101.047 84.2493 101.821 84.297 102.192 84.1948Z" fill="#1C1410"/>
<path d="M62.232 107.619L62.4864 107.449C62.6767 107.599 63.1543 108 63.344 108.076L63.2909 108.15C62.201 108.73 60.8942 109.682 59.8871 110.163C59.7097 110.088 59.6508 109.908 59.5387 109.711L59.3296 109.477C59.6077 109.121 61.7298 107.918 62.232 107.619Z" fill="#1A1B2C"/>
<path d="M86.2188 93.0128L86.4164 92.8892C86.419 93.209 86.409 93.6928 86.4345 93.9999L86.2665 94.1336C85.3385 94.647 84.4367 95.2444 83.5289 95.7974L77.7634 99.2969C76.7487 99.9151 75.5358 100.699 74.5157 101.268C74.4035 101.34 74.0212 101.594 73.9237 101.635C73.5091 101.507 72.6967 101.542 72.229 101.546C72.3802 101.429 72.5442 101.334 72.7061 101.234C77.1465 98.537 81.7562 95.6119 86.2188 93.0128Z" fill="#1C1410"/>
<path d="M109.149 110.016C110.634 109.378 112.309 109.343 113.82 109.919C114.025 109.997 114.223 110.085 114.425 110.172L114.477 110.218C114.328 110.5 114.176 110.78 114.022 111.059L113.998 111.066C112.992 110.429 110.487 110.211 109.471 110.99L109.408 110.993C109.393 110.747 109.186 110.322 109.082 110.071L109.149 110.016Z" fill="#1A1B2C"/>
<path d="M111.362 92.896C111.476 93.0432 111.591 93.189 111.708 93.3341L111.852 93.5666C111.756 93.9241 111.27 94.129 110.952 94.3743C108.611 95.8949 105.754 98.0479 103.427 99.7036L103.282 99.8104C103.286 99.4536 103.326 98.9772 103.215 98.6547L103.454 98.5035C105.331 97.0762 107.339 95.7626 109.244 94.3683C109.929 93.867 110.651 93.3563 111.362 92.896Z" fill="#1C1410"/>
<path d="M69.1407 103.421C69.2603 103.708 69.2159 104.177 69.2112 104.507C67.3203 105.666 65.2549 106.978 63.3439 108.075C63.1542 107.998 62.6767 107.597 62.4863 107.447C64.7 106.162 66.9297 104.664 69.1407 103.421Z" fill="#1C1410"/>
<path d="M95.0684 104.411C96.3169 103.647 97.8859 102.394 99.1607 101.544C99.5961 101.542 100.302 101.508 100.691 101.641L95.6893 105.205C95.4756 104.859 95.3385 104.714 95.0684 104.411Z" fill="#1C1410"/>
<path d="M120.918 115.835C121.482 115.489 122.048 115.146 122.616 114.807C122.849 115.136 122.95 115.272 123.123 115.639L121.987 116.338C120.843 117.031 119.668 117.808 118.508 118.453C118.331 118.18 118.178 117.906 118.017 117.623C118.989 117.035 119.956 116.438 120.918 115.835Z" fill="#1C1410"/>
<path d="M123.966 116.206L124.437 117.035L123.932 117.383C122.753 118.041 121.014 119.162 119.867 119.891C119.653 119.582 119.516 119.366 119.33 119.038C120.512 118.386 121.723 117.555 122.91 116.865C123.245 116.654 123.627 116.401 123.966 116.206Z" fill="#1C1410"/>
<path d="M83.8313 118.084C84.1451 117.917 84.6275 117.644 84.9393 117.509L85.2552 118.208L85.3143 118.331C85.1994 118.53 84.6847 118.741 84.4434 118.867L84.4031 118.854C83.2594 119.458 81.6655 120.273 80.4895 120.774L80.0991 119.927C80.8672 119.469 82.1191 118.901 82.9537 118.495L83.422 118.241C83.5618 118.176 83.6861 118.136 83.8313 118.084Z" fill="#1C1410"/>
<path d="M83.8302 118.084C84.144 117.917 84.6265 117.644 84.9383 117.509L85.2541 118.208L85.3133 118.331C85.1984 118.53 84.6836 118.741 84.4424 118.867L84.4021 118.854L84.4243 118.761C84.2314 118.413 83.5238 118.714 82.9526 118.495L83.421 118.241C83.5608 118.176 83.6851 118.136 83.8302 118.084Z" fill="#1A1B2C"/>
<path d="M83.8306 118.084C84.1444 117.917 84.6269 117.644 84.9386 117.509L85.2545 118.208C84.944 118.429 84.1397 118.369 83.8306 118.084Z" fill="#1C1410"/>
<path d="M69.4094 103.251C69.6675 103.036 71.8695 101.742 72.2283 101.546C72.696 101.542 73.5084 101.507 73.923 101.635C72.5395 102.48 70.8374 103.587 69.4323 104.352L69.2112 104.508C69.2159 104.177 69.2602 103.709 69.1406 103.421L69.4094 103.251Z" fill="#1C1410"/>
<path d="M81.5842 117.042C82.3482 116.715 83.0195 116.347 83.7627 116.005C83.8951 116.288 84.0463 116.592 84.1585 116.88L82.572 117.674C82.0902 117.913 81.6064 118.147 81.1199 118.376C80.5117 118.258 79.7565 118.457 79.356 118.165C80.0635 117.845 80.8954 117.407 81.5842 117.042Z" fill="#1C1410"/>
<path d="M103.216 98.6548C103.327 98.9773 103.288 99.4537 103.283 99.8105C102.671 100.23 101.789 100.915 101.204 101.267C101.079 101.362 100.819 101.574 100.692 101.642C100.303 101.508 99.5971 101.542 99.1616 101.544C99.2906 101.445 99.458 101.333 99.593 101.238C100.735 100.384 102.04 99.4692 103.216 98.6548Z" fill="#1C1410"/>
<path d="M69.1031 111.27L69.4028 110.894C69.4135 111.448 69.3927 111.901 69.5338 112.442C69.4176 113.179 69.3981 113.311 69.5721 114.034C69.3302 114.318 69.3934 114.962 69.386 115.379L69.13 115.092C68.1738 114.049 68.3088 112.369 69.1031 111.27Z" fill="#1C1410"/>
<path d="M69.1025 111.27L69.4022 110.894C69.413 111.448 69.3922 111.901 69.5333 112.442C69.417 113.179 69.3975 113.311 69.5716 114.034C69.3297 114.318 69.3928 114.962 69.3854 115.379L69.1294 115.092C69.2934 114.804 69.2618 111.641 69.1025 111.27Z" fill="#1A1B2C"/>
<path d="M79.0374 118.662C78.9755 118.566 78.9856 118.549 78.9561 118.432C79.0938 118.237 79.1025 118.28 79.3559 118.164C79.7564 118.456 80.5117 118.257 81.1198 118.375C80.9821 118.446 80.4848 118.714 80.3692 118.754C80.3396 118.714 80.2704 118.658 80.2308 118.622C79.9062 118.569 79.3485 118.538 79.0374 118.662Z" fill="#1A1B2C"/>
<path d="M100.646 84.2167C101.019 83.9875 101.389 83.7537 101.756 83.5151L102.192 84.1938C101.821 84.2959 101.047 84.2482 100.646 84.2167Z" fill="#000004"/>
<path d="M79.0366 118.662C79.3477 118.539 79.9055 118.57 80.23 118.623C80.2697 118.658 80.3389 118.715 80.3685 118.754C80.0217 118.928 79.6669 119.122 79.3229 119.304L79.0366 118.662Z" fill="#1C1410"/>
<path d="M69.4186 50.6921C71.1778 50.9198 73.2179 50.9955 74.7279 49.8523C75.5416 49.2362 76.3164 48.0065 77.0925 47.1857C79.3275 44.8499 82.2217 42.6727 85.3591 41.7644C86.2683 41.5012 87.8528 41.5249 88.8111 41.6446C93.662 42.2506 97.9815 44.9546 101.556 48.1583C102.459 48.9678 103.173 50.0427 103.943 50.9747C105.134 52.5175 105.852 54.217 106.068 56.1519C106.563 56.3339 107.37 56.0729 107.796 56.5835C107.81 56.7811 107.782 56.7916 107.679 56.9606C107.041 57.2836 106.539 56.5974 106.216 57.0276C106.215 57.1533 106.173 57.3812 106.282 57.4343C107.226 57.8977 108.578 57.8921 107.747 59.4052C107.496 59.8611 106.284 59.6571 105.871 59.7774L105.819 59.8679C105.326 61.3997 104.66 62.8858 103.524 64.0581L103.271 64.3295C101.707 65.819 100.705 66.2893 98.8154 67.254C98.6373 67.3554 98.2046 67.6175 98.0366 67.682C98.0151 67.6565 97.9969 67.6282 97.9721 67.6061C97.7449 67.4058 87.8038 67.4972 86.7313 67.512L87.0108 67.1726C88.4321 65.4088 89.8634 63.6529 91.3034 61.905C90.9943 61.7465 90.0824 61.8692 89.6551 61.6464C89.1739 61.3955 89.1638 60.947 88.6995 60.7787L88.7929 60.7266C88.766 60.4 88.4569 59.9585 88.1465 59.8417C87.496 59.8906 87.0572 59.8855 86.4128 59.869L86.2697 59.8159C85.8739 59.8246 85.1112 59.5371 84.7073 59.3981C84.5427 59.4775 84.3505 59.5884 84.1872 59.6772C80.574 57.0725 82.4293 53.0906 85.2321 50.6986C84.8699 50.3366 82.5369 50.4651 81.9583 50.4662L76.7646 50.4556C75.0491 52.643 72.4284 52.6246 69.8675 52.4005C69.4307 52.3623 68.9482 52.2839 68.5141 52.2657C68.3502 52.0511 68.5491 51.7748 68.7292 51.6416L69.2069 51.6853L69.4079 51.7237L69.4186 50.6921Z" fill="#1C1410"/>
<path d="M88.7942 48.7942C90.4405 48.4433 91.7703 48.2722 93.4207 48.7491C91.6991 52.2521 93.0524 53.7112 95.0563 56.6012C95.3217 56.216 95.4548 55.9951 95.9527 55.9212C96.8249 55.7917 97.4445 56.2553 97.8349 56.9729L97.8779 57.0357L97.9935 57.6933L97.9505 57.9101C97.8913 58.2873 97.8779 58.3391 97.7018 58.6771L97.6971 58.7498L97.2193 59.4631L97.1831 59.4632C96.874 59.6854 96.6569 59.8254 96.329 60.0183C96.0884 60.1046 95.8835 60.1784 95.6382 60.2475C95.0462 60.2982 94.6934 60.239 94.1982 59.9294C93.8171 60.1444 93.5981 60.8238 93.371 61.1718C92.9732 61.7828 92.025 61.8214 91.3678 61.8491L91.3033 61.9052C90.9942 61.7466 90.0823 61.8694 89.655 61.6466C89.1738 61.3957 89.1637 60.9471 88.6994 60.7789L88.7928 60.7267C88.7659 60.4002 88.4568 59.9587 88.1464 59.8419C87.4959 59.8908 87.0571 59.8857 86.4127 59.8692L86.2696 59.816C85.8738 59.8248 85.1111 59.5373 84.7072 59.3983C84.5426 59.4776 84.3504 59.5886 84.1871 59.6774C80.5739 57.0727 82.4292 53.0908 85.232 50.6988L85.6944 50.3696L86.2037 50.0258L86.5343 49.8365C87.0779 49.5239 87.4388 49.332 88.0241 49.1005C88.4696 49.3625 88.6389 49.5019 89.1637 49.5079L89.2907 49.4346C89.2901 49.1239 89.0253 48.9804 88.7942 48.7942Z" fill="white"/>
<path d="M97.7022 58.6771L97.5402 58.6089C97.4334 58.2737 97.4972 57.9837 97.8278 57.8242L97.9508 57.9102C97.8917 58.2874 97.8782 58.3392 97.7022 58.6771Z" fill="white"/>
<path d="M86.2667 56.4484C82.3356 56.4788 83.7327 53.249 84.791 54.0198C85.0726 54.6611 83.8731 55.3142 85.9535 55.4389C86.4132 55.6225 86.2815 55.9824 86.2667 56.4484Z" fill="#040413"/>
<path d="M86.4176 55.4397C87.0795 55.4024 88.5108 54.9906 88.6122 55.8462C88.3878 56.3591 87.4981 56.3833 86.9968 56.3927C86.7502 56.4739 86.5298 56.4506 86.2677 56.4484C86.2825 55.9824 86.4142 55.6224 85.9546 55.4389L86.4176 55.4397Z" fill="#1C1410"/>
<path d="M91.0442 51.6948C91.7236 51.8613 92.1207 53.1501 91.8996 53.8034C91.1275 53.7049 90.7485 52.3302 91.0442 51.6948Z" fill="#000004"/>
<path d="M86.4252 50.5811C86.7027 50.4924 86.7276 50.47 87.0024 50.5229C87.5131 50.9326 87.0179 51.4674 86.5744 51.6736C86.3324 51.6318 86.3439 51.634 86.1349 51.5026C85.893 51.0846 86.1309 50.8794 86.4252 50.5811Z" fill="#000004"/>
<path d="M86.5744 51.674C86.3324 51.6322 86.3439 51.6344 86.1349 51.5031C85.893 51.085 86.1309 50.8798 86.4252 50.5815C86.4527 50.9121 86.4655 51.3749 86.5744 51.674Z" fill="#1C1410"/>
<path d="M88.5438 53.0238C88.9187 52.9825 89.1156 52.9476 89.2876 53.3141C89.2594 53.7102 89.117 53.8122 88.8213 54.0863C88.494 54.1205 88.4181 54.1386 88.1715 53.946C87.9766 53.4974 88.2071 53.2959 88.5438 53.0238Z" fill="#000004"/>
<path d="M85.6847 42.7683C85.8702 42.7435 86.139 42.6696 86.2572 42.7529C86.2875 44.225 86.2478 45.7636 86.2391 47.2424C86.2344 48.0641 86.2666 49.2425 86.2048 50.0263L85.6955 50.3701L85.2331 50.6992C84.871 50.3372 82.5379 50.4657 81.9593 50.4669L76.7656 50.4563L77.0727 50.0354C78.838 47.3951 81.9237 44.4934 84.8044 43.1455C85.1156 42.9967 85.3541 42.8745 85.6847 42.7683Z" fill="#1C1410"/>
<path d="M76.7656 50.4556L77.0727 50.0347C77.8771 50.5134 84.7151 49.8708 85.6955 50.3694L85.2331 50.6986C84.871 50.3365 82.5379 50.4651 81.9593 50.4662L76.7656 50.4556Z" fill="#1A1B2C"/>
<path d="M84.6851 43.002L84.8034 43.1451C81.9227 44.493 78.837 47.3947 77.0717 50.035L76.7646 50.4559C75.0491 52.6433 72.4284 52.6249 69.8675 52.4008C69.4307 52.3626 68.9482 52.2842 68.5141 52.266C68.3502 52.0514 68.5491 51.7751 68.7292 51.6419L69.2069 51.6856L69.4079 51.724C74.4597 52.139 75.076 51.1439 78.0111 47.6219C79.4035 45.952 82.6598 43.8479 84.6851 43.002Z" fill="white"/>
<path d="M85.6772 42.6663C85.9077 42.5918 86.2101 42.4636 86.4265 42.5659C86.4292 43.5657 86.3297 49.2252 86.534 49.8369L86.2034 50.0262C86.2652 49.2424 86.233 48.064 86.2377 47.2424C86.2464 45.7635 86.2861 44.2249 86.2558 42.7528C86.1375 42.6696 85.8688 42.7435 85.6833 42.7683L85.6772 42.6663Z" fill="#1A1B2C"/>
<path d="M85.6771 42.666L85.6831 42.768C85.3525 42.8742 85.114 42.9964 84.8028 43.1452L84.6846 43.002C85.0246 42.837 85.3142 42.7676 85.6771 42.666Z" fill="#E4E5EB"/>
<path d="M100.343 57.7519C100.58 57.638 100.861 57.664 101.073 57.8197C101.286 57.9753 101.395 58.2353 101.358 58.4959C101.321 58.7565 101.143 58.9755 100.895 59.0654C100.538 59.1954 100.141 59.0222 99.9941 58.6716C99.8463 58.321 100 57.9165 100.343 57.7519Z" fill="#1C1410"/>
</svg>
