<svg width="166" height="127" viewBox="0 0 166 127" fill="none" xmlns="http://www.w3.org/2000/svg">
<g clip-path="url(#clip0_250_411)">
<path d="M37.4189 30.9972L37.3192 30.5924C37.517 30.322 44.4074 27.561 45.2604 27.2094L60.3012 20.989C62.7569 19.9726 65.7201 18.6568 68.18 17.7548C69.0923 17.4157 70.0373 17.172 70.9998 17.0277C73.8505 16.593 77.0113 17.5432 79.302 19.2633C80.3871 20.0768 81.3141 21.0816 82.0378 22.2281C82.7548 23.3602 83.4698 25.2051 83.997 26.4738L86.7213 33.0439C87.1395 34.0526 87.6849 35.4978 88.1494 36.4349C88.6891 37.804 89.9081 40.9698 90.5365 42.1507C90.681 42.5338 90.8516 43.023 91.0125 43.3887C92.3299 46.3994 93.7493 49.8324 94.9626 52.8912C95.1544 53.3053 95.3837 53.7275 95.4666 54.1701L95.3384 54.3107C95.3529 55.0897 98.2651 61.6183 98.7518 62.8822C100.254 63.1802 101.755 63.4882 103.252 63.8059C103.757 63.9129 104.64 64.1534 105.093 64.2228L105.244 64.2598L105.277 81.5154L105.361 81.6609L106.929 82.5878C108.454 85.8784 109.195 89.2056 107.91 92.7458C107.387 94.1623 106.596 95.4641 105.579 96.5799C105.476 96.6878 105.256 96.9345 105.151 97.0164C102.605 99.4841 96.9487 101.263 93.5951 102.697C90.4285 104.052 86.861 105.583 83.6443 106.79L83.5074 106.905C82.7712 106.999 72.1959 111.482 71.1512 112.005C69.3142 107.091 66.9912 102.203 65.0878 97.2997C64.9501 96.9451 64.7927 96.577 64.5014 96.3255L64.635 96.8545C66.818 101.696 68.8661 107.099 70.9571 112.051L61.9887 115.741L61.5371 115.94C59.7387 116.588 57.8737 117.447 56.0927 118.174C50.8698 120.303 45.6751 122.506 40.442 124.61C37.5361 125.779 34.3844 125.704 31.5337 124.412C29.5348 123.495 27.8347 122.034 26.6287 120.195C25.9823 119.209 25.137 117.017 24.6572 115.856L21.8744 109.113L16.4658 96.0046C15.3886 93.3991 14.2059 90.6655 13.2062 88.0388C14.3721 87.4346 16.3761 86.7235 17.6856 86.1386C17.2177 86.1078 13.8065 87.557 13.091 87.8335L4.58028 66.6137L2.27276 60.864C0.596746 56.6827 -0.767716 53.7605 1.13149 49.2354C1.98501 47.1741 3.43447 45.4146 5.29417 44.1821C6.7973 43.179 8.51476 42.5854 10.1908 41.915L15.7318 39.7028C22.907 36.8341 30.2969 33.9568 37.4189 30.9972Z" fill="#FECF4B"/>
<path d="M24.0446 74.8075C23.8571 74.4743 23.6397 74.0937 23.4795 73.7501C22.7171 72.1081 22.6555 70.2266 23.3091 68.5384C23.9719 66.7716 25.3158 65.3445 27.0398 64.5767C28.9135 63.7496 30.8015 63.7238 32.7072 64.4653C34.4354 65.1571 35.8203 66.5034 36.5606 68.2113C37.0745 69.4236 37.3533 71.2297 36.9364 72.481C36.2312 74.5978 34.5793 76.6672 37.7431 77.8566C40.4545 77.1007 43.9535 75.2717 46.6936 74.3203C47.7169 73.9651 53.2127 71.8502 53.8766 71.3472C53.9316 71.3857 54.0027 71.4079 54.0416 71.4626C54.3495 71.896 60.3706 86.5488 60.5672 87.3525C59.7349 90.3617 57.51 88.9163 55.6584 88.2293C54.22 87.6964 51.8566 88.0597 50.4817 88.7583C48.7434 89.6467 47.4369 91.199 46.8579 93.0626C46.2632 94.9579 46.4675 96.8957 47.3983 98.6465C48.3019 100.357 49.8546 101.632 51.7075 102.186C53.5633 102.757 55.5709 102.557 57.2771 101.63C58.6933 100.861 59.8508 99.6062 60.4312 98.1175C60.5347 97.8525 60.9085 96.9149 61.0226 96.7184C61.3138 96.2588 61.3797 96.2115 61.7991 95.8984C62.4256 95.5438 62.8203 95.6083 63.5279 95.6286C63.9377 95.8627 64.1565 95.9408 64.4245 96.3329L64.5008 96.3262L64.6343 96.8552C66.8173 101.697 68.8654 107.1 70.9565 112.052L61.9881 115.742L61.5364 115.941C59.7381 116.589 57.873 117.448 56.0921 118.174C50.8691 120.304 45.6745 122.506 40.4414 124.611C37.5355 125.78 34.3838 125.705 31.5331 124.412C29.5341 123.496 27.8341 122.034 26.6281 120.196C25.9816 119.21 25.1364 117.018 24.6566 115.857L21.8738 109.114L16.4652 96.0053C15.388 93.3998 14.2053 90.6662 13.2056 88.0395C14.3715 87.4353 16.3755 86.7242 17.685 86.1393C18.2363 85.9707 18.7917 85.7423 19.3233 85.513C22.4663 84.1534 25.696 82.9557 28.8093 81.5411C29.2259 81.3513 29.475 80.7587 29.5805 80.3415C29.2637 79.8366 29.6416 79.0166 28.7908 78.4918C27.5968 77.7546 24.1067 76.561 24.0446 74.8075Z" fill="#1C1410"/>
<path d="M61.8 95.8985C62.4265 95.5439 62.8212 95.6085 63.5287 95.6287C63.9385 95.8629 64.1573 95.9409 64.4254 96.3331L64.5016 96.3263L64.6352 96.8553C66.8182 101.697 68.8663 107.1 70.9574 112.052L61.9889 115.742L61.5373 115.941C61.6577 115.527 61.6227 110.844 61.6125 110.093C61.5537 105.756 61.6808 101.295 61.5826 96.971C61.4029 96.7291 61.4153 96.8033 61.0234 96.7185C61.3147 96.2589 61.3806 96.2117 61.8 95.8985Z" fill="#1C1410"/>
<path d="M61.7993 95.8985C62.4258 95.5439 62.8205 95.6085 63.528 95.6287C63.9379 95.8629 64.1566 95.9409 64.4247 96.3331C64.0214 96.5663 62.4542 96.574 62.0019 96.3668C61.8731 96.308 61.8407 96.0411 61.7993 95.8985Z" fill="#1C1410"/>
<path d="M29.5808 80.3426C29.2641 79.8377 29.6419 79.0177 28.7912 78.4929C27.5971 77.7557 24.1071 76.5621 24.0449 74.8086C24.7439 75.7407 25.206 76.2561 26.2255 76.8705C27.883 77.8697 29.9009 77.81 29.5808 80.3426Z" fill="#E6E7ED"/>
<path d="M37.4189 30.9976C38.9631 34.5184 40.3312 38.1482 41.8656 41.6768C42.5323 43.1724 43.0645 44.7656 43.8448 46.2039C43.995 46.4809 44.6079 46.8988 44.9047 46.9843C46.8246 47.5372 47.4588 45.593 47.9602 44.3616C49.4366 42.3794 50.6506 41.1354 53.2257 40.7451C55.0883 40.4622 56.9869 40.9323 58.5023 42.0516C60.054 43.2117 61.0754 44.9456 61.338 46.865C61.6174 48.8329 61.1239 49.7478 60.4972 51.5035C59.0631 53.3997 57.7347 54.5425 55.3098 54.9283C52.4992 55.3753 51.5924 54.1637 49.5438 53.652C48.9516 53.8286 48.6357 53.9032 48.1216 54.2641C47.9864 54.6468 47.7492 55.2342 47.838 55.617C48.0736 56.6344 48.6927 57.7255 49.089 58.6927L52.3455 66.6064C52.7922 67.6758 53.8539 70.0313 54.1628 71.0533C54.7341 72.0935 55.2477 73.4438 55.7063 74.5582L57.7793 79.5838L59.6177 84.0297C59.9865 84.9239 60.7808 86.43 60.5678 87.3521C60.3712 86.5485 54.3501 71.8956 54.0422 71.4622C54.0034 71.4076 53.9322 71.3853 53.8772 71.3469C53.2133 71.8498 47.7175 73.9647 46.6942 74.32C43.9541 75.2713 40.4551 77.1004 37.7437 77.8563C34.58 76.6668 36.2318 74.5975 36.937 72.4806C37.3539 71.2293 37.0751 69.4232 36.5613 68.2109C35.8209 66.5031 34.436 65.1568 32.7078 64.4649C30.8022 63.7235 28.9142 63.7492 27.0405 64.5763C25.3165 65.3441 23.9725 66.7712 23.3097 68.538C22.6562 70.2262 22.7177 72.1077 23.4801 73.7497C23.6404 74.0933 23.8578 74.4739 24.0452 74.8071C24.1074 76.5607 27.5974 77.7542 28.7915 78.4915C29.6422 79.0162 29.2644 79.8362 29.5811 80.3411C29.4756 80.7584 29.2266 81.351 28.8099 81.5408C25.6966 82.9553 22.4669 84.153 19.324 85.5126C18.7923 85.742 18.237 85.9703 17.6856 86.1389C17.2177 86.1081 13.8065 87.5573 13.091 87.8339L4.58028 66.6141L2.27276 60.8643C0.596746 56.683 -0.767716 53.7609 1.13149 49.2358C1.98501 47.1745 3.43447 45.4149 5.29417 44.1824C6.7973 43.1793 8.51476 42.5858 10.1908 41.9153L15.7318 39.7031C22.907 36.8345 30.2969 33.9572 37.4189 30.9976Z" fill="#E87624"/>
<path d="M48.121 54.2651C47.9858 54.6479 47.7487 55.2353 47.8374 55.6181C48.073 56.6354 48.6921 57.7266 49.0885 58.6937L52.345 66.6074C52.7917 67.6769 53.8533 70.0324 54.1623 71.0543C54.7336 72.0946 55.2472 73.4448 55.7057 74.5592L57.7788 79.5848L59.6172 84.0308C59.986 84.925 60.7802 86.431 60.5672 87.3532C60.3707 86.5495 54.3495 71.8967 54.0416 71.4633C54.0028 71.4086 53.9317 71.3864 53.8767 71.3479C53.1424 70.7598 48.6448 58.4213 47.7528 56.806C47.3168 56.0165 47.484 54.9857 48.121 54.2651Z" fill="#FBFBFB"/>
<path d="M37.4209 30.9972L37.3213 30.5924C37.519 30.322 44.4095 27.561 45.2625 27.2094L60.3033 20.989C62.759 19.9726 65.7222 18.6568 68.1821 17.7548C69.0944 17.4157 70.0394 17.172 71.0019 17.0277C73.8526 16.593 77.0134 17.5432 79.3041 19.2633C80.3891 20.0768 81.3162 21.0816 82.0399 22.2281C82.7569 23.3602 83.4719 25.2051 83.9991 26.4738L86.7234 33.0439C87.1416 34.0526 87.687 35.4978 88.1515 36.4349C88.6912 37.804 89.9102 40.9698 90.5385 42.1507C90.6831 42.5338 90.8537 43.023 91.0146 43.3887C92.3319 46.3994 93.7514 49.8324 94.9647 52.8912C95.1565 53.3054 95.3858 53.7275 95.4687 54.1701L95.3405 54.3107C95.2442 54.2861 95.1468 54.2614 95.0495 54.2366C90.474 56.0748 85.9254 57.9917 81.3673 59.8761C80.4846 60.2411 79.3127 60.8505 78.377 60.4048C78.1081 60.2719 77.7188 59.843 77.4808 59.6139C77.0057 58.0876 77.9896 57.0337 78.4396 55.1979L78.1997 54.7149C78.2315 53.8205 78.2363 53.4171 78.1419 52.5176C77.9164 51.5465 77.7516 51.0275 77.2341 50.1308C77.0067 49.737 76.7291 49.427 76.5952 49.0103C75.9871 47.9951 73.8689 47.0519 72.7405 46.7686C70.8522 46.2912 68.8512 46.6001 67.1951 47.6247C65.5768 48.6149 64.4189 50.208 63.9765 52.0527C63.4672 54.1573 63.9482 56.1352 65.0447 57.9772C65.2429 58.3102 65.5503 58.7702 65.8799 58.971C66.1648 59.3019 66.3065 59.4913 66.671 59.7471C67.4995 60.4044 68.8436 60.9778 69.8655 61.2739C70.3279 61.7527 70.7138 62.2405 70.6868 62.9506C70.6692 63.4149 70.3857 63.9956 70.0458 64.3087C69.226 65.0638 56.2561 70.2047 54.1649 71.0529C53.856 70.0309 52.7943 67.6755 52.3476 66.606L49.0911 58.6923C48.6947 57.7252 48.0757 56.634 47.8401 55.6167C47.7513 55.2338 47.9885 54.6465 48.1237 54.2637C48.6378 53.9029 48.9537 53.8283 49.5459 53.6517C51.5945 54.1633 52.5012 55.3749 55.3119 54.9279C57.7368 54.5422 59.0652 53.3993 60.4992 51.5032C61.126 49.7475 61.6195 48.8325 61.34 46.8646C61.0774 44.9452 60.056 43.2114 58.5044 42.0512C56.989 40.9319 55.0903 40.4619 53.2278 40.7447C50.6527 41.135 49.4387 42.379 47.9622 44.3613C47.4609 45.5926 46.8267 47.5368 44.9067 46.9839C44.61 46.8985 43.9971 46.4806 43.8469 46.2035C43.0666 44.7652 42.5344 43.172 41.8677 41.6765C40.3332 38.1479 38.9652 34.518 37.4209 30.9972Z" fill="#FCAA1B"/>
<path d="M47.9609 44.3617C48.4043 42.9648 49.9984 41.5039 51.2918 40.8446C53.0517 39.935 55.1058 39.7794 56.9827 40.4135C58.8299 41.0239 60.3486 42.3606 61.1882 44.1155C62.0319 45.8062 62.1624 47.7646 61.5504 49.5524C61.3169 50.2205 60.9534 50.9567 60.4979 51.5036C61.1247 49.7479 61.6182 48.833 61.3387 46.865C61.0761 44.9456 60.0547 43.2118 58.5031 42.0516C56.9877 40.9323 55.089 40.4623 53.2264 40.7451C50.6514 41.1355 49.4374 42.3794 47.9609 44.3617Z" fill="#FBFBFB"/>
<path d="M78.1401 52.5176L78.3676 52.5631C78.6085 53.5443 78.6162 54.1886 78.4379 55.1978L78.198 54.7148C78.2298 53.8204 78.2346 53.4171 78.1401 52.5176Z" fill="#E87624"/>
<path d="M78.1409 52.5176C77.9154 51.5464 77.7506 51.0274 77.2332 50.1307C77.0057 49.7369 76.7282 49.4269 76.5942 49.0103C77.609 50.1348 78.087 51.0595 78.3684 52.563L78.1409 52.5176Z" fill="#FBFBFB"/>
<path d="M83.4632 68.8956C78.0551 66.4455 80.5616 63.6572 84.8846 62.3574C89.6905 60.9126 93.9644 61.9868 98.7509 62.8831C100.253 63.1811 101.754 63.4891 103.251 63.8067C103.756 63.9138 104.639 64.1543 105.092 64.2237L105.243 64.2607L105.276 81.5162L105.047 81.4902L104.989 81.4112C102.608 80.1451 98.457 76.8361 96.3147 75.0419L96.0912 74.9051C91.5918 71.2379 88.8579 71.051 83.5972 68.9857L83.4632 68.8956Z" fill="#E87624"/>
<path d="M96.3169 75.0414C98.9892 74.8832 102.292 75.0776 105.05 75.0082C105.053 75.8884 105.11 80.8682 104.991 81.4107C102.61 80.1446 98.4591 76.8356 96.3169 75.0414Z" fill="#E87624"/>
<path d="M83.5678 96.7796C88.9191 96.7565 99.0753 96.77 104.913 96.8336C104.992 96.8943 105.071 96.955 105.15 97.0166C102.605 99.4844 96.9484 101.263 93.5948 102.697C90.4282 104.053 86.8607 105.583 83.644 106.79C83.485 106.54 83.5669 97.7759 83.5678 96.7796Z" fill="#FECF4B"/>
<path d="M105.579 96.5801C105.333 96.4423 105.424 96.5358 105.284 96.3045C105.268 94.733 105.126 82.2875 105.361 81.6611L106.929 82.5881C108.454 85.8787 109.195 89.2059 107.91 92.7461C107.387 94.1625 106.596 95.4643 105.579 96.5801Z" fill="#FECF4B"/>
<path d="M105.048 81.4897L105.277 81.5158L105.361 81.6613C105.127 82.2876 105.269 94.7331 105.284 96.3047C105.425 96.5359 105.333 96.4425 105.58 96.5803C105.477 96.6882 105.256 96.9348 105.151 97.0168C105.072 96.9551 104.993 96.8944 104.914 96.8337C99.076 96.7701 88.9199 96.7566 83.5686 96.7797C83.5676 97.7761 83.4857 106.54 83.6447 106.79L83.5079 106.905C83.2756 106.07 83.3749 98.2289 83.3556 96.7662C79.1723 96.8 74.9081 96.7653 70.7228 96.7354L70.7635 96.7315L70.6919 96.7036C73.7064 96.6342 76.9944 96.6949 80.0252 96.6988L96.0896 96.6959C98.7165 96.6949 102.218 96.6458 104.92 96.7277C105.449 96.7441 104.583 96.8125 105.205 96.7489L105.247 96.5581L104.969 96.5263C104.967 96.1813 105.046 95.8364 105.044 95.4249L105.048 81.4897Z" fill="#F5D275"/>
<path d="M78.1975 54.7158L78.4374 55.1989C77.9874 57.0347 77.0035 58.0885 77.4785 59.6148C76.4137 59.2459 77.6713 56.4621 77.9324 55.8507C78.0577 55.559 78.1339 55.0419 78.1975 54.7158Z" fill="#FBFBFB"/>
<path d="M83.4639 68.8955L83.5979 68.9857C83.5295 69.798 83.6489 74.5269 83.5131 74.8183C83.2057 74.09 83.2991 69.7434 83.4639 68.8955Z" fill="#F5D275"/>
<path d="M66.7952 59.5903C67.4682 60.0742 69.7333 60.8724 69.8629 61.2753C68.8411 60.9792 67.4969 60.4058 66.6685 59.7485L66.7952 59.5903Z" fill="#FBFBFB"/>
<path d="M65.8794 58.9722C66.2103 59.0012 66.5283 59.3542 66.7972 59.5901L66.6705 59.7483C66.306 59.4925 66.1643 59.3031 65.8794 58.9722Z" fill="#F5D275"/>
<path d="M104.29 18.248L119.313 36.8382C121.568 39.6661 123.852 42.4712 126.164 45.2529C128.375 47.8599 130.205 49.9093 132.753 52.1611C134.89 54.0494 136.97 56.8789 138.505 59.2851C141.668 59.4899 144.894 59.642 148.045 59.8795C148.046 59.4856 148.027 58.448 148.085 58.1146L166.043 58.7757C165.636 65.6587 165.59 73.0607 165.381 79.9893C165.195 86.1408 164.88 92.5322 164.805 98.6518L148.095 96.6823C147.984 95.8661 148.045 93.4726 148.048 92.5428C141.903 91.5387 135.768 90.472 129.645 89.3437C123.355 88.1749 116.967 87.0966 111.061 84.5461C109.625 83.9265 108.331 83.2761 106.929 82.5881L105.361 81.6611L105.277 81.5156L105.244 64.2601L105.093 64.2231C104.64 64.1537 103.758 63.9132 103.253 63.8061C101.755 63.4884 100.255 63.1805 98.7522 62.8825C98.2656 61.6185 95.3534 55.0899 95.3389 54.311L95.4671 54.1703C95.3842 53.7277 95.1548 53.3056 94.9631 52.8915C93.7498 49.8327 92.3303 46.3997 91.013 43.3889C90.852 43.0232 90.6815 42.534 90.5369 42.1509C89.9086 40.97 88.6896 37.8042 88.1499 36.4352C89.6378 35.7755 92.286 35.05 93.9599 34.509C96.291 33.7558 98.9411 32.896 101.326 32.3904C101.567 32.3393 103.101 32.5805 103.504 32.6261C103.726 32.2527 103.775 32.122 104.137 31.8958C102.897 28.5703 101.88 24.9265 100.91 21.5069C100.328 19.4573 102.269 18.8648 103.852 18.3716C103.997 18.3254 104.143 18.2843 104.29 18.248Z" fill="#E87624"/>
<path d="M148.085 58.1152L166.043 58.7763C165.636 65.6593 165.59 73.0613 165.38 79.99C165.194 86.1414 164.88 92.5328 164.805 98.6524L148.095 96.6829C148.223 95.542 148.112 92.5415 148.11 91.2561V80.0266L148.109 65.4286C148.11 63.4208 148.232 59.9698 148.085 58.1152Z" fill="#1C1410"/>
<path d="M155.44 87.0181C156.61 86.7801 157.817 87.1915 158.6 88.0925C159.382 88.9944 159.619 90.247 159.219 91.3725C158.82 92.4979 157.846 93.3208 156.67 93.527C154.885 93.8412 153.179 92.6608 152.842 90.8801C152.505 89.0985 153.663 87.3775 155.44 87.0181Z" fill="#FBFBFB"/>
<path d="M155.616 88.2673C156.72 87.9946 157.836 88.6739 158.102 89.7801C158.368 90.8862 157.683 91.9982 156.575 92.2574C155.475 92.5147 154.376 91.8363 154.112 90.7388C153.848 89.6413 154.52 88.5371 155.616 88.2673Z" fill="#1C1410"/>
<path d="M99.8752 50.7549C104.234 52.4343 110.434 55.2329 111.577 60.2478C111.266 60.408 110.706 60.3934 110.344 60.3556C108.8 60.1944 108.042 62.1867 107.47 63.2949C107.268 63.7029 107.271 64.161 107.266 64.6478C106.589 64.5294 105.915 64.4002 105.244 64.2603L105.093 64.2233C104.64 64.1539 103.757 63.9134 103.252 63.8064C101.754 63.4887 100.254 63.1807 98.7516 62.8827C98.2649 61.6188 95.3527 55.0902 95.3382 54.3112L95.4664 54.1706C95.3835 53.728 95.1542 53.3058 94.9624 52.8917L99.8752 50.7549Z" fill="#FBFBFB"/>
<path d="M90.5371 42.1519C92.4673 40.6901 97.7174 36.8085 100.277 36.4256C100.568 36.3822 103.552 37.4214 104.08 37.5971L109.775 39.4386C111.846 40.1078 113.93 40.7376 115.997 41.4175C116.365 41.5389 116.619 41.7382 116.725 42.1125C116.533 42.5539 115.997 42.7236 115.56 42.5831C114.122 42.1221 112.685 41.6553 111.245 41.1993C107.573 40.0566 103.916 38.8663 100.274 37.6289C98.2301 38.2635 92.6716 41.9221 91.0132 43.3899C90.8522 43.0242 90.6817 42.535 90.5371 42.1519Z" fill="#1C1410"/>
<path d="M104.137 31.8955C106.559 32.438 116.819 34.8676 117.911 36.7052C118.002 36.8607 118.055 36.9942 118.042 37.1777C117.462 37.87 114.534 36.1443 113.683 35.8472C111.431 35.0568 109.145 34.3668 106.832 33.779C106.007 33.5664 104.523 33.3473 103.865 33.109C103.694 32.9087 103.645 32.8471 103.504 32.6258C103.726 32.2524 103.775 32.1218 104.137 31.8955Z" fill="#1C1410"/>
<path d="M123.166 62.6144C123.482 62.52 123.824 62.6056 124.059 62.8376C124.293 63.0696 124.383 63.4112 124.291 63.7282C124.2 64.0454 123.943 64.2875 123.621 64.3597C123.147 64.4659 122.673 64.1775 122.551 63.7071C122.427 63.2367 122.699 62.7537 123.166 62.6144Z" fill="#E87624"/>
<path d="M138.63 126.276C138.627 125.444 138.51 121.848 138.798 121.32C139.9 120.941 148.925 120.942 150.217 121.192C150.855 121.795 150.444 124.179 150.541 125.059C150.603 125.619 150.595 126.468 150.351 126.983C149.932 127.271 141.086 127.179 139.927 127.153L139.824 127.021C139.402 126.549 139.223 126.438 138.607 126.318C138.156 126.414 136.885 126.364 136.367 126.354C136.983 126.227 137.972 126.271 138.63 126.276Z" fill="#FBFBFB"/>
<path d="M138.607 126.319C139.223 126.438 139.402 126.55 139.824 127.021C139.186 127.477 138.675 127.04 138.607 126.319Z" fill="white"/>
</g>
<defs>
<clipPath id="clip0_250_411">
<rect width="165.974" height="127" fill="white"/>
</clipPath>
</defs>
</svg>
