<svg width="147" height="128" viewBox="0 0 147 128" fill="none" xmlns="http://www.w3.org/2000/svg">
<g clip-path="url(#clip0_250_363)">
<path d="M42.1587 49.8074L50.8473 22.9516L53.2285 15.6177C53.7311 14.063 54.4347 11.6411 55.2008 10.2589C56.3318 8.22319 58.0454 6.57189 60.1218 5.51693C63.1432 3.95785 66.4025 3.91384 69.5895 4.94389L104.158 16.1578L113.313 19.1147C117.995 20.6235 121.793 21.4114 124.325 26.2533C126.992 31.3557 125.029 35.4851 123.412 40.4489C122.171 44.2548 120.963 48.1326 119.672 51.9389C119.629 52.0628 119.583 52.1857 119.534 52.3073C119.458 52.1341 119.378 51.9622 119.296 51.7917C119.125 51.4387 118.931 51.0588 118.741 50.7161C117.88 49.1607 117.162 47.4074 116.191 45.9238C114.701 43.6519 112.503 41.9346 109.938 41.0376C103.806 38.9602 100.163 41.7681 94.9676 44.3589L94.5476 44.5895L86.7944 48.534C85.3723 49.2589 83.6456 50.0827 82.2652 50.848C82.1498 50.9113 82.0236 50.975 81.9154 51.0472C80.3206 51.7398 78.2857 52.8909 76.678 53.6963L76.5533 53.7623L74.9054 54.6128C70.9166 56.6485 66.528 56.1473 63.3748 52.7916C62.5407 51.9041 62.1074 50.9977 61.4885 49.975C59.3501 46.4409 54.8919 44.6218 50.8918 45.6596C49.2452 46.0806 47.8717 46.8701 46.3815 47.6418L42.1587 49.8074Z" fill="#FDCE4B"/>
<path d="M73.5953 20.6155C79.4964 19.8996 84.8585 24.1072 85.566 30.0084C86.2734 35.9097 82.0574 41.2653 76.1549 41.9642C70.2634 42.6617 64.9203 38.4569 64.2142 32.5676C63.5081 26.6783 67.7059 21.3299 73.5953 20.6155Z" fill="white"/>
<path d="M94.968 44.3589C100.164 41.7682 103.806 38.9603 109.938 41.0376C112.503 41.9347 114.701 43.652 116.191 45.9239C117.162 47.4074 117.88 49.1608 118.741 50.7162C118.931 51.0589 119.126 51.4388 119.296 51.7918C119.379 51.9622 119.458 52.1341 119.534 52.3074C118.972 53.8331 118.215 56.1791 117.763 57.7527C117.713 57.9046 117.58 58.3413 117.52 58.4638L117.375 58.9488L117.315 59.0404C117.215 59.3669 117.115 59.7129 117.009 60.0355L116.886 60.3361L116.643 61.2133L116.543 61.4903L114.931 66.4378C114.721 67.077 114.224 68.4706 114.086 69.0749L113.957 69.4341C113.731 70.1465 113.488 70.9844 113.218 71.6682C113.139 72.0365 113.022 72.3339 112.896 72.6865L110.763 79.3328C111.336 79.5062 112.119 79.6317 112.78 79.8209L112.976 79.9198C112.964 80.8901 112.841 86.5474 113.008 87.1229C113.108 87.1558 113.213 87.1917 113.314 87.2218L113.671 87.1738C113.522 87.4232 113.005 88.1979 112.981 88.4114L112.873 88.3863C112.759 88.1033 112.773 87.7421 112.76 87.4282L104.697 87.4389C104.049 87.4404 101.664 87.4841 101.209 87.3816L101.172 87.2232C100.891 87.1523 100.191 87.1673 99.8664 87.1644L99.7567 87.2526C99.3754 87.105 95.5801 87.1702 94.9085 87.1594C94.9028 85.1657 94.9221 82.1815 94.8612 80.1219C94.8261 80.0681 94.7917 80.0151 94.7573 79.9613L94.6827 79.942C90.4323 81.2133 89.8732 83.5331 88.0534 87.1609L88.0018 87.191L87.9989 87.3063L87.862 87.5099C87.6577 87.9298 87.3961 88.5075 87.1581 88.8945C85.9275 88.4759 84.6674 88.0796 83.4295 87.6769C83.0998 87.603 82.4325 87.3587 82.087 87.2433C80.3288 86.6814 78.5742 86.111 76.8224 85.5305L76.5543 85.4559C75.8555 85.1779 74.5739 84.8088 73.8292 84.5666L68.3918 82.7921C66.6283 82.3249 64.0353 81.3896 62.2404 80.8077L50.0439 76.8424C45.6371 75.4148 42.1469 74.714 39.6051 70.2906C38.1564 67.7556 37.702 64.7725 38.3305 61.9211C38.6278 60.5542 39.1974 59.1476 39.5851 57.8076C40.3328 55.2244 41.4673 52.361 42.1591 49.8074L46.3819 47.6418C47.8721 46.8702 49.2456 46.0806 50.8922 45.6596C54.8923 44.6219 59.3504 46.4409 61.4889 49.9751C62.1077 50.9977 62.5411 51.9042 63.3751 52.7917C66.5284 56.1474 70.917 56.6485 74.9058 54.6129L76.5536 53.7623L76.6783 53.6964C78.286 52.8909 80.3209 51.7398 81.9157 51.0473C82.024 50.9751 82.1501 50.9113 82.2655 50.8481C83.646 50.0827 85.3727 49.2589 86.7947 48.5341L94.548 44.5896L94.968 44.3589Z" fill="#1C1410"/>
<path d="M94.9207 69.3354L112.758 69.3377C112.771 70.0783 112.749 72.0573 112.894 72.6865L110.762 79.3328C111.335 79.5063 112.117 79.6317 112.779 79.8209L112.975 79.9198C112.962 80.8901 112.839 86.5474 113.006 87.1229C113.106 87.1559 113.212 87.1917 113.313 87.2218L113.67 87.1738C113.521 87.4232 113.004 88.1979 112.98 88.4114L112.871 88.3864C112.757 88.1033 112.772 87.7421 112.759 87.4282L104.695 87.4389C104.047 87.4404 101.663 87.4841 101.207 87.3816L101.17 87.2232C100.89 87.1523 100.19 87.1673 99.865 87.1645L99.7553 87.2526C99.374 87.105 95.5787 87.1702 94.9071 87.1594C94.9014 85.1657 94.9207 82.1815 94.8598 80.1219C94.8247 80.0681 94.7903 80.0151 94.7559 79.9613L95.0232 79.871C94.9953 79.8352 94.9673 79.7994 94.9393 79.7635C94.8892 77.3448 94.9157 71.4342 94.9207 69.3354Z" fill="#1C1410"/>
<path d="M110.763 79.3325C111.336 79.506 112.119 79.6314 112.78 79.8206L112.976 79.9195C112.964 80.8898 112.84 86.5471 113.007 87.1226C113.108 87.1556 113.213 87.1914 113.314 87.2215L113.671 87.1735C113.522 87.4229 113.005 88.1976 112.981 88.4111L112.873 88.3861C112.759 88.103 112.773 87.7418 112.76 87.4279L104.696 87.4386C104.048 87.4401 101.664 87.4838 101.209 87.3813L101.171 87.2229L101.291 87.1692L102.977 84.438C104.325 82.2608 105.331 80.6634 107.948 79.7611C108.369 79.6249 108.799 79.5282 109.232 79.4587C109.59 79.4013 110.489 79.4751 110.763 79.3325Z" fill="#FE9701"/>
<path d="M95.0232 79.8711C96.5958 79.6467 98.7748 79.8295 100.074 80.8049C100.744 81.3072 101.186 82.0569 101.301 82.8868C101.498 84.3401 100.522 85.8609 99.865 87.1645L99.7553 87.2526C99.374 87.105 95.5787 87.1702 94.9071 87.1595C94.9014 85.1657 94.9207 82.1816 94.8598 80.1219C94.8247 80.0681 94.7903 80.0151 94.7559 79.9614L95.0232 79.8711Z" fill="#FE9701"/>
<path d="M94.9679 44.3589C100.164 41.7682 103.806 38.9603 109.938 41.0376C112.503 41.9347 114.701 43.652 116.191 45.9239C117.162 47.4074 117.88 49.1608 118.741 50.7162C118.931 51.0589 119.126 51.4388 119.296 51.7918C119.379 51.9622 119.458 52.1341 119.534 52.3074C118.972 53.8331 118.215 56.1791 117.763 57.7527C117.713 57.9046 117.58 58.3413 117.52 58.4638L117.375 58.9488L117.314 59.0404C117.215 59.3669 117.115 59.7129 117.009 60.0355L116.886 60.3361L116.643 61.2133L116.543 61.4903L114.931 66.4378C114.721 67.077 114.224 68.4706 114.085 69.0749L112.972 69.0847C112.981 67.3368 112.861 64.6265 112.999 62.9656C113.167 62.8202 113.21 62.9674 113.594 62.9552C113.673 62.7711 113.626 62.7698 113.567 62.526L113.754 62.4439C113.77 62.2014 113.79 62.3214 113.644 62.0838C113.403 61.9468 113.328 61.9749 113.036 61.9854L112.896 62.2452L112.808 62.266L112.642 62.1046C112.596 62.1183 112.481 62.1492 112.444 62.1694C112.484 61.7607 112.418 61.9144 112.708 61.5964C112.765 61.2212 112.678 59.8133 112.629 59.3863C112.595 59.7561 112.669 60.8954 112.485 61.0846L112.165 61.0866C111.588 60.7296 111.924 59.6865 111.871 59.0915C111.855 58.9118 111.848 58.4288 111.929 58.2841C112.405 58.1281 112.424 58.3947 112.769 58.4174L113.019 58.3087C112.902 58.0746 112.929 51.939 112.926 51.2054L118.146 51.1978C116.892 51.0526 115.776 51.1401 114.575 51.0557C113.134 50.9545 111.985 51.0639 110.597 51.0524L94.879 50.989C94.874 50.1723 94.7672 44.7061 94.9679 44.3589Z" fill="#1C1410"/>
<path d="M117.314 59.0404L117.142 59.0778C116.702 58.8998 116.076 58.7987 115.818 58.5112C115.762 57.797 117.115 58.047 117.52 58.4638L117.374 58.9488L117.314 59.0404Z" fill="#1C1410"/>
<path d="M94.5481 44.5894C94.5925 44.6444 94.6363 44.6994 94.68 44.7545C94.7717 46.3682 94.7158 49.4984 94.7086 50.9887L86.6859 50.9916C85.9713 50.9931 82.6233 51.149 82.2656 50.8479C83.6461 50.0825 85.3728 49.2587 86.7949 48.5338L94.5481 44.5894Z" fill="#1C1410"/>
<path d="M112.964 69.3079C113.332 69.3086 113.636 69.2738 113.957 69.4344C113.731 70.1469 113.488 70.9848 113.218 71.6685C112.947 71.7438 113.159 71.819 112.885 72.1379C112.859 71.4721 112.97 70.1448 112.964 69.3079Z" fill="#1C1410"/>
<path d="M83.4292 87.6761C83.4736 87.6124 83.5295 87.5041 83.5883 87.4927C84.1689 87.3766 87.5205 87.373 87.8617 87.5092C87.6574 87.9291 87.3958 88.5067 87.1578 88.8937C85.9271 88.4752 84.6671 88.0789 83.4292 87.6761Z" fill="#1C1410"/>
<path d="M50.0439 76.8423L62.2404 80.8075C64.0352 81.3895 66.6283 82.3247 68.3918 82.792L73.8292 84.5664C74.5739 84.8087 75.8555 85.1777 76.5543 85.4558L76.8224 85.5303C78.5741 86.1108 80.3288 86.6813 82.087 87.2431C82.4325 87.3585 83.0998 87.6029 83.4295 87.6767C84.6674 88.0795 85.9274 88.4758 87.1581 88.8943C87.3961 88.5073 87.6577 87.9297 87.862 87.5097L87.9989 87.3062L88.0017 87.1908L88.0533 87.1607C89.8732 83.533 90.4323 81.2132 94.6827 79.9418L94.7572 79.9612C94.7916 80.0149 94.8261 80.068 94.8612 80.1217C94.9221 82.1814 94.9027 85.1655 94.9085 87.1593C95.5801 87.17 99.3754 87.1048 99.7567 87.2525L99.766 87.4266L99.7216 87.4316C99.2112 88.4665 98.2816 90.2151 97.8666 91.2242C97.7526 91.4485 97.6322 91.5868 97.658 91.8004L97.749 91.8434C97.5146 91.915 97.5383 91.8928 97.3792 92.1773C96.8179 93.1806 96.3176 94.4742 95.7414 95.4439C95.3142 95.5958 95.2145 95.9677 95.0138 96.3913L94.9744 96.4744L94.5974 97.2663C94.725 97.5616 94.682 98.9175 94.6849 99.3002C93.9616 101.015 92.632 103.569 91.7683 105.279L91.63 105.553C90.3871 108.193 89.0267 110.808 87.7738 113.444C87.6075 113.721 87.5989 113.778 87.3244 113.916C86.9259 113.927 86.8607 113.805 86.6779 113.471C86.2708 113.389 82.8726 113.441 82.2354 113.442L70.8735 113.441L65.7306 113.44L63.6662 113.443L63.1848 114.007C64.7278 118.313 66.2232 123.311 67.6388 127.708H38.5289C38.349 127.185 38.0701 125.847 37.9348 125.266L36.8051 120.403L35.3308 114.154C33.9928 108.488 33.2124 104.508 34.3069 98.567C35.6521 91.2005 39.6227 84.5722 45.4828 79.9089C46.3911 79.1944 47.3347 78.5257 48.31 77.9058C48.8965 77.5353 49.467 77.2393 50.0439 76.8423Z" fill="#FE9701"/>
<path d="M68.3917 82.792L73.8291 84.5664C74.5738 84.8087 75.8554 85.1777 76.5542 85.4558L76.8223 85.5303C78.574 86.1108 80.3287 86.6813 82.0869 87.2432C82.4324 87.3585 83.0997 87.6029 83.4294 87.6767C84.6673 88.0795 85.9273 88.4758 87.158 88.8943C86.7803 89.7937 86.1832 90.8874 85.7388 91.7839C85.3926 92.4826 84.8472 93.6214 84.4451 94.2521C84.2573 94.1668 84.106 94.1395 83.906 94.0879C83.3455 94.0435 81.94 93.5985 81.3479 93.4265L76.79 92.1028L76.5735 92.0333C71.0935 90.4846 65.5233 88.7524 60.0405 87.284L68.3917 82.792Z" fill="white"/>
<path d="M94.6821 79.9424L94.7566 79.9617C94.6061 80.472 94.6756 86.2518 94.6778 87.1756C92.6192 87.1778 90.0618 87.253 88.0527 87.1613C89.8726 83.5336 90.4317 81.2137 94.6821 79.9424Z" fill="#FE9701"/>
<path d="M58.4463 90.625L58.7712 90.7425C63.596 93.0638 65.7684 96.3532 66.0332 101.687C69.5191 101.688 73.0768 101.727 76.5574 101.68L76.5538 102.655H69.2226C68.2512 102.656 66.1435 102.714 65.2507 102.613C64.6199 102.147 66.1716 95.6602 58.7066 91.8318L58.4545 91.705C58.4795 91.3467 58.458 90.9848 58.4463 90.625Z" fill="#1C1410"/>
<path d="M58.4463 90.625L58.7712 90.7425C58.6651 91.0751 58.7015 91.4728 58.7066 91.8318L58.4545 91.705C58.4795 91.3467 58.458 90.9848 58.4463 90.625Z" fill="#1C1410"/>
<path d="M83.906 94.0869C84.106 94.1385 84.2573 94.1657 84.4451 94.251C84.5275 94.4538 84.6414 94.6373 84.5203 94.8537C83.9999 95.7861 80.8283 102.226 80.4211 102.635C79.8441 102.717 77.2315 102.661 76.5542 102.653L76.5578 101.678L76.8323 101.688L79.8341 101.688C80.9394 99.7141 81.9013 97.6193 82.9771 95.6256C83.2423 95.1339 83.5183 94.4847 83.906 94.0869Z" fill="#1C1410"/>
<path d="M76.5578 101.68L76.8323 101.689L76.8366 102.603C77.7842 102.601 79.5295 102.547 80.4211 102.637C79.8441 102.719 77.2315 102.663 76.5542 102.655L76.5578 101.68Z" fill="#1C1410"/>
<path d="M90.5346 105.555L90.6787 105.258L91.7682 105.279L91.6299 105.553C90.387 108.193 89.0266 110.808 87.7737 113.444C87.6074 113.721 87.5988 113.778 87.3243 113.916C86.9257 113.927 86.8605 113.805 86.6777 113.471C86.9594 112.709 87.6446 111.404 88.0166 110.643C88.8467 108.943 89.686 107.247 90.5346 105.555Z" fill="#1C1410"/>
<path d="M90.5342 105.555L90.6782 105.258L91.7677 105.279L91.6294 105.553C91.276 105.545 90.8904 105.554 90.5342 105.555Z" fill="#1C1410"/>
<path d="M94.5973 97.2666C94.7248 97.5619 94.6818 98.9178 94.6847 99.3005C93.9615 101.015 92.6319 103.57 91.7682 105.28L90.6787 105.258C91.06 104.338 91.7316 103.067 92.1818 102.147C92.9688 100.512 93.7744 98.8848 94.5973 97.2666Z" fill="#1C1410"/>
<path d="M58.4543 91.7049C57.9224 91.4419 55.9922 91.1259 56.9531 90.2372C57.4292 90.1068 57.9645 90.4221 58.446 90.6249C58.4578 90.9847 58.4792 91.3466 58.4543 91.7049Z" fill="#1C1410"/>
<path d="M112.981 88.411L113.038 88.3616C113.62 87.8506 114.138 87.1941 114.709 86.6581C116.229 85.2226 118.279 84.4859 120.364 84.6263C122.976 84.7876 126.666 86.7097 125.863 89.787C125.541 91.0211 122.617 93.8583 121.658 94.8874L115.362 101.638C114.279 102.797 112.949 104.151 111.93 105.337L111.606 105.657L107.311 110.276C106.369 111.29 105.316 112.479 104.333 113.441C102.868 113.441 101.282 113.409 99.827 113.444C99.5862 113.803 99.4894 113.966 99.0472 113.925C98.7949 113.762 98.7927 113.746 98.6501 113.472C98.1878 113.397 95.9042 113.435 95.2698 113.436L87.7739 113.444C89.0268 110.808 90.3873 108.193 91.6301 105.553L91.7685 105.279C92.6322 103.569 93.9618 101.015 94.685 99.2999C94.6821 98.9172 94.7251 97.5613 94.5975 97.266L94.9745 96.4741L95.014 96.391C95.2147 95.9674 95.3143 95.5955 95.7415 95.4436C96.3178 94.4739 96.8181 93.1804 97.3793 92.177C97.5384 91.8925 97.5148 91.9148 97.7491 91.8431L97.6581 91.8001C97.6323 91.5865 97.7527 91.4482 97.8667 91.2239C98.2817 90.2148 99.2113 88.4662 99.7217 87.4313L99.7661 87.4263L99.7568 87.2522L99.8665 87.164C100.191 87.1669 100.891 87.1518 101.172 87.2228L101.209 87.3812C101.664 87.4837 104.049 87.4399 104.697 87.4385L112.76 87.4277C112.773 87.7416 112.759 88.1028 112.873 88.3859L112.981 88.411Z" fill="#FE9701"/>
<path d="M104.353 105.372C104.828 105.9 110.711 105.232 111.605 105.657L107.31 110.276C106.369 111.29 105.316 112.479 104.333 113.442C102.868 113.442 101.282 113.41 99.8267 113.445C101.229 110.833 102.769 108.189 104.212 105.584L104.353 105.372Z" fill="#FE9701"/>
<path d="M112.729 88.5144L112.985 88.4263C112.974 88.7459 112.9 89.5371 113.063 89.7944L112.809 90.2208C112.258 91.3796 111.217 93.1046 110.567 94.2627L106.323 101.834C105.817 102.735 104.824 104.381 104.41 105.268L104.367 105.278C104.027 105.281 103.594 105.322 103.297 105.196C103.604 104.532 104.249 103.464 104.621 102.802L106.96 98.6214C107.546 97.5737 112.234 88.9451 112.729 88.5144Z" fill="#1C1410"/>
<path d="M112.729 88.5144L112.985 88.4263C112.973 88.7459 112.9 89.5371 113.062 89.7944L112.809 90.2208C112.75 89.7356 112.846 88.8971 112.729 88.5144Z" fill="#1C1410"/>
<path d="M103.086 105.549L103.297 105.196C103.594 105.322 104.027 105.281 104.367 105.279L104.353 105.372L104.212 105.584C102.769 108.188 101.229 110.833 99.8268 113.444C99.586 113.803 99.4892 113.966 99.047 113.925C98.7947 113.763 98.7925 113.746 98.6499 113.472L103.086 105.549Z" fill="#1C1410"/>
<path d="M103.085 105.549L103.297 105.196C103.594 105.322 104.027 105.281 104.366 105.279L104.353 105.372L104.211 105.584C103.931 105.536 103.394 105.55 103.085 105.549Z" fill="#1C1410"/>
<path d="M99.8657 87.1641C100.19 87.1669 100.891 87.1519 101.171 87.2228L101.208 87.3812L101.116 87.4393C100.339 88.6848 99.4951 90.1009 98.6845 91.3078C98.5719 91.4927 98.4558 91.6941 98.3325 91.8696L97.7484 91.8431L97.6573 91.8001C97.6315 91.5866 97.752 91.4482 97.8659 91.2239C98.2809 90.2149 99.2106 88.4662 99.7209 87.4314L99.7653 87.4264L99.756 87.2522L99.8657 87.1641Z" fill="#1C1410"/>
<path d="M97.8659 91.2237C98.2236 91.2847 98.3347 91.1005 98.6845 91.3076C98.5719 91.4925 98.4558 91.6939 98.3325 91.8695L97.7484 91.8429L97.6573 91.7999C97.6315 91.5864 97.752 91.4481 97.8659 91.2237Z" fill="#1C1410"/>
<path d="M99.866 87.1641C100.191 87.1669 100.891 87.1519 101.171 87.2228L101.209 87.3812L101.116 87.4393C100.692 87.4221 100.196 87.4299 99.7657 87.4264L99.7563 87.2522L99.866 87.1641Z" fill="#1C1410"/>
<path d="M95.7406 95.4438L96.1356 95.5399C96.2596 95.7907 96.309 95.9333 96.2015 96.2049C95.856 97.075 95.3579 97.9966 94.9328 98.8322L94.6841 99.3002C94.6813 98.9175 94.7243 97.5616 94.5967 97.2663L94.9737 96.4744L95.0131 96.3913C95.2138 95.9677 95.3134 95.5958 95.7406 95.4438Z" fill="#1C1410"/>
<path d="M94.9737 96.4741C94.9522 96.9679 94.864 98.4019 94.9328 98.8319L94.6841 99.2999C94.6813 98.9172 94.7243 97.5613 94.5967 97.266L94.9737 96.4741Z" fill="#1C1410"/>
<path d="M97.7489 91.8428L98.333 91.8693C97.9904 92.4548 96.2537 95.1616 96.1361 95.5393L95.7412 95.4433C96.3175 94.4736 96.8178 93.1801 97.379 92.1767C97.5381 91.8922 97.5145 91.9144 97.7489 91.8428Z" fill="white"/>
<path d="M112.984 88.4263C113.23 88.5825 113.296 88.5968 113.415 88.8469C113.46 89.2325 113.272 89.4568 113.062 89.7944C112.899 89.5371 112.973 88.7459 112.984 88.4263Z" fill="#1C1410"/>
<path d="M112.975 79.9199C114.053 80.4051 114.9 80.8516 115.359 82.0126C116.092 83.8673 114.612 85.6675 113.67 87.1739L113.313 87.2219C113.212 87.1918 113.107 87.156 113.007 87.123C112.84 86.5476 112.963 80.8903 112.975 79.9199Z" fill="#FE9701"/>
<path d="M17.6798 21.3616C23.2416 16.9208 30.3965 22.6651 27.354 28.9656C26.8558 29.9973 25.1107 31.598 24.2486 32.4598L20.8366 35.8587C19.9031 36.7922 18.6343 38.1444 17.6694 38.9883L11.7442 33.0731C10.0694 31.4 7.71724 29.5429 7.38401 27.099C6.85378 23.2103 9.16087 20.3614 12.9969 19.8024C14.9692 19.7151 16.1664 20.1451 17.6798 21.3616Z" fill="#1C1410"/>
<path d="M13.2469 20.8109C15.2745 20.7416 16.2733 21.4097 17.6723 22.7661C19 21.5447 19.9309 20.8248 21.8133 20.8026C24.7623 20.7679 27.078 23.1707 27.0563 26.0902C27.0579 26.914 26.8527 27.725 26.4596 28.449C25.7944 29.6468 22.1719 33.0782 21.0125 34.2352C19.8901 35.3237 18.8015 36.4676 17.6764 37.563C15.8651 35.7058 13.993 33.9147 12.1714 32.0556C11.1204 30.8592 9.28919 29.5469 8.7094 28.0561C7.3502 24.5611 9.59812 21.128 13.2469 20.8109Z" fill="white"/>
<path d="M125.242 61.355C127.212 61.8837 129.718 62.7755 131.698 63.4162L145.505 67.9561C143.302 69.188 140.86 70.3269 138.605 71.5163C140.029 73.1158 142.428 75.354 144.002 76.9457L142.564 78.379C142.002 78.9595 141.377 79.5529 140.798 80.1219C139.655 78.8899 138.381 77.7225 137.207 76.5157C136.627 75.9201 136.004 75.3031 135.39 74.7477C134.179 76.7443 133.034 79.4532 131.807 81.5688C131.409 80.6243 130.879 78.8548 130.546 77.835L128.222 70.6514L126.339 64.8474C126.024 63.889 125.455 62.3023 125.242 61.355Z" fill="#1C1410"/>
<path d="M26.9244 35.0181C29.3916 36.6078 31.4727 39.0071 32.7865 41.6223C33.5754 41.4177 34.4842 41.3387 35.2773 41.5508C38.8797 42.5144 40.392 45.0046 39.3618 48.5425C39.0376 48.4097 38.78 48.2722 38.4718 48.1109C39.153 45.3014 38.1233 43.5026 35.2697 42.6073C34.5434 42.3794 33.9275 42.4455 33.1845 42.5633C33.3043 42.8946 33.4183 43.2281 33.5266 43.5634C34.1842 45.9929 34.6946 50.2368 32.3066 51.6638C29.1188 53.5688 27.785 48.7413 28.6328 46.4677C29.4422 44.2973 29.9225 43.1636 31.8797 42.0381C30.5003 39.4166 28.841 37.5343 26.4014 35.8579C26.5887 35.5852 26.7538 35.3016 26.9244 35.0181Z" fill="#1C1410"/>
<path d="M32.2392 43.0093C32.2538 43.0283 32.2684 43.0475 32.2829 43.0665C32.9997 45.014 33.447 47.4022 32.7512 49.41C32.4418 50.3025 31.6695 51.4225 30.5837 51.0232C28.1432 48.88 29.8045 44.5711 32.2392 43.0093Z" fill="white"/>
<path d="M29.8618 62.2207C29.9371 62.3553 30.162 62.9694 30.2301 63.1461C29.1657 63.6226 27.9257 64.0788 26.8306 64.5088C26.7193 64.3348 26.522 63.8102 26.4312 63.5869C27.571 63.1224 28.7146 62.667 29.8618 62.2207Z" fill="#1C1410"/>
<path d="M19.2728 66.3711C19.3905 66.4954 19.6286 67.1139 19.7114 67.3112C18.5659 67.7379 17.4257 68.1788 16.291 68.6337C16.1565 68.4709 15.9751 67.895 15.8926 67.6657C16.9064 67.3226 18.2918 66.7857 19.2728 66.3711Z" fill="#1C1410"/>
<path d="M26.3287 67.4038C27.068 67.8893 28.4368 69.0747 29.2184 69.6896L28.568 70.4788C27.6788 69.6983 26.6443 68.9959 25.7383 68.1764C25.9702 67.9232 26.1314 67.6823 26.3287 67.4038Z" fill="#1C1410"/>
<path d="M17.4969 60.3462C18.4459 61.1187 19.4052 61.8785 20.3746 62.6252L19.7457 63.4403C18.8522 62.6829 17.7978 61.8893 16.875 61.1456L17.4969 60.3462Z" fill="#1C1410"/>
<path d="M21.9593 69.1543L22.9487 69.3166C22.778 70.5297 22.614 71.7434 22.4566 72.9589L21.4648 72.7991C21.5747 71.6608 21.7997 70.3033 21.9593 69.1543Z" fill="#1C1410"/>
<path d="M23.6839 57.9619L24.6807 58.0759C24.4656 59.2442 24.2992 60.5364 24.1232 61.7191L23.1196 61.5983L23.6839 57.9619Z" fill="#1C1410"/>
</g>
<defs>
<clipPath id="clip0_250_363">
<rect width="146.793" height="127.708" fill="white"/>
</clipPath>
</defs>
</svg>
