<svg width="112" height="127" viewBox="0 0 112 127" fill="none" xmlns="http://www.w3.org/2000/svg">
<g clip-path="url(#clip0_250_533)">
<path d="M41.9837 21.073C42.2647 20.7921 43.7779 18.5916 44.1494 18.072L49.775 10.1933C50.2949 9.47126 51.3421 7.4828 52.3219 7.78611C53.7644 8.23267 54.1338 10.9078 53.6858 12.16C53.4762 12.7459 53.1066 13.5321 53.0034 14.0961C53.1703 14.2273 53.2065 14.2398 53.2813 14.4427C53.2584 15.0846 48.3794 24.6014 47.8476 25.9231C48.5308 25.5261 49.1676 25.0778 49.8923 24.6779C51.2567 23.9251 52.5446 23.4755 54.0354 23.0585C54.369 23.0163 54.9408 22.8715 55.2859 22.7949C56.0711 22.7097 56.8033 22.6305 57.5912 22.5883L58.5976 22.5785C60.3513 22.6856 61.5846 22.8182 63.2804 23.3501C63.8061 23.5151 64.8833 23.9548 65.3093 24.0667C65.4989 24.1792 65.6356 24.2648 65.8362 24.3528C69.6404 26.2358 72.062 28.8743 73.9635 32.6301C74.0385 32.8163 74.1666 33.1694 74.2669 33.3241C74.3759 33.631 74.5476 34.1593 74.6763 34.4389C76.1179 39.3777 75.8249 43.2099 73.6901 47.8748L72.6942 49.5619C70.1827 53.0521 67.5789 55.1588 63.4349 56.571C63.2558 57.1373 63.1376 57.9119 63.0071 58.515C62.6981 59.9494 62.3792 61.3815 62.0487 62.811L61.4844 62.6971C61.48 63.0978 61.4403 64.3044 61.5397 64.5931L61.6049 64.6516C61.5901 64.9631 61.5143 65.2137 61.4397 65.5147C61.3854 65.7486 61.3302 66.0176 61.2653 66.246C61.2647 66.9558 61.2949 67.343 61.3933 68.0485L61.3297 68.2006C61.1689 68.264 61.0482 68.2092 60.8745 68.1673C60.6554 69.1554 60.4313 70.1422 60.2021 71.1278C59.9257 72.3159 59.7444 72.8859 59.782 74.1165C59.8952 77.8224 59.6062 81.5419 59.1906 85.2226C58.7618 85.2552 58.5776 85.2509 58.147 85.2201L58.1143 85.4615C57.7184 88.5819 57.1313 91.6753 56.3562 94.7244C55.3496 98.5843 54.0487 102.077 52.6967 105.808L48.6853 116.934L46.4741 123.045C46.2258 123.733 45.601 125.319 45.4575 125.953L13.1479 125.964C14.1675 124.36 15.3529 122.101 16.3039 120.42L22.6066 109.242L28.6516 98.5227C29.5821 96.8741 30.9114 94.6875 31.7292 93.042C31.3026 91.1582 30.5741 88.7451 30.0532 86.8293L27.4979 77.3909C26.7124 74.4686 25.9457 71.6719 25.3934 68.6857C24.6819 64.7039 24.3181 60.6677 24.3064 56.6229C24.2979 53.7794 24.4795 50.9385 24.8501 48.1193C25.3526 44.0433 26.3575 39.5676 27.1336 35.5012L28.0922 30.5186C28.4717 28.4792 29.2265 21.9349 32.4104 25.7745C32.6921 25.6724 32.6889 25.6643 32.9834 25.7229C34.048 27.414 34.6466 33.0133 34.8165 35.101C35.5303 33.5596 41.0847 21.3277 41.3897 21.0949C41.5616 20.9638 41.7127 21.0078 41.9056 21.0421L41.9837 21.073Z" fill="#FE9701"/>
<path d="M58.5968 22.5781C60.3505 22.6852 61.5837 22.8178 63.2796 23.3498C63.8053 23.5148 64.8825 23.9544 65.3085 24.0663C65.4981 24.1789 65.6347 24.2644 65.8354 24.3524C69.6396 26.2355 72.0612 28.8739 73.9626 32.6297C74.0377 32.8159 74.1658 33.169 74.2661 33.3238C74.3751 33.6307 74.5468 34.159 74.6755 34.4386C76.1171 39.3773 75.8241 43.2095 73.6893 47.8745L72.6933 49.5615C70.1819 53.0517 67.5781 55.1585 63.4341 56.5706C63.255 57.1369 63.1368 57.9116 63.0063 58.5146C62.6973 59.949 62.3784 61.3812 62.0479 62.8106L61.4836 62.6967C61.4792 63.0975 61.4395 64.3041 61.5389 64.5928L61.6041 64.6513C61.5893 64.9627 61.5134 65.2133 61.4389 65.5143C61.3846 65.7483 61.3294 66.0173 61.2645 66.2457C61.2639 66.9555 61.2941 67.3427 61.3925 68.0482L61.3288 68.2002C61.1681 68.2636 61.0474 68.2088 60.8737 68.167C60.6546 69.155 60.4305 70.1418 60.2013 71.1274C59.9249 72.3155 59.7436 72.8856 59.7812 74.1161C59.8944 77.8221 59.6054 81.5415 59.1898 85.2222C58.761 85.2549 58.5767 85.2506 58.1462 85.2198C58.6464 81.7115 58.8265 77.5555 58.7786 74.0226C57.3469 74.9097 56.5988 74.7933 54.9862 74.403C54.4095 74.2633 53.7448 74.1358 53.158 74.0084L46.5007 72.5617C45.3093 72.297 44.2653 72.0847 43.5791 70.9513C42.7409 69.5662 43.1375 68.2993 43.4493 66.8619C43.6224 66.0622 43.7997 65.2638 43.981 64.4666L43.0045 64.2203C43.146 63.6103 43.2806 62.9977 43.4083 62.384L44.4117 62.6019L44.7296 60.9853C44.4779 60.9043 44.1816 60.8384 43.9221 60.7739C44.0816 60.1503 44.1971 59.5477 44.3215 58.917L45.0441 59.0808C45.5672 56.99 45.9233 54.8781 46.4491 52.7798C40.1318 46.7719 38.8521 37.5754 43.7785 30.1706C44.3904 29.2507 45.1477 28.4405 45.8847 27.6197C46.252 27.2569 46.7533 26.8419 47.1489 26.496C47.4415 26.2843 47.5933 26.1814 47.8467 25.9227C48.53 25.5257 49.1667 25.0775 49.8914 24.6776C51.2559 23.9247 52.5438 23.4752 54.0346 23.0582C54.3682 23.0159 54.94 22.8712 55.2851 22.7945C56.0702 22.7093 56.8025 22.6301 57.5904 22.5879L58.5968 22.5781Z" fill="#FDCC43"/>
<path d="M53.8846 44.0238C53.4906 43.7807 53.0323 43.5144 52.6653 43.2369C51.1215 42.0695 49.6606 40.4904 49.159 38.5732C48.8259 37.3001 49.3571 36.0249 50.7266 35.718C51.4739 35.5535 52.2559 35.692 52.901 36.1034C55.0088 37.4426 55.0829 41.1839 54.9552 43.4052C57.4743 44.2709 58.3325 44.2067 60.9578 43.9007C61.7546 41.4762 63.4062 38.9347 65.7231 37.7107C66.4236 37.3404 67.4602 37.0566 68.2346 37.3359C68.6643 37.4861 69.009 37.8136 69.1807 38.2351C69.5027 39.0269 69.2694 40.2946 68.908 41.0667C68.1515 42.6855 66.764 43.4343 65.195 44.0701C63.8635 44.6098 62.8663 44.5755 61.6537 44.8904C60.1751 49.08 59.1271 53.6861 58.0325 57.9953C57.7204 59.2239 57.4932 60.5267 57.1591 61.7439C58.3822 62.0031 60.1508 62.4562 61.3233 62.6347L61.484 62.6969C61.4795 63.0976 61.4398 64.3042 61.5392 64.5929L61.6044 64.6514C61.5897 64.9629 61.5138 65.2134 61.4393 65.5145C61.385 65.7484 61.3298 66.0174 61.2649 66.2458C61.2643 66.9556 61.2945 67.3428 61.3929 68.0483L61.3292 68.2003C61.1684 68.2638 61.0478 68.209 60.8741 68.1671C60.655 69.1551 60.4309 70.142 60.2016 71.1275C59.9253 72.3157 59.744 72.8857 59.7816 74.1163C59.8948 77.8222 59.6058 81.5417 59.1902 85.2224C58.7614 85.255 58.5771 85.2507 58.1465 85.2199C58.6468 81.7116 58.8269 77.5557 58.779 74.0227C57.3472 74.9098 56.5992 74.7935 54.9866 74.4032C54.4098 74.2634 53.7452 74.136 53.1583 74.0086L46.5011 72.5619C45.3097 72.2972 44.2657 72.0848 43.5795 70.9515C42.7413 69.5664 43.1379 68.2995 43.4497 66.862C43.6228 66.0624 43.8001 65.2639 43.9814 64.4667L43.0049 64.2205C43.1464 63.6104 43.281 62.9979 43.4086 62.3841L44.412 62.6021L44.7299 60.9855C44.4783 60.9045 44.182 60.8385 43.9224 60.7741C44.082 60.1505 44.1975 59.5478 44.3219 58.9171L45.0445 59.0809C46.8518 59.5197 48.6849 59.8511 50.4815 60.2871C50.9484 58.5334 51.3824 56.771 51.7831 55.001C52.6774 51.2007 53.3854 47.8807 53.8846 44.0238Z" fill="#1C1410"/>
<path d="M61.3231 62.6343L61.4837 62.6965C61.4793 63.0972 61.4396 64.3038 61.539 64.5925L61.6042 64.651C61.5894 64.9625 61.5136 65.213 61.439 65.5141C61.2108 64.9853 61.2735 63.2523 61.3231 62.6343Z" fill="#1C1410"/>
<path d="M54.8751 44.4863C57.6209 45.3447 57.8667 45.0601 60.5117 45.0523C60.0922 46.4571 59.6389 47.8416 59.2356 49.2589C58.1944 53.0105 57.2496 56.7881 56.4021 60.5882L56.1916 61.5383C54.7538 61.1732 52.921 60.8029 51.4766 60.5199C52.4597 56.7316 53.3398 52.9175 54.1159 49.0815C54.4088 47.563 54.5895 45.9116 54.8751 44.4863Z" fill="#FDCC43"/>
<path d="M67.1951 38.2364C67.6907 38.1882 68.3025 38.2928 68.3321 38.8836C68.4835 41.8781 65.4119 43.1183 63.1091 43.5712C62.7828 43.6524 62.4387 43.7076 62.1069 43.7668C62.9355 41.2835 64.6775 39.1153 67.1951 38.2364Z" fill="#FDCC43"/>
<path d="M51.062 36.7039C53.5227 36.5695 53.8845 39.6959 53.9663 41.4926C53.9823 41.8428 54.0488 42.4521 53.8827 42.7504C53.7024 42.7369 53.5283 42.5875 53.3708 42.4793C52.0565 41.4999 50.8809 40.3063 50.2705 38.7617C49.8569 37.7152 49.944 37.0564 51.062 36.7039Z" fill="#FDCC43"/>
<path d="M34.816 35.1004C35.5298 33.559 41.0842 21.3272 41.3892 21.0943C41.5611 20.9632 41.7122 21.0072 41.905 21.0415L41.9832 21.0724C42.106 21.2086 42.226 21.4282 42.1703 21.5883C41.8908 22.3914 41.32 23.5111 40.966 24.2653L36.8245 33.2088C36.5471 33.8099 35.0156 36.9688 35.0283 37.2271C35.2697 42.1461 35.2201 47.0258 35.1455 51.9526C38.4928 57.1077 40.6154 62.9606 41.3508 69.0631C41.4057 69.4989 41.4712 69.9551 41.5131 70.402C41.5597 70.8982 41.8961 72.5554 40.9599 72.3381C40.8356 72.3092 40.7488 72.2027 40.6992 72.0912C40.4207 70.7658 40.3722 69.044 40.1523 67.7395C39.8111 65.6736 39.3124 63.6366 38.6606 61.6463C37.7421 58.8168 36.5003 56.1024 34.9599 53.5573C34.7801 53.2556 34.1701 52.3006 34.1576 52.0341C34.1247 51.326 34.184 50.4433 34.2045 49.7191C34.2298 48.5093 34.2403 47.2993 34.2363 46.0893C34.2153 42.2261 34.0553 38.365 33.7567 34.5133C33.6172 32.6857 33.3534 30.8696 32.9673 29.0778C32.8456 28.5155 32.2062 26.4282 32.2065 26.0702C32.2893 25.9072 32.2837 25.9021 32.4099 25.774C32.6915 25.6719 32.6883 25.6638 32.9828 25.7224C34.0474 27.4135 34.6461 33.0127 34.816 35.1004Z" fill="#1C1410"/>
<path d="M46.6646 26.0399C47.8296 23.4712 49.1919 20.8667 50.3873 18.3044C50.6448 17.7525 52.2277 14.3972 52.4727 14.1301C52.6891 14.026 52.752 14.0588 53.0037 14.0959C53.1706 14.2271 53.2068 14.2396 53.2817 14.4425C53.2588 15.0844 48.3797 24.6012 47.8479 25.9229C47.5945 26.1815 47.4427 26.2845 47.1501 26.4962C46.7723 26.3047 46.858 26.3744 46.6646 26.0399Z" fill="#1C1410"/>
<path d="M46.6635 26.0405C46.857 26.375 46.7712 26.3054 47.1491 26.4968C46.7534 26.8427 46.2521 27.2577 45.8848 27.6205C46.1415 27.0925 46.4011 26.5658 46.6635 26.0405Z" fill="#010104"/>
<path d="M75.5186 29.6046C76.128 28.9198 77.1148 27.818 78.0135 28.7298C79.2151 29.9488 79.4576 32.4614 79.7697 34.0627C80.1624 36.0043 80.5379 37.9492 80.8974 39.8973C82.0639 46.1215 83.5006 52.1013 83.5831 58.4713C83.6422 63.0427 83.4396 67.5015 82.6179 72.0132C81.8915 76.1667 80.661 80.2888 79.561 84.3641L76.1527 96.8787C77.782 100.146 79.4564 104.032 80.9873 107.383L89.493 125.967L111.108 125.973V126.075H0V125.979L8.65464 125.974C10.0966 125.974 11.7176 126.01 13.1476 125.964L45.4571 125.953C45.6007 125.32 46.2255 123.733 46.4738 123.045L48.6849 116.934L52.6964 105.809C54.0484 102.077 55.3492 98.5845 56.3559 94.7247C57.131 91.6756 57.7181 88.5822 58.1139 85.4617L58.1466 85.2204C58.5772 85.2512 58.7615 85.2555 59.1903 85.2228C59.6059 81.5422 59.8949 77.8227 59.7817 74.1167C59.7441 72.8862 59.9254 72.3161 60.2017 71.128C60.431 70.1424 60.6551 69.1556 60.8742 68.1676C61.0479 68.2094 61.1685 68.2642 61.3293 68.2008L61.393 68.0488C61.2946 67.3433 61.2644 66.9561 61.265 66.2463C61.3299 66.0179 61.3851 65.7489 61.4394 65.5149C61.5139 65.2139 61.5898 64.9633 61.6045 64.6519L61.5393 64.5934C61.4399 64.3047 61.4796 63.0981 61.4841 62.6973L62.0483 62.8112C62.3789 61.3818 62.6978 59.9496 63.0068 58.5152C63.1373 57.9122 63.2555 57.1375 63.4346 56.5712C67.5785 55.1591 70.1823 53.0523 72.6938 49.5621L73.6898 47.8751C75.8246 43.2101 76.1176 39.3779 74.6759 34.4392C74.5473 34.1596 74.3755 33.6313 74.2666 33.3244C74.1662 33.1696 74.0382 32.8165 73.9631 32.6303C74.0985 31.9529 74.5294 29.9872 75.0305 29.5613L75.5186 29.6046Z" fill="#FE9701"/>
<path d="M53.5183 106.541C53.8239 106.931 54.6915 109.325 54.968 110.011L59.2982 120.856L60.6605 124.288C60.8129 124.67 61.1703 125.632 61.3558 125.966C56.4943 126.045 51.3644 125.989 46.4878 125.966C46.8461 125.09 47.21 123.974 47.5377 123.068L49.4887 117.693C50.811 114.026 52.262 110.214 53.5183 106.541Z" fill="white"/>
<path d="M58.1466 85.2202C58.5772 85.251 58.7615 85.2553 59.1903 85.2227L59.1316 85.6124C58.9722 86.5788 58.8856 87.5478 58.7249 88.5106C57.675 94.8021 55.7646 100.573 53.5186 106.541C52.2624 110.214 50.8113 114.026 49.489 117.693L47.538 123.068C47.2104 123.974 46.8464 125.091 46.4881 125.966C51.3647 125.99 56.4947 126.046 61.3561 125.967L89.493 125.966L111.108 125.973V126.075H0V125.979L8.65464 125.974C10.0966 125.974 11.7176 126.009 13.1476 125.964L45.4571 125.953C45.6007 125.319 46.2255 123.733 46.4738 123.045L48.6849 116.934L52.6964 105.808C54.0484 102.077 55.3492 98.5843 56.3559 94.7245C57.131 91.6754 57.7181 88.582 58.1139 85.4615L58.1466 85.2202Z" fill="#1C1410"/>
<path d="M58.1465 85.2202C58.577 85.251 58.7613 85.2553 59.1901 85.2227L59.1315 85.6124C59.1112 85.5717 59.058 85.5059 59.0289 85.4665C58.7128 85.3772 58.4443 85.4308 58.1138 85.4615L58.1465 85.2202Z" fill="#1C1410"/>
<path d="M72.7487 54.3765C73.0528 54.3483 73.355 54.2763 73.6068 54.4149C73.7164 54.575 73.7114 54.6341 73.7397 54.8233C73.7576 55.1884 73.8296 55.8541 73.693 56.1498C73.4455 56.6854 73.0829 57.2619 72.7801 57.7729C72.3787 58.4416 72.0008 59.1247 71.6487 59.8208C69.9337 63.1584 68.9532 66.0585 68.1474 69.7004L68.0932 69.8875C67.8101 69.8672 67.3699 69.8814 67.0732 69.8826L67.1102 69.6308C68.3456 64.2659 69.7909 60.5687 72.7684 55.8468L72.7487 54.3765Z" fill="#1C1410"/>
<path d="M67.0732 69.8826L67.1102 69.6309C67.3896 69.7281 67.8464 69.7183 68.1474 69.7004L68.0932 69.8876C67.8101 69.8673 67.3699 69.8814 67.0732 69.8826Z" fill="#1C1410"/>
<path d="M67.0727 69.8834C67.3694 69.8822 67.8095 69.868 68.0927 69.8883C67.9265 70.8394 67.7351 71.7967 67.62 72.7552C67.5098 73.6743 67.4734 74.602 67.3442 75.5186C67.3239 75.6639 67.2999 75.9415 67.1989 76.0486C67.0924 76.1619 66.9348 76.2192 66.7816 76.2247C66.6424 76.229 66.5033 76.1933 66.4104 76.0807C66.0066 75.5931 66.9373 70.7311 67.0727 69.8834Z" fill="#1C1410"/>
<path d="M73.6895 47.8745L73.7024 50.6627C73.703 50.9941 73.7246 51.6945 73.6913 51.9867C73.7443 52.7359 73.7603 54.0579 73.7393 54.8234C73.711 54.6342 73.7159 54.575 73.6064 54.4149C73.3546 54.2764 73.0524 54.3483 72.7483 54.3766L72.7378 54.1433C72.6953 52.6165 72.6806 51.0889 72.6935 49.5616L73.6895 47.8745Z" fill="#1C1410"/>
<path d="M73.6918 51.9868C73.7447 52.736 73.7607 54.0579 73.7398 54.8235C73.7115 54.6343 73.7164 54.5751 73.6068 54.415C73.3551 54.2764 73.0528 54.3484 72.7487 54.3766L72.7383 54.1434C73.0362 54.1609 73.3643 54.149 73.6653 54.1455C73.6536 53.5108 73.629 52.5962 73.6918 51.9868Z" fill="#1C1410"/>
<path d="M75.0303 29.561L75.5184 29.6043C75.9518 30.1944 75.33 31.2065 75.2125 31.8944C75.1614 32.1947 74.9859 32.8847 74.885 33.1685C74.696 33.2194 74.4479 33.3038 74.2664 33.3241C74.166 33.1693 74.038 32.8162 73.9629 32.63C74.0983 31.9526 74.5292 29.9869 75.0303 29.561Z" fill="#1C1410"/>
<path d="M61.4837 62.6968L62.048 62.8107L62.7054 62.9498C62.5275 63.5913 62.4032 64.1385 62.2665 64.7911C62.0548 64.7412 61.8171 64.6784 61.6042 64.6513L61.539 64.5928C61.4396 64.3041 61.4793 63.0975 61.4837 62.6968Z" fill="#1C1410"/>
<path d="M61.3931 68.0486C61.2948 67.3431 61.2645 66.9559 61.2651 66.2461C61.4339 66.339 61.5172 66.3544 61.7075 66.3908C61.7586 66.5939 61.4477 67.7463 61.3931 68.0486Z" fill="#1C1410"/>
<path d="M74.2661 33.3241C74.4477 33.3038 74.6958 33.2194 74.8848 33.1685L74.6755 34.4389C74.5468 34.1593 74.3751 33.631 74.2661 33.3241Z" fill="#010104"/>
<path d="M32.9829 25.7228C33.5319 25.0912 35.0282 22.756 35.5638 21.9585L40.7037 14.3201C41.2846 13.4542 42.2157 11.9124 42.9594 11.2021C43.2966 10.9638 43.8994 10.8136 44.2827 10.9422C46.3817 11.6463 45.3286 13.3848 44.7361 14.6823L42.886 18.7302C42.5942 19.3682 42.0695 20.3938 41.9051 21.0419C41.7123 21.0077 41.5612 20.9636 41.3893 21.0948C41.0843 21.3276 35.5299 33.5594 34.8161 35.1008C34.6462 33.0131 34.0475 27.4139 32.9829 25.7228Z" fill="#FE9701"/>
<path d="M53.0035 14.0962C53.6526 13.9899 55.7463 10.2245 56.8525 10.1817C58.8861 10.1031 58.5111 11.5828 58.79 12.8846C58.9539 12.9599 59.1701 13.039 59.22 13.2088C59.4256 13.9073 59.3682 14.942 59.3925 15.6784C59.3446 17.8933 59.1512 20.4313 58.5977 22.5786L57.5913 22.5884C56.8034 22.6306 56.0712 22.7098 55.286 22.795C54.9409 22.8716 54.3691 23.0164 54.0355 23.0586C52.5447 23.4757 51.2568 23.9252 49.8924 24.6781C49.1677 25.0779 48.5309 25.5262 47.8477 25.9232C48.3795 24.6015 53.2585 15.0847 53.2814 14.4428C53.2066 14.2399 53.1704 14.2274 53.0035 14.0962Z" fill="#FE9701"/>
<path d="M58.7896 12.8848C58.9535 12.9601 59.1697 13.0392 59.2197 13.2089C59.4253 13.9075 59.3679 14.9422 59.3922 15.6786C59.3443 17.8935 59.1509 20.4315 58.5974 22.5788L57.5909 22.5886C56.8031 22.6308 56.0708 22.71 55.2857 22.7952C54.9405 22.8718 54.3687 23.0166 54.0352 23.0588C55.5047 19.8633 56.8113 16.5664 58.2668 13.3622C58.397 13.0756 58.4951 12.9777 58.7896 12.8848Z" fill="#1C1410"/>
<path d="M55.2861 22.7948C55.8859 21.3068 56.5981 19.7838 57.2237 18.2969C57.4456 17.7695 58.1 16.1897 58.3637 15.7866C58.3636 17.3908 58.2304 18.9922 57.9654 20.5745C57.854 21.256 57.6943 21.8984 57.5914 22.5882C56.8035 22.6304 56.0713 22.7096 55.2861 22.7948Z" fill="#FE9701"/>
<path d="M65.8355 24.353C64.8199 22.3293 63.9784 20.1565 63.0015 18.109C62.7922 17.6707 62.5879 17.2034 62.4358 16.7438C61.9187 15.1171 64.2456 14.0014 65.26 15.3321C66.0233 16.3333 66.7035 17.405 67.4058 18.449L72.4953 25.9964C72.8277 26.4875 74.7174 29.4449 75.0301 29.5613C74.5291 29.9872 74.0982 31.9528 73.9628 32.6303C72.0613 28.8745 69.6397 26.2361 65.8355 24.353Z" fill="#FE9701"/>
<path d="M59.3915 15.6787C60.1041 16.6086 60.8707 17.7591 61.5507 18.7281L65.3084 24.0672C64.8824 23.9552 63.8052 23.5156 63.2795 23.3506C61.5836 22.8187 60.3504 22.6861 58.5967 22.5789C59.1502 20.4317 59.3436 17.8936 59.3915 15.6787Z" fill="#FE9701"/>
<path d="M111.108 60.189V60.8976C110.78 60.8214 110.584 60.8347 110.456 60.4933L110.523 60.3657C110.713 60.2238 110.871 60.2249 111.108 60.189Z" fill="white"/>
<path d="M15.6145 80.9448C15.8451 80.951 16.0135 80.9627 16.1817 81.1178C16.4557 81.6478 15.8882 86.9974 15.8111 87.8728C16.3908 87.3736 18.7504 85.1383 19.349 85.0891C19.5296 85.0743 19.5962 85.118 19.734 85.2257C19.768 85.3051 19.7982 85.3753 19.7909 85.464C19.7337 86.1491 17.0911 88.1172 16.4843 88.6282C17.7161 88.6528 18.972 88.8172 20.2017 88.9181C21.0249 88.9858 21.8924 88.9858 22.7053 89.1145C22.8589 89.1385 23.0156 89.1613 23.1313 89.2739C23.2432 89.3823 23.2968 89.5048 23.2834 89.6624C23.2709 89.8101 23.1953 89.9369 23.0772 90.025C22.7227 90.2891 17.1244 89.7005 16.3524 89.6033C16.8032 90.1469 19.1398 92.637 19.2032 93.0796C19.2231 93.2187 19.1719 93.4059 19.0785 93.513C18.998 93.6059 18.9482 93.6349 18.8236 93.6379C18.2361 93.6546 16.1461 90.9281 15.6521 90.3598C15.3186 92.4203 15.4357 94.658 15.1251 96.7252C15.1066 96.8489 14.9777 96.9985 14.8946 97.0884C14.6461 97.1684 14.5254 97.1229 14.3097 97.0201C13.9819 96.607 14.2509 94.9541 14.2995 94.3631C14.4085 92.9897 14.5094 91.6157 14.6022 90.2417C13.988 90.7428 13.4006 91.2925 12.7884 91.7917C12.3386 92.158 11.4069 93.1695 10.794 92.9491C10.3783 92.4591 11.0094 91.9315 11.3762 91.6231C12.2333 90.9028 13.0921 90.1893 13.9344 89.4512C13.0234 89.3786 7.77404 89.0763 7.32905 88.8282C7.23136 88.7168 7.15189 88.5857 7.15805 88.4312C7.16433 88.273 7.22601 88.1523 7.35263 88.0563C7.67426 87.8131 13.169 88.3493 14.017 88.4225C13.4564 87.8254 12.9059 87.155 12.3675 86.5345C11.9999 86.111 11.115 85.2676 11.3244 84.6797C11.435 84.572 11.5136 84.4907 11.6806 84.4858C12.1662 84.4704 14.4001 87.3237 14.8303 87.8168C14.8313 87.7515 14.8331 87.6869 14.8355 87.6216C14.8828 86.3141 15.0574 84.9179 15.1469 83.6048C15.1966 82.876 15.2442 82.0732 15.3449 81.3499C15.3687 81.1788 15.4902 81.0593 15.6145 80.9448Z" fill="#1C1410"/>
<path d="M26.7864 10.6358C27.5653 10.6283 27.698 11.4778 27.9946 12.0791C28.243 12.5828 28.3989 13.104 28.6782 13.6044C29.1151 14.387 31.6653 15.2128 31.6016 16.117C31.2388 16.6515 29.1615 17.3939 28.4437 17.72C27.9922 18.3671 26.9677 20.1296 26.4874 20.5946C26.4059 20.6041 26.1779 20.6305 26.1284 20.5949C25.3649 20.0453 25.1586 18.3344 24.6146 17.6174C23.9598 16.7541 21.9689 16.1446 21.668 15.26C21.6824 15.1269 21.6869 14.9878 21.8237 14.8956C22.5029 14.4379 23.9058 13.9652 24.5648 13.5767C25.3754 13.099 26.0072 11.3575 26.7864 10.6358Z" fill="#1C1410"/>
<path d="M26.8864 12.2295C27.2175 12.5647 27.6115 14.0406 27.9776 14.4058C28.4793 14.9062 29.4531 15.4857 30.0738 15.9065C27.4725 16.9783 27.9425 16.6244 26.4005 18.9838C26.0716 18.7036 25.6789 17.0857 25.2984 16.7496C24.7624 16.2761 23.8523 15.7568 23.2266 15.3462C26.0338 13.9896 25.1227 14.7526 26.8864 12.2295Z" fill="white"/>
<path d="M90.1113 41.7524C92.0903 40.9187 91.6945 40.91 92.8641 39.0693C94.1063 41.6382 93.4797 41.0767 95.977 42.6544C95.2438 43.0313 94.4485 43.3409 93.6951 43.6901C93.2494 44.365 92.8062 45.0268 92.392 45.7217C91.9752 44.9981 91.7333 44.0116 91.1885 43.4068C90.9694 43.1633 90.3674 42.8929 90.1015 42.6488C89.7795 42.4592 89.5739 42.3477 89.2896 42.1037L90.1113 41.7524Z" fill="#1C1410"/>
<path d="M89.2896 42.1038L90.1113 41.7524C90.1883 42.0353 90.1679 42.3653 90.1015 42.6488C89.7795 42.4593 89.5739 42.3478 89.2896 42.1038Z" fill="#010104"/>
<path d="M105.397 60.9714C105.743 60.9089 106.075 61.1331 106.146 61.4767C106.217 61.8203 106.002 62.1582 105.66 62.2383C105.431 62.2924 105.191 62.2173 105.033 62.0431C104.875 61.8689 104.824 61.6227 104.899 61.4001C104.975 61.1773 105.166 61.0132 105.397 60.9714Z" fill="white"/>
<path d="M92.396 85.2412C92.4096 85.2892 92.4225 85.3373 92.4354 85.3847L92.4883 85.4314L92.4674 85.4832L92.4939 85.4875L92.4656 85.509L92.4619 85.4585C92.2538 85.3219 81.0599 85.3927 79.7143 85.3908C79.5659 85.3736 79.5801 85.3723 79.436 85.328C79.7918 85.1717 91.0079 85.2597 92.396 85.2412Z" fill="#EBECF0"/>
<path d="M107.186 63.4593L107.294 63.3799C107.363 63.4667 107.385 63.4957 107.476 63.564L107.581 63.5264L107.607 63.3639C107.798 63.2937 107.703 63.2987 107.901 63.3479L107.945 63.4366C107.814 63.7733 107.874 64.0583 107.906 64.4098C107.742 64.6197 107.186 64.4892 106.888 64.4972C106.736 64.4277 106.736 64.4172 106.61 64.3021C106.51 64.0608 106.499 63.7764 106.563 63.524L106.654 63.4889C106.988 63.6717 106.942 63.7025 107.186 63.4593Z" fill="white"/>
</g>
<defs>
<clipPath id="clip0_250_533">
<rect width="111.108" height="126.075" fill="white"/>
</clipPath>
</defs>
</svg>
