<svg width="160" height="128" viewBox="0 0 160 128" fill="none" xmlns="http://www.w3.org/2000/svg">
<path d="M97.8592 51.8052L111.678 51.8096C111.673 54.0588 111.742 56.9169 111.662 59.1328C111.73 59.5331 111.653 59.4717 111.895 59.672C112.245 59.6304 112.343 59.6247 112.693 59.6549L112.819 59.6486C113.897 58.8535 114.389 59.0219 115.467 59.6573L116.021 59.6427C116.114 58.952 116.476 58.994 116.947 59.3881C118.049 59.222 118.531 58.5462 118.983 60.2022C119.758 60.572 120.227 60.8445 120.847 61.4518L120.993 61.5389C121.187 61.7587 121.4 61.9907 121.582 62.2184L121.626 62.2278C122.032 62.8007 122.303 63.2469 122.657 63.8476C120.307 64.7981 119.307 66.5092 119.174 68.9721C119.292 69.7198 119.353 70.1698 119.655 70.8591L119.867 71.2422C120.568 72.4544 121.728 73.552 123.168 73.7595C123.115 75.591 122.969 75.5922 122.688 77.1853C122.231 75.4811 121.381 73.5022 120.204 72.1551C120.077 72.0104 119.258 71.3805 119.062 71.211L118.737 71.0971C118.114 71.175 117.587 71.0073 117.303 71.3406L117.299 71.7852L117.032 71.775C117.054 71.431 117.108 71.4622 116.964 71.2187C116.614 71.0581 116.009 71.1433 115.575 71.1529C114.91 72.3609 114.49 75.5769 114.473 77.0182C114.41 77.8343 114.315 80.7909 114.136 81.4068C113.328 81.3539 112.472 81.3788 111.66 81.3858C111.667 84.2405 111.756 87.6839 111.618 90.4733L111.572 90.8131C111.33 93.0761 110.002 95.2799 108.25 96.71C104.878 99.4636 101.683 98.6704 97.699 98.7918L97.5053 98.8081C95.3035 98.6922 92.1139 98.7809 89.8654 98.7848C89.1086 95.6283 87.3058 92.933 84.9165 90.7649C84.7921 90.6498 84.6482 90.5355 84.5183 90.4267C84.1753 90.5262 83.3166 90.485 82.9371 90.4484L82.8515 90.4414C82.5754 90.2346 81.394 89.4243 81.3124 89.2135C80.8084 87.911 80.6093 85.3588 80.3573 83.9427C79.7343 84.4489 78.7644 85.5259 78.178 86.1442C78.143 85.7841 78.1725 85.0858 78.1788 84.6993L77.898 84.9816C77.5288 85.3829 77.1626 85.732 76.77 86.1084C74.433 85.3961 72.0811 84.9653 69.6271 85.0088L69.6211 66.9531C69.9179 66.7976 70.0206 66.7691 70.1732 66.4782C75.5594 67.7784 81.2346 67.0821 86.1461 64.5185C90.7326 62.1337 95.4536 57.3219 97.0277 52.3624C97.5947 52.3271 97.6157 52.3323 97.8592 51.8052Z" fill="#FE9701"/>
<path d="M97.7112 90.7108C102.197 90.5902 106.76 90.745 111.252 90.6929C111.405 90.6913 111.457 90.7271 111.572 90.8119C111.33 93.0748 110.002 95.2786 108.25 96.7087C104.878 99.4623 101.683 98.6692 97.6987 98.7905L97.7112 90.7108Z" fill="#FE9701"/>
<path d="M114.156 63.7533C114.492 63.7516 114.915 63.7392 115.246 63.7539C115.948 63.8439 116.286 63.6931 117.016 63.8776L117.168 63.8995C119.484 65.1542 118.949 66.1949 119.099 68.4605L119.061 71.2093L118.736 71.0954C118.113 71.1733 117.587 71.0055 117.303 71.3388L117.299 71.7834L117.031 71.7733C117.054 71.4293 117.108 71.4605 116.964 71.217C116.614 71.0564 116.009 71.1415 115.575 71.1511C114.91 72.3592 114.49 75.5752 114.473 77.0165L114.35 77.231C113.855 77.3572 112.248 77.2969 111.664 77.2869L111.663 67.7957C111.663 66.6053 111.632 65.1757 111.712 63.9791C111.724 63.811 111.798 63.8033 111.925 63.7197C112.211 63.7554 112.264 63.8266 112.489 64.0071L112.527 63.834C112.673 63.7302 113.004 63.7613 113.222 63.7546L113.45 63.7697L114.076 63.7737L114.156 63.7533Z" fill="white"/>
<path d="M115.574 71.1511C116.361 70.3751 117.838 70.6762 118.736 71.0953C118.113 71.1732 117.586 71.0055 117.302 71.3388L117.299 71.7834L117.031 71.7733C117.054 71.4292 117.107 71.4604 116.963 71.2169C116.613 71.0564 116.008 71.1415 115.574 71.1511Z" fill="#1C1410"/>
<path d="M78.1792 84.6983C78.7127 84.101 80.0163 82.5628 80.6501 82.2642C80.8096 82.2642 80.8391 82.2572 80.9542 82.3832C81.5072 82.9867 81.9249 87.4216 82.0913 88.5577C82.8177 89.2117 83.7021 89.6884 84.5187 90.4256C84.1757 90.5251 83.3171 90.4839 82.9375 90.4474L82.852 90.4404C82.5759 90.2335 81.3945 89.4232 81.3128 89.2125C80.8088 87.9099 80.6097 85.3577 80.3577 83.9416C79.7347 84.4479 78.7649 85.5249 78.1784 86.1431C78.1434 85.7831 78.173 85.0847 78.1792 84.6983Z" fill="#1C1410"/>
<path d="M113.844 59.7768C114.879 59.7236 115.239 60.822 114.41 61.5075C113.079 61.5809 112.998 60.6012 113.844 59.7768Z" fill="#FE9701"/>
<path d="M79.6691 36.6325C80.0689 36.78 83.1784 36.8068 83.5432 36.659C83.5719 36.6475 83.5999 36.6331 83.6225 36.6123C83.8986 36.7633 84.3886 36.7171 84.716 36.7005L97.3725 36.7082C98.9879 42.3378 99.0742 45.6104 97.4487 51.3137L97.5514 51.378C97.6556 51.5182 97.7637 51.6571 97.8594 51.8038C97.6159 52.331 97.5949 52.3257 97.0279 52.361C95.4538 57.3205 90.7328 62.1323 86.1463 64.5171C81.2348 67.0807 75.5596 67.777 70.1734 66.4768C70.0207 66.7677 69.9181 66.7962 69.6213 66.9517C69.2298 66.7474 69.1931 66.691 69.1164 66.2609C68.7041 66.0573 68.2204 65.9298 67.7851 65.7738C64.4602 64.5827 61.3233 62.5887 58.9048 60.0061C58.6333 59.7162 57.4505 58.3316 57.2014 58.261C57.0685 57.8527 56.0527 56.3207 55.7199 56.002L55.5856 56.0854L55.4797 56.1198C55.1599 56.2258 54.4664 56.537 54.0652 56.6923C52.3237 57.3667 50.754 57.3876 48.9484 56.924C48.534 56.8176 47.2503 56.2221 46.9307 56.2112C46.843 55.9901 46.2387 55.6774 45.9976 55.5347C45.7261 55.3025 45.46 55.0641 45.1994 54.8197C43.2984 53.0074 42.5241 50.9123 42.4561 48.3273L42.5872 48.3668C43.9928 48.7834 44.8889 48.7855 46.1667 48.0892C47.4535 47.1725 48.006 45.8615 48.383 44.375C48.1869 43.8676 46.6925 41.8612 46.2923 41.3062C48.2029 39.9248 50.5513 39.5849 52.8388 39.9436C53.1018 38.8039 53.3107 37.803 53.7115 36.7037L68.2744 36.701C68.5698 36.7026 69.0995 36.7208 69.379 36.6985L73.3796 36.7037C73.7118 36.7128 74.2612 36.7688 74.5256 36.6195C74.931 36.7925 77.8212 36.7107 78.4971 36.703C78.7981 36.7116 79.4413 36.7618 79.6691 36.6325Z" fill="#FECF4C"/>
<path d="M70.1649 52.3444L86.5052 52.3437C89.8589 52.3436 93.7267 52.2432 97.0275 52.3609C95.4533 57.3204 90.7323 62.1323 86.1459 64.5171C81.2344 67.0807 75.5591 67.777 70.173 66.4768C70.0969 65.1864 70.1642 63.1438 70.1642 61.8076L70.1649 52.3444Z" fill="#FECF4C"/>
<path d="M83.4826 51.3276C88.0613 51.2379 92.8538 51.3115 97.4481 51.3137L97.5507 51.378C97.6549 51.5183 97.763 51.6571 97.8587 51.8038C97.6153 52.331 97.5943 52.3257 97.0273 52.361C93.7265 52.2433 89.8587 52.3436 86.505 52.3437L70.1647 52.3444L70.164 61.8076C70.164 63.1439 70.0966 65.1864 70.1728 66.4768C70.0201 66.7678 69.9174 66.7962 69.6206 66.9517C69.2291 66.7474 69.1924 66.691 69.1157 66.261C69.2778 64.5384 68.9079 51.9883 69.3198 51.4449C70.0959 51.2445 73.6634 51.2962 74.6399 51.3076C77.5441 51.3411 80.5901 51.2521 83.4826 51.3276Z" fill="#1C1410"/>
<path d="M46.96 51.1798C47.8655 48.7319 49.8692 45.8426 52.7328 47.812C52.818 48.1663 53.1696 49.6278 53.1793 49.9245C53.4346 50.7627 53.7637 51.7837 54.1289 52.5839C52.0309 53.7604 49.5647 53.9606 47.732 52.1464C47.3816 51.7677 47.2403 51.6074 46.96 51.1798Z" fill="white"/>
<path d="M46.96 51.1798C47.8655 48.7319 49.8692 45.8426 52.7328 47.812C52.818 48.1663 53.1696 49.6278 53.1793 49.9245C52.3973 48.6876 51.4297 47.4884 49.8456 48.5873C48.6932 49.3867 48.1982 50.8802 47.732 52.1464C47.3816 51.7677 47.2403 51.6074 46.96 51.1798Z" fill="#1C1410"/>
<path d="M48.3824 44.3746C49.4823 43.5701 50.8011 43.3889 52.1299 43.5913C52.2472 43.608 52.3636 43.6304 52.4787 43.6584C52.479 44.7673 52.5071 45.8134 52.6511 46.9127C52.6845 47.1674 52.7358 47.5637 52.7329 47.812C49.8693 45.8426 47.8656 48.7319 46.9601 51.1798C46.2682 50.0426 46.1609 49.4055 46.1662 48.0888C47.453 47.1722 48.0054 45.8611 48.3824 44.3746Z" fill="white"/>
<path d="M109.34 18.2286C109.536 18.2196 109.733 18.2132 109.93 18.2094C115.784 18.1327 121.837 18.2075 127.702 18.2072L132.894 18.206C136.232 18.2062 138.945 18.1159 140.899 21.4238C141.612 22.6304 141.766 23.7228 141.777 25.1146L141.781 31.707C141.777 35.7469 142.277 39.9035 137.521 41.6953C136.196 42.1947 134.866 42.1015 133.475 42.1008L130.08 42.094L117.831 42.0933C116.107 42.093 112.937 41.9961 111.348 42.1772C110.68 42.2568 110.029 42.4434 109.421 42.7298C107.917 43.4231 104.621 46.5408 103.213 47.7844L103.209 31.633L103.208 27.159C103.208 25.9287 103.14 24.6336 103.366 23.4259C103.949 20.3174 106.327 18.5166 109.34 18.2286Z" fill="#1C1410"/>
<path d="M111.771 33.1776C118.826 33.0879 126.081 33.1774 133.153 33.1785L133.155 34.1984L111.774 34.1944L111.771 33.1776Z" fill="white"/>
<path d="M111.772 29.0874L133.157 29.0877L133.155 30.0986L111.769 30.0979L111.772 29.0874Z" fill="white"/>
<path d="M111.774 24.9775L133.156 24.9786L133.155 25.9859L111.77 25.986L111.774 24.9775Z" fill="white"/>
<path d="M78.1778 86.1434C78.7642 85.5252 79.734 84.4481 80.357 83.9419C80.609 85.358 80.8081 87.9102 81.3121 89.2128C81.3938 89.4235 82.5752 90.2338 82.8513 90.4407L82.9369 90.4476C83.3164 90.4842 84.175 90.5254 84.518 90.4259C84.6479 90.5348 84.7918 90.6491 84.9163 90.7642C87.3055 92.9322 89.1084 95.6275 89.8651 98.784C90.4904 101.492 90.086 104.129 88.6114 106.5C87.6983 107.957 86.4531 109.177 84.9761 110.06L84.1486 110.535C82.4928 111.295 79.7208 112.24 77.8931 112.214C74.6025 112.251 71.226 111.968 68.1875 110.564C67.6844 110.372 67.206 110.158 66.7137 109.941C67.2564 112.314 67.7868 114.691 68.3047 117.07C67.9294 117.085 67.671 117.175 67.3115 117.275L65.5194 109.328C58.7394 105.345 53.1582 97.4138 58.587 89.852C58.8397 90.394 58.8022 90.338 59.4042 90.4313C59.9599 89.8146 60.2574 89.5044 60.8664 88.9359C61.147 88.7298 61.4826 88.5168 61.7764 88.3224C64.1166 86.8098 66.8461 86.1247 69.6167 86.075C71.3587 86.0462 73.0984 86.2157 74.8021 86.5797C75.777 86.7982 76.8072 87.5914 77.5685 86.8036C77.6843 86.6823 77.7982 86.5594 77.9102 86.435L78.1778 86.1434Z" fill="white"/>
<path d="M59.4042 90.431C59.9599 89.8143 60.2574 89.504 60.8664 88.9355C61.5505 91.6371 62.1313 94.4475 62.7513 97.1747C63.5553 100.71 64.4796 104.372 65.1859 107.922C65.5338 108.114 65.7984 108.293 66.1874 108.366C66.2281 108.335 66.2894 108.298 66.3145 108.261C66.4347 108.635 66.4849 108.699 66.8581 108.886C67.871 109.391 69.0547 109.947 70.1417 110.244C69.3302 110.496 68.6643 110.233 68.1875 110.564C67.6844 110.371 67.206 110.157 66.7137 109.94C67.2564 112.314 67.7868 114.69 68.3047 117.07C67.9294 117.085 67.671 117.175 67.3115 117.274L65.5194 109.328C58.7394 105.345 53.1582 97.4134 58.587 89.8516C58.8397 90.3936 58.8022 90.3376 59.4042 90.431Z" fill="white"/>
<path d="M58.587 89.8501C58.8397 90.3921 58.8022 90.3361 59.4042 90.4294C55.0095 96.2353 58.6143 103.14 63.7293 106.941C64.1959 107.295 64.6822 107.622 65.1859 107.92C65.5338 108.112 65.7984 108.292 66.1874 108.364C66.2281 108.334 66.2894 108.297 66.3145 108.259C66.4347 108.633 66.4849 108.698 66.8581 108.884C67.871 109.39 69.0547 109.945 70.1417 110.242C69.3302 110.495 68.6643 110.231 68.1875 110.563C67.6844 110.37 67.206 110.156 66.7137 109.939C67.2564 112.312 67.7868 114.689 68.3047 117.068C67.9294 117.083 67.671 117.173 67.3115 117.273L65.5194 109.326C58.7394 105.343 53.1582 97.4119 58.587 89.8501Z" fill="#1C1410"/>
<path d="M78.1775 86.1434C78.7639 85.5252 79.7338 84.4481 80.3568 83.9419C80.6088 85.358 80.8079 87.9102 81.3119 89.2128C81.3935 89.4235 82.575 90.2338 82.8511 90.4407L82.9366 90.4476L82.9335 90.5176C82.4622 90.838 78.9973 90.6942 78.1487 90.7128C78.1503 91.1654 78.2141 93.3576 78.0103 93.6298L77.7196 93.6632C76.0437 93.8693 74.7893 94.7675 73.7048 96.0506C73.5792 96.1991 73.241 96.6867 73.2023 96.864C73.0795 96.6898 72.2911 95.9308 72.0408 95.6493C70.6827 94.1212 70.0352 92.6663 69.7237 90.6631L69.6781 90.5223C69.5949 89.1109 69.6205 87.4996 69.6165 86.075C71.3584 86.0462 73.0981 86.2157 74.8019 86.5797C75.7767 86.7982 76.8069 87.5914 77.5682 86.8036C77.684 86.6823 77.798 86.5594 77.91 86.435L78.1775 86.1434Z" fill="#FE9701"/>
<path d="M69.7241 90.6616C72.0312 90.863 75.479 90.6375 77.9158 90.7129C77.908 91.2464 77.838 93.2193 78.0107 93.6283L77.7199 93.6618C76.0441 93.8678 74.7897 94.766 73.7052 96.0491C73.5795 96.1977 73.2414 96.6852 73.2027 96.8625C73.0799 96.6884 72.2915 95.9294 72.0412 95.6479C70.6831 94.1198 70.0356 92.6648 69.7241 90.6616Z" fill="#FE9701"/>
<path d="M78.0111 93.6284L78.1846 93.6572C78.1698 94.3026 78.0648 97.6644 78.2647 98.0439L77.9349 98.6986L77.9372 98.75C77.0065 101.063 74.7608 104.36 73.3329 106.421C71.5545 104.698 68.6391 100.431 67.7453 98.1722C66.0191 93.8088 72.0424 96.9972 72.9024 97.1123L73.2032 96.8626C73.2418 96.6853 73.58 96.1978 73.7056 96.0492C74.7901 94.7661 76.0446 93.8679 77.7204 93.6619L78.0111 93.6284Z" fill="#1C1410"/>
<path d="M82.9335 90.5171L83.2843 90.7014C86.1565 93.315 87.6164 94.9574 88.8569 98.7889C85.2645 98.6963 81.5592 98.8503 77.9364 98.7508L77.9341 98.6994L78.2639 98.0447C78.064 97.6652 78.169 94.3034 78.1837 93.658L78.0103 93.6292C78.2141 93.357 78.1503 91.1649 78.1487 90.7123C78.9973 90.6936 82.4622 90.8375 82.9335 90.5171Z" fill="#FE9701"/>
<path d="M78.1838 93.6572C79.8668 94.3237 78.722 96.8308 78.2639 98.0439C78.064 97.6644 78.169 94.3027 78.1838 93.6572Z" fill="#1C1410"/>
<path d="M84.5179 90.4258C84.6478 90.5347 84.7917 90.649 84.9161 90.7641C87.3054 92.9321 89.1082 95.6274 89.865 98.7839C90.4903 101.492 90.0859 104.129 88.6112 106.5C87.6981 107.957 86.453 109.177 84.976 110.06C84.416 110.027 83.723 110.19 83.3606 109.765C86.124 108.41 88.1562 106.332 88.8842 103.28C89.2902 101.578 89.1168 100.465 88.857 98.7893C87.6165 94.9579 86.1566 93.3155 83.2844 90.7018L82.9336 90.5175L82.9367 90.4475C83.3163 90.4841 84.1749 90.5253 84.5179 90.4258Z" fill="#1C1410"/>
<path d="M60.8667 88.9358C61.1472 88.7298 61.4829 88.5167 61.7767 88.3223L64.6827 100.956L65.7909 105.834C65.9329 106.471 66.2313 107.645 66.3148 108.261C66.2897 108.298 66.2284 108.336 66.1877 108.366C65.7987 108.294 65.5341 108.114 65.1861 107.922C64.4799 104.372 63.5556 100.71 62.7516 97.1749C62.1316 94.4478 61.5508 91.6374 60.8667 88.9358Z" fill="#1C1410"/>
<path d="M82.1908 110.285C82.5789 110.107 82.9693 109.933 83.3613 109.765C83.7237 110.19 84.4167 110.027 84.9767 110.06L84.1491 110.535C82.4933 111.296 79.7214 112.24 77.8936 112.214C74.603 112.251 71.2265 111.968 68.188 110.565C68.6648 110.233 69.3308 110.497 70.1422 110.244C72.4815 111.054 75.1237 111.318 77.5897 111.162C79.1598 111.108 80.7115 110.813 82.1908 110.285Z" fill="#1C1410"/>
<path d="M82.1899 110.285C82.578 110.107 82.9685 109.933 83.3605 109.765C83.7229 110.19 84.4159 110.027 84.9759 110.06L84.1483 110.535C83.8466 110.19 82.8223 110.337 82.2669 110.292L82.1899 110.285Z" fill="#333444"/>
<path d="M122.656 63.8465C124.175 63.3146 125.395 63.5957 126.915 63.9753C135.484 66.1159 144.066 71.1912 147.254 79.8527C147.566 80.7027 147.615 81.3723 147.619 82.2658C151.062 85.1602 151.953 87.4114 152.36 91.9575C152.914 98.1429 151.382 106.279 148.825 111.947C148.5 112.678 148.147 113.396 147.767 114.099C147.137 115.242 146.345 116.249 146.106 117.554C145.522 120.73 145.58 123.979 145.578 127.193C145.578 127.382 145.488 127.54 145.381 127.683C145.095 127.826 145.218 127.794 144.901 127.782C144.717 127.658 144.588 127.55 144.559 127.295C144.494 126.73 144.517 126.035 144.529 125.458C144.592 122.53 144.55 119.366 145.277 116.521C145.504 115.631 146.476 114.246 146.924 113.403C147.526 112.27 148.036 111.095 148.51 109.913C150.862 104.049 152.819 92.7126 150.079 86.8095C149.41 85.3795 148.385 84.1461 147.101 83.2269C143.363 80.5005 138.051 79.7283 133.518 80.4274C130.269 80.9282 126.633 82.4174 127.342 86.4168C127.494 87.273 127.772 87.857 128.308 88.5398C131.408 86.4448 133.314 86.5677 136.696 86.2473L136.863 86.3056C138.956 86.364 141.022 86.7535 142.949 87.588C143.457 87.808 144.417 88.0981 144.569 88.6891C144.248 89.8074 142.873 88.6432 142.176 88.3944C140.42 87.7676 138.819 87.4667 136.967 87.371L136.049 87.3679C133.022 87.4783 129.928 88.0297 127.921 90.522L127.757 90.7413C127.524 90.634 127.099 90.7335 126.669 90.6161L126.705 90.4816C126.988 89.9543 127.173 89.7226 127.573 89.2902C126.797 88.4574 126.443 87.5133 126.26 86.3997C122.402 85.1586 122.589 81.5877 121.915 78.3745C121.604 76.5022 120.5 73.8106 119.064 72.5588C118.432 72.0475 118.083 71.8937 117.298 71.7841L117.302 71.3395C117.586 71.0062 118.113 71.1739 118.736 71.096L119.061 71.2099C119.258 71.3794 120.076 72.0094 120.203 72.154C121.38 73.5011 122.23 75.48 122.687 77.1843C122.968 75.5911 123.114 75.5899 123.167 73.7584C121.727 73.551 120.567 72.4533 119.866 71.2411L119.654 70.858C119.352 70.1687 119.291 69.7187 119.173 68.971C119.307 66.5082 120.306 64.797 122.656 63.8465Z" fill="#1C1410"/>
<path d="M120.855 70.9003C119.655 68.7472 120.257 66.3262 122.407 65.0888C124.281 64.0101 126.744 65.0554 128.665 65.5375C135.27 67.5623 141.96 71.5989 145.23 77.9076C145.88 79.1627 146.387 80.239 146.614 81.6566C143.022 79.6596 140.071 79.2202 136.049 79.1565C134.067 77.1727 132.224 75.891 129.645 74.7304C128.495 74.2226 127.311 73.7937 126.103 73.4469C124.152 72.8786 122.327 72.8401 121.05 71.1562L120.855 70.9003Z" fill="white"/>
<path d="M123.168 73.7588C127.146 74.7117 131.629 76.1549 134.544 79.2053C130.587 79.8072 126.785 80.6222 126.175 85.246C122.988 83.6705 123.557 80.133 122.687 77.1846C122.969 75.5915 123.115 75.5903 123.168 73.7588Z" fill="white"/>
<path d="M120.855 70.8983L121.049 71.1541C120.709 71.1502 120.153 71.1021 119.865 71.2396L119.654 70.8564C120.055 70.8806 120.454 70.9135 120.855 70.8983Z" fill="#1C1410"/>
<path d="M126.669 90.616L126.705 90.4814L127.922 90.5219L127.758 90.7412C127.524 90.6339 127.1 90.7334 126.669 90.616Z" fill="#1C1410"/>
<path d="M17.5771 36.291C16.4945 33.4023 15.5497 30.0782 14.8418 27.0786C14.468 25.4948 14.7388 23.2591 15.7177 21.9296C16.6904 20.6084 18.405 20.232 19.8743 20.9469C21.0662 21.5099 21.8804 22.4132 22.3953 23.6202C24.7279 28.7248 26.4726 34.0629 28.4703 39.2993C29.7836 34.4025 32.7924 27.4911 38.4442 32.5227C41.6489 35.3758 43.6813 37.9264 46.2917 41.3067C46.6918 41.8617 48.1862 43.868 48.3823 44.3754C48.0053 45.862 47.4529 47.173 46.166 48.0897C44.8882 48.786 43.9921 48.7839 42.5865 48.3672L42.4554 48.3277C42.5234 50.9128 43.2978 53.0079 45.1988 54.8202C45.4593 55.0646 45.7254 55.303 45.9969 55.5352C46.238 55.6779 46.8423 55.9906 46.93 56.2117C46.4844 60.3968 46.3919 64.612 46.6536 68.8127C46.6977 69.5156 47.2048 71.875 46.2519 71.8812C45.5102 71.4825 45.7145 70.0562 45.6551 69.283C45.6306 68.0967 45.4953 66.8116 45.5066 65.6325C45.5207 64.1433 45.6422 64.0273 44.9482 62.7018C41.852 56.7875 38.8721 50.718 36.8935 44.3252C36.7495 43.8598 36.5688 43.4001 36.6186 42.9055C36.7246 42.6785 36.77 42.6717 36.9943 42.5326C37.21 42.5267 37.2768 42.5296 37.4345 42.7139C38.9268 44.4573 40.3008 46.3038 42.5061 47.2241C43.3383 44.2873 43.381 44.2019 45.4364 41.8618C43.0504 38.5748 39.8118 34.6541 36.4703 32.3531C32.196 29.4097 29.753 38.2519 29.0732 41.05C29.7366 43.3749 35.0543 57.4074 34.7986 58.4357C34.7491 58.6346 34.6686 58.6825 34.5001 58.782C33.7242 58.7768 33.8744 58.2556 33.6521 57.6308C33.4758 57.135 33.3242 56.6143 33.1594 56.1126C30.6835 48.6178 28.0732 41.1681 25.3298 33.7669C24.0506 30.319 22.814 26.7353 21.1559 23.4397C20.2753 21.6895 17.5451 20.7164 16.3658 22.7865C15.4804 24.3407 15.635 26.3152 16.0732 27.9899C16.7163 30.4978 17.5357 32.9634 18.372 35.4114C20.5727 41.753 22.9007 48.0497 25.3544 54.2979L27.1528 58.8356C27.4733 59.6399 28.0102 60.879 28.2048 61.6875C28.1368 61.9227 28.1284 61.9117 27.9502 62.0647C27.5709 62.1697 27.4101 62.1031 27.2171 61.7246C26.897 61.0969 26.6597 60.4064 26.4058 59.7464L25.2705 56.8671C23.8083 53.1651 22.3782 49.4506 20.9801 45.7239C20.3728 44.1149 19.7263 42.0501 19.0469 40.5123C18.0137 38.1733 14.0991 32.2885 11.0661 34.5446C10.1845 35.2005 10.0846 37.5317 10.3452 38.5216C11.0849 41.331 12.3781 44.0999 13.6121 46.738C15.7286 51.236 17.9508 55.6837 20.2766 60.0773C20.8282 61.1133 22.8062 64.3978 22.7338 65.1827C22.6141 65.3981 22.2686 65.5748 22.1343 65.4269C21.1195 64.3093 20.5082 62.3715 19.6778 61.17C17.559 58.1046 9.7668 45.5356 5.40491 47.1615C4.88551 47.3586 4.46524 47.7532 4.23587 48.2591C3.21507 50.551 5.67002 53.7607 6.90403 55.5691C7.99001 57.138 9.05842 58.7188 10.109 60.3115C12.3293 63.6996 14.4306 67.1643 16.4089 70.6992C18.3372 74.0988 20.3201 77.4395 21.6454 81.1212C21.8038 81.5614 21.9775 81.9984 22.1365 82.4393C23.7608 87.0166 25.3056 91.621 26.7705 96.2518C28.6869 102.232 30.5564 108.227 32.3789 114.236L34.758 122.186C35.1066 123.352 35.4881 124.568 35.8121 125.745C35.8607 125.921 35.8144 126.061 35.7399 126.22C35.6325 126.305 35.5835 126.374 35.4438 126.395C35.2674 126.421 35.1091 126.35 34.9823 126.23C34.6246 125.892 32.6155 118.572 32.283 117.463C30.599 111.851 28.8731 106.251 27.1054 100.663C25.1273 94.3412 23.0736 88.0679 20.8048 81.8429C19.0998 77.1653 16.6043 73.068 14.1198 68.7778C12.1491 65.3535 10.047 62.0063 7.81844 58.7439C6.44751 56.6936 4.85994 54.5688 3.71272 52.3998C3.17926 51.3454 3.01255 50.2344 3.01668 49.0883C3.02266 47.4215 4.65964 45.7475 6.38509 45.9999C10.4337 46.592 13.4045 50.8862 15.8618 53.7659C15.0888 52.299 14.3533 50.7175 13.6343 49.2187C12.076 45.9705 10.5003 42.6793 9.46705 39.2238C8.70283 36.6679 9.36353 32.6953 12.7899 33.0283C14.8091 33.2254 16.3539 34.7821 17.5771 36.291Z" fill="#1C1410"/>
<path d="M38.3994 45.5366C39.9091 46.7536 40.456 47.5821 42.4553 48.3266C42.5233 50.9117 43.2977 53.0068 45.1987 54.8191C45.4592 55.0635 45.7253 55.3019 45.9968 55.5341C45.722 57.6685 45.6073 59.4523 45.4894 61.5926C44.8837 60.2212 44.0267 58.6876 43.3676 57.3103C41.5728 53.5595 39.6067 49.51 38.3994 45.5366Z" fill="white"/>
<path d="M45.4362 41.8623C45.9761 42.6123 46.8153 43.7314 47.2836 44.5058C46.6635 46.6763 45.3291 48.2144 42.9138 47.3786C42.7765 47.3307 42.6406 47.2794 42.5059 47.2246C43.3381 44.2878 43.3808 44.2024 45.4362 41.8623Z" fill="#FECF4C"/>
<path d="M55.5845 56.0844L55.7188 56.001C56.0516 56.3197 57.0673 57.8517 57.2003 58.26C57.4493 58.3306 58.6321 59.7152 58.9036 60.0051C61.3221 62.5877 64.459 64.5817 67.7839 65.7728C68.2192 65.9288 68.7029 66.0563 69.1152 66.26C69.1919 66.69 69.2286 66.7464 69.6201 66.9507L69.6261 85.0064C67.1313 85.2436 63.6228 85.7234 61.5564 87.2756C61.2322 87.4964 60.9779 87.54 60.6109 87.7997C60.3663 86.8611 60.2556 85.176 60.1516 84.1456C59.9503 82.0483 59.7207 79.9541 59.463 77.863C58.4664 70.0548 57.4939 63.7475 55.5845 56.0844Z" fill="white"/>
<path d="M55.5845 56.0844L55.7188 56.001C56.0516 56.3197 57.0673 57.8517 57.2003 58.26C58.6043 64.8356 59.5183 70.134 60.3614 76.8612C60.638 79.157 60.9031 81.4542 61.1565 83.7529C61.2735 84.8423 61.3408 86.2452 61.5564 87.2756C61.2322 87.4964 60.9779 87.54 60.6109 87.7997C60.3663 86.8611 60.2556 85.176 60.1516 84.1456C59.9503 82.0483 59.7207 79.9541 59.463 77.863C58.4664 70.0548 57.4939 63.7475 55.5845 56.0844Z" fill="#1C1410"/>
<path d="M115.574 71.1517C116.008 71.1421 116.613 71.057 116.963 71.2175C117.107 71.461 117.053 71.4298 117.031 71.7739L117.298 71.784C118.083 71.8935 118.432 72.0474 119.064 72.5587C120.499 73.8105 121.604 76.5021 121.915 78.3743C120.559 80.1194 119.649 80.6311 117.594 81.2555L117.047 81.3403C116.419 81.3636 115.816 81.3869 115.187 81.3823C115.152 82.6825 115.045 84.013 115.106 85.3078C115.341 90.3158 115.826 95.3293 117.167 100.169C117.243 100.43 117.543 101.377 117.581 101.597C117.225 101.984 117.336 102.882 117.213 103.449L116.836 102.59C114.924 97.8224 114.188 89.6393 114.026 84.4897C114.001 83.674 114.095 82.2439 114.135 81.4056C114.314 80.7897 114.409 77.8331 114.472 77.017C114.489 75.5758 114.909 72.3597 115.574 71.1517Z" fill="#FE9701"/>
<path d="M115.574 71.1517C116.008 71.1421 116.613 71.057 116.963 71.2175C117.107 71.461 117.053 71.4298 117.031 71.7739C116.776 71.7865 116.56 71.7613 116.376 71.9275C115.855 73.0869 115.594 75.954 115.487 77.2829C115.376 78.3137 115.189 80.3706 115.187 81.3823C115.152 82.6825 115.045 84.013 115.106 85.3078C115.341 90.3158 115.826 95.3293 117.167 100.169C117.243 100.43 117.543 101.377 117.581 101.597C117.225 101.984 117.336 102.882 117.213 103.449L116.836 102.59C114.924 97.8224 114.188 89.6393 114.026 84.4897C114.001 83.674 114.095 82.2439 114.135 81.4056C114.314 80.7897 114.409 77.8331 114.472 77.017C114.489 75.5758 114.909 72.3597 115.574 71.1517Z" fill="#1C1410"/>
<path d="M117.167 100.168C117.244 100.429 117.544 101.376 117.582 101.596C117.226 101.984 117.337 102.881 117.213 103.449L116.837 102.59C117.244 101.741 116.88 101.118 117.167 100.168Z" fill="#1C1410"/>
<path d="M117.031 71.7739L117.298 71.784C118.083 71.8936 118.432 72.0474 119.064 72.5588C119.09 74.4396 119.285 76.1059 117.286 77.0384L116.921 77.1803C116.347 77.2629 116.069 77.2796 115.487 77.283C115.594 75.9541 115.855 73.087 116.376 71.9275C116.56 71.7614 116.776 71.7866 117.031 71.7739Z" fill="white"/>
<path d="M115.488 77.2814C116.069 77.2781 116.348 77.2614 116.922 77.1787C116.959 77.2177 116.997 77.2568 117.034 77.2958C117.097 78.3464 117.057 80.3815 117.048 81.3388C116.42 81.3621 115.817 81.3854 115.188 81.3808C115.19 80.3691 115.377 78.3122 115.488 77.2814Z" fill="#FE9701"/>
<path d="M116.922 77.1794L117.287 77.0376C117.283 77.6902 117.202 80.7368 117.377 81.1723L117.596 81.2548L117.048 81.3395C117.058 80.3822 117.097 78.3471 117.034 77.2966C116.997 77.2575 116.96 77.2185 116.922 77.1794Z" fill="#FE9701"/>
<path d="M126.669 90.6152C127.099 90.7327 127.524 90.6331 127.757 90.7404C126.833 92.655 126.64 94.575 128.124 96.2765C132.625 92.634 138.083 94.145 142.743 96.523C143.106 96.7081 143.434 96.8838 143.599 97.2734C143.541 97.7174 143.186 97.9049 142.734 97.733C142.353 97.5876 141.98 97.3698 141.617 97.1809C137.714 95.1512 132.371 93.9288 128.741 97.1708C127.678 98.1203 126.696 99.5356 126.636 101.003C126.548 103.239 128.492 105.719 130.808 105.794C132.138 105.833 133.128 105.162 134.052 104.288C133.397 104.041 131.842 103.917 131.773 103.192C132.093 102.495 132.936 102.791 133.509 102.947C135.107 103.384 137.2 104.582 136.757 106.555C136.727 106.691 136.513 106.821 136.374 106.844C135.503 106.821 135.824 105.399 135.249 104.893C134.803 104.869 134.433 105.369 134.101 105.661C133.369 106.289 132.473 106.695 131.517 106.827C128.554 107.213 125.9 104.498 125.57 101.667C125.355 99.8233 126.266 98.3831 127.38 97.0113C125.849 95.4568 125.499 92.4528 126.669 90.6152Z" fill="#1C1410"/>
<path d="M73.3787 36.7032C74.6187 33.179 79.5275 32.3702 79.148 28.0576C78.8229 24.3701 74.6895 23.5562 73.416 20.3199C73.038 19.3598 72.9292 18.3147 73.1015 17.2974C73.6886 13.8083 76.5134 13.105 78.4005 10.5629C79.015 9.69494 78.9908 8.59434 79.3338 7.63458C79.4225 7.3864 79.8526 7.48705 80.0299 7.58693C80.3488 8.04665 80.1598 8.68175 80.0649 9.1967C79.3992 13.12 73.9595 13.9996 74.0711 18.2258C74.2047 23.2825 81.2961 23.6081 80.0968 29.5323C79.3533 33.2053 76.215 33.7361 74.5247 36.6191C74.2603 36.7684 73.711 36.7123 73.3787 36.7032Z" fill="#1C1410"/>
<path d="M83.6217 36.6126C83.8262 36.1715 84.0176 35.77 84.3007 35.3729C85.92 33.1003 88.9501 32.108 89.3304 29.0417C89.4284 28.3089 89.3475 27.5633 89.0971 26.8679C87.9639 23.7794 83.6785 22.9324 83.2538 18.8044C83.1449 17.8018 83.3098 16.7883 83.7314 15.872C84.8669 13.3659 87.3682 12.5194 88.8171 10.2239C89.3732 9.34295 89.157 7.93005 89.7115 7.49336C89.9775 7.45892 89.969 7.44687 90.2015 7.56589C90.4496 7.86924 90.4107 8.0054 90.3897 8.38505C90.1191 13.2344 84.079 13.6781 84.2789 18.4102C84.3201 19.3819 84.6997 20.5117 85.3366 21.22C87.6847 23.8282 90.7156 24.9093 90.3586 29.0536C90.0188 33.0062 86.1471 33.8109 84.7152 36.7008C84.3878 36.7175 83.8978 36.7636 83.6217 36.6126Z" fill="#1C1410"/>
<path d="M68.2737 36.7007C69.6791 33.113 73.6173 32.6685 74.0113 28.9397C74.1022 28.1338 73.9767 27.3182 73.6479 26.5768C72.7564 24.5851 70.4302 23.4513 69.1266 21.7467C67.8749 20.1099 67.5694 18.2357 68.2204 16.2914C69.2474 13.2239 72.9527 12.2994 73.8689 9.23623C74.0441 8.64615 73.8649 7.95444 74.3238 7.51863C74.5636 7.42979 74.5591 7.44668 74.8169 7.5171C75.617 8.18742 74.4152 10.8355 73.845 11.5142C71.9396 13.782 68.6097 15.1445 68.9466 18.6277C69.3856 23.0782 75.5018 23.5113 75.0508 28.9143C74.9559 30.1084 74.4903 31.2431 73.719 32.1596C72.2091 33.9662 70.558 34.5368 69.3784 36.6982C69.0989 36.7205 68.5692 36.7023 68.2737 36.7007Z" fill="#1C1410"/>
<path d="M78.4968 36.7032C79.9155 33.259 84.0563 32.5065 84.2701 28.7088C84.5377 23.9585 78.4276 23.5066 78.1834 18.6664C77.9547 14.1221 81.4959 13.4309 83.7234 10.2729C84.204 9.58357 84.1255 8.0268 84.5361 7.55388C84.8309 7.42051 84.7034 7.43158 85.0129 7.48798C85.5254 7.88092 85.2843 8.57839 85.1988 9.14723C84.7306 12.2657 81.1397 13.4933 79.7817 15.9058C79.3477 16.6712 79.1408 17.5442 79.1844 18.4229C79.3648 22.4641 84.0773 23.0383 85.1373 26.9766C85.373 27.864 85.3886 28.7954 85.1832 29.6903C84.4078 33.1874 81.317 33.732 79.6689 36.6328C79.441 36.7621 78.7978 36.7119 78.4968 36.7032Z" fill="#1C1410"/>
<path d="M117.583 101.597C118.229 103.259 118.809 104.724 120.023 106.091C120.341 106.451 120.707 106.746 121.048 107.097C120.997 107.949 120.683 109.225 120.494 110.108C120.099 111.924 119.692 113.738 119.275 115.55C118.736 117.921 118.179 120.29 117.605 122.653C117.42 123.439 116.786 127.253 116.03 127.42C115.645 127.291 115.505 126.814 115.602 126.444C117.231 120.184 118.484 113.814 119.956 107.524C118.776 106.364 117.774 105.029 117.214 103.45C117.338 102.882 117.227 101.984 117.583 101.597Z" fill="#1C1410"/>
<path d="M67.3112 117.273C67.6707 117.174 67.929 117.084 68.3044 117.069L68.3289 117.113L69.51 122.536C69.205 122.542 68.8696 122.513 68.6124 122.649C68.5726 122.74 68.5534 122.757 68.5422 122.852L68.4834 122.578C68.0572 120.82 67.7925 119.109 67.29 117.361L67.3112 117.273Z" fill="#1C1410"/>
<path d="M77.8972 84.9796L78.178 84.6973C78.1718 85.0838 78.1422 85.7821 78.1772 86.1421L77.9097 86.4337C77.7977 86.5582 77.6837 86.681 77.5679 86.8023C76.8067 87.5901 75.7764 86.7969 74.8016 86.5784C73.0978 86.2144 71.3582 86.0449 69.6162 86.0737C66.8456 86.1235 64.1161 86.8086 61.7759 88.3211C61.4821 88.5155 61.1464 88.7286 60.8659 88.9346C60.2568 89.5031 59.9594 89.8134 59.4036 90.43C58.8017 90.3367 58.8392 90.3927 58.5864 89.8507C58.9352 89.4121 60.4984 88.003 60.6111 87.8001C60.9781 87.5403 61.2324 87.4968 61.5566 87.2759C63.623 85.7237 67.1315 85.2439 69.6263 85.0068C72.0803 84.9632 74.4322 85.394 76.7693 86.1064C77.1619 85.73 77.528 85.3808 77.8972 84.9796Z" fill="#1C1410"/>
<path d="M68.542 122.853C68.5533 122.758 68.5725 122.741 68.6122 122.65C68.8694 122.514 69.2048 122.543 69.5098 122.537L69.553 122.701C69.7397 123.648 69.9455 124.584 70.1392 125.528C70.2542 126.089 70.5001 126.803 69.8874 127.083C69.4812 127.029 69.3401 126.731 69.2413 126.353C68.9418 125.207 68.8215 124.003 68.542 122.853Z" fill="#1C1410"/>
</svg>
