<svg width="139" height="129" viewBox="0 0 139 129" fill="none" xmlns="http://www.w3.org/2000/svg">
<g clip-path="url(#clip0_250_217)">
<path d="M105.166 64.3281L103.187 64.3347L103.18 70.3014C103.18 70.9007 103.141 72.6682 103.208 73.2161L103.009 73.1645L102.941 73.0204C100.262 70.5317 97.165 70.2078 94.005 72.0192C92.1833 70.728 91.158 69.6582 89.9039 67.8279C89.1316 67.8539 88.0745 68.0175 87.3163 68.1689L86.9909 68.2444C84.8541 68.8148 82.749 69.6356 80.9467 70.9433C78.5585 70.6444 76.183 71.585 74.647 73.4377C73.1111 75.2901 72.6273 77.7986 73.3642 80.0891C73.3881 80.1637 73.4133 80.2375 73.4397 80.3114C73.524 80.5459 73.6207 80.7761 73.7294 81.0013C73.6146 81.3986 73.4739 81.9407 73.3323 82.3158C74.1472 83.2473 74.5587 84.4643 74.4767 85.6992C74.4228 86.5734 73.6867 89.2002 73.398 90.1353L76.7859 96.0602L76.9345 96.3119C76.5933 96.299 76.1731 96.2438 75.8742 96.3908C76.8513 98.2202 77.0688 97.8703 78.662 99.0585C80.4111 100.362 82.3469 101.958 83.6889 103.687C79.019 107.481 78.7021 110.867 76.97 116.338C75.6977 120.356 74.3606 124.398 73.1642 128.437H74.1687H92.7661H93.726L93.7806 127.998L133.786 127.998C132.236 123.609 130.996 119.02 129.463 114.615C129.145 113.702 128.755 112.755 128.484 111.833C130.002 111.232 131.931 109.733 132.988 108.525C141.318 99.0083 134.283 84.394 121.481 85.1914C121.506 80.0934 118.343 75.9742 113.215 75.1782C111.528 70.6507 109.04 67.2298 105.166 64.3281Z" fill="#060717"/>
<path d="M80.9469 70.9433C78.5587 70.6444 76.1832 71.585 74.6473 73.4378C73.1114 75.2901 72.6276 77.7986 73.3644 80.0891C73.3884 80.1637 73.4136 80.2376 73.44 80.3114C73.5243 80.5459 73.621 80.7761 73.7297 81.0013C73.6148 81.3986 73.4742 81.9408 73.3326 82.3158C74.1474 83.2474 74.559 84.4643 74.477 85.6992C74.4231 86.5734 73.6869 89.2002 73.3983 90.1354L76.7862 96.0603L76.9347 96.312C76.5936 96.2991 76.1733 96.2439 75.8744 96.3909C76.8516 98.2203 77.0691 97.8703 78.6623 99.0586C80.4114 100.362 82.3471 101.958 83.6892 103.687C79.0192 107.481 78.7024 110.868 76.9702 116.339C75.698 120.356 74.3609 124.398 73.1645 128.437H74.169H92.7664C92.8345 126.699 93.0964 124.41 93.2464 122.643L94.1876 111.511C96.0368 109.82 98.3841 107.934 100.318 106.296L112.072 96.3371C111.269 93.7375 110.315 90.3885 109.337 87.7954C109.287 87.7079 109.034 87.5695 108.945 87.6039C106.695 88.4831 107.911 92.6159 108.022 94.3736C107.469 95.0534 106.55 95.962 105.924 96.6175C105.811 97.6674 105.704 98.7158 105.602 99.7671C105.568 100.113 105.261 100.374 104.917 100.224C104.467 99.6667 104.792 97.9492 104.873 97.1869L105.346 92.7106C105.408 92.1233 105.584 90.94 105.446 90.3986C104.871 88.1389 104.233 85.8821 103.604 83.636C103.555 83.4632 103.468 83.4403 103.332 83.3435C102.074 83.1699 101.546 85.355 101.32 86.2378L103.651 91.0992C103.342 93.9555 102.747 96.8269 102.445 99.6918C102.405 100.073 102.299 100.471 101.979 100.704C101.688 100.728 101.8 100.74 101.52 100.593C101.425 100.446 101.365 100.407 101.384 100.219C101.475 99.3282 101.632 98.3623 101.76 97.4816L102.664 91.2699L98.4445 82.4822C97.576 83.0401 96.7599 84.2671 97.0959 85.3457C97.32 86.065 97.8118 86.975 98.1403 87.6742L100.357 92.3907C100.086 94.9057 99.4243 97.5168 99.1284 100.04C99.0757 100.489 99.055 100.793 98.5984 100.958C98.2927 100.909 98.4262 100.967 98.1827 100.775C97.9652 100.344 98.4159 98.1887 98.5108 97.61L99.3456 92.5349C98.6467 91.0096 97.9328 89.4914 97.204 87.9811C96.9988 87.4368 96.6176 86.696 96.3599 86.156C95.9978 86.1761 95.3388 85.9595 95.0937 85.7078L95.0178 85.9086C94.6984 85.8936 94.3111 85.9058 94.0271 85.7867C94.2445 85.1564 94.4429 84.8387 94.7846 84.2714C92.3346 82.9612 91.1753 81.134 90.827 78.4053C90.0488 78.5358 87.4653 78.3329 87.1107 78.5925L87.0789 78.6671C87.1291 78.188 87.1301 77.7047 87.0816 77.2249C86.7514 73.957 84.2064 71.3513 80.9469 70.9433Z" fill="white"/>
<path d="M80.9467 70.9433C78.5585 70.6444 76.183 71.585 74.6471 73.4378C73.1112 75.2901 72.6274 77.7986 73.3642 80.0891C73.3882 80.1637 73.4134 80.2376 73.4398 80.3114C73.524 80.5459 73.6208 80.7761 73.7295 81.0013C73.6146 81.3986 73.474 81.9408 73.3324 82.3158C74.1472 83.2474 74.5588 84.4643 74.4767 85.6992C74.4229 86.5734 73.6867 89.2002 73.3981 90.1354L76.786 96.0603L76.9345 96.312C77.3724 97.1883 78.4379 97.7298 79.24 98.3013C80.9466 99.5183 82.4054 100.868 83.8945 102.323C84.0145 102.441 84.8443 102.687 85.1005 102.823L93.1217 98.6842C93.6868 96.5379 94.3028 94.3026 94.8023 92.1347C94.8943 91.7346 94.5962 90.8209 94.4921 90.3727C94.7963 90.3333 95.154 90.3412 95.4648 90.3376L95.4967 90.3505C95.5026 90.3441 95.5084 90.3376 95.5144 90.3311C96.1533 90.0873 97.0325 88.1066 97.2038 87.9811C96.9985 87.4368 96.6174 86.696 96.3597 86.156C95.9976 86.1761 95.3386 85.9595 95.0935 85.7078L95.0175 85.9086C94.6981 85.8936 94.3109 85.9058 94.0269 85.7867C94.2443 85.1564 94.4426 84.8387 94.7844 84.2714C92.3344 82.9612 91.1751 81.134 90.8267 78.4053C90.0486 78.5358 87.4651 78.3329 87.1105 78.5925L87.0786 78.6671C87.1289 78.188 87.1298 77.7047 87.0814 77.2249C86.7512 73.957 84.2062 71.3513 80.9467 70.9433Z" fill="white"/>
<path d="M80.947 70.9433C78.5588 70.6444 76.1833 71.585 74.6474 73.4378C73.1114 75.2901 72.6276 77.7986 73.3645 80.0891C73.3885 80.1637 73.4136 80.2376 73.44 80.3114C73.5243 80.5459 73.6211 80.7761 73.7297 81.0013C75.1008 83.834 78.1848 85.4138 81.2853 84.8717C84.3859 84.3295 86.7507 81.7973 87.0789 78.6671C87.1292 78.188 87.1301 77.7047 87.0816 77.2249C86.7515 73.957 84.2065 71.3513 80.947 70.9433Z" fill="#FE9701"/>
<path d="M74.1985 79.3999C74.5473 80.8858 75.4302 82.1207 76.6927 82.9762C78.0422 83.8791 79.6956 84.2082 81.2879 83.8898C82.8612 83.5707 84.2429 82.6391 85.1286 81.301C86.0361 79.9384 86.3566 78.2675 86.0176 76.6655C85.6864 75.0813 84.7296 73.6973 83.3639 72.8274C82.4164 72.2229 80.7038 71.6512 79.589 71.9059C76.4518 72.0371 73.7322 75.0433 74.0178 78.3149C74.0208 78.3328 74.0237 78.3507 74.0266 78.3687C74.0707 78.7695 74.0891 79.0098 74.1985 79.3999Z" fill="white"/>
<path d="M79.5885 71.9053C76.4513 72.0365 73.7317 75.0427 74.0172 78.3142C74.0202 78.3322 74.0232 78.3501 74.0261 78.368L74.0994 78.2002C74.3546 78.1665 74.3437 78.2225 74.6272 78.368C75.8001 75.8201 77.4083 73.6701 79.5885 71.9053Z" fill="#060717"/>
<path d="M74.6276 78.3687C74.344 78.2231 74.355 78.1672 74.0998 78.2009L74.0265 78.3687C74.0705 78.7696 74.089 79.0098 74.1984 79.3999C74.2935 79.0808 74.4888 78.6807 74.6276 78.3687Z" fill="#000001"/>
<path d="M79.5112 74.7995C77.1855 74.6603 76.848 77.7655 78.8488 78.5464C80.8428 78.7989 81.613 75.8049 79.5112 74.7995Z" fill="#060717"/>
<path d="M95.0935 85.708L95.0175 85.9088C94.6981 85.8937 94.3109 85.9059 94.0269 85.7869L93.987 85.8708C92.8421 85.9812 92.0524 87.2061 92.1178 88.3227C92.1505 88.882 92.8479 89.8494 93.3133 90.1915L93.4122 90.2646C93.7875 90.3112 94.0811 90.3543 94.4605 90.3507L94.4921 90.3729C94.7963 90.3335 95.154 90.3414 95.4648 90.3378L95.4967 90.3507C95.5026 90.3442 95.5084 90.3378 95.5144 90.3313C96.1533 90.0875 97.0325 88.1068 97.2038 87.9813C96.9985 87.437 96.6174 86.6962 96.3597 86.1562C95.9976 86.1763 95.3386 85.9597 95.0935 85.708Z" fill="#EDEEF1"/>
<path d="M95.0935 85.708L95.0175 85.9088C94.4596 87.8307 95.1203 88.5622 95.4648 90.3378L95.4967 90.3507C95.5026 90.3442 95.5084 90.3378 95.5144 90.3313C96.1533 90.0875 97.0325 88.1068 97.2038 87.9813C96.9985 87.437 96.6174 86.6962 96.3597 86.1562C95.9976 86.1763 95.3386 85.9597 95.0935 85.708Z" fill="#EDEEF1"/>
<path d="M94.0271 85.7871L93.9872 85.871C93.5775 87.8883 94.1123 88.5093 94.4607 90.3509L94.4923 90.3731C94.7965 90.3337 95.1543 90.3416 95.465 90.338C95.1205 88.5624 94.4598 87.8309 95.0178 85.909C94.6983 85.894 94.3111 85.9062 94.0271 85.7871Z" fill="#1A1A2C"/>
<path d="M91.2944 85.3877C89.6784 85.7047 88.0985 86.1457 86.4534 86.3314C85.8218 86.4032 84.7198 86.0016 84.5503 86.7782C84.6069 87.0464 84.6389 87.0557 84.8504 87.2529C85.8451 87.3698 91.3375 86.946 91.6129 85.8617C91.5715 85.6143 91.4779 85.5627 91.2944 85.3877Z" fill="#060717"/>
<path d="M95.4648 90.3379C95.154 90.3415 94.7963 90.3336 94.4921 90.373C94.5962 90.8212 94.8943 91.7349 94.8023 92.135C94.3028 94.3029 93.6868 96.5382 93.1217 98.6845L85.1005 102.823C84.8443 102.687 84.0145 102.441 83.8945 102.323C82.4054 100.868 80.9466 99.5186 79.24 98.3016C78.4379 97.73 77.3724 97.1886 76.9345 96.3123C76.5934 96.2994 76.1731 96.2442 75.8742 96.3912C76.8514 98.2206 77.0689 97.8706 78.6621 99.0589C80.4112 100.363 82.3469 101.958 83.689 103.687C79.019 107.482 78.7022 110.868 76.97 116.339C75.6978 120.356 74.3607 124.398 73.1642 128.437H74.1688C74.1843 128.377 74.1999 128.316 74.2154 128.256C75.4603 124.3 76.7205 120.337 77.9721 116.383L79.2523 112.315C79.6433 111.068 79.9715 109.879 80.5615 108.719C82.2359 105.426 84.9013 103.935 88.0592 102.372C89.9925 101.415 92.0586 100.373 93.9593 99.335C94.6276 97.0825 95.2922 94.2462 95.8932 91.9357C95.7502 91.41 95.6181 90.8815 95.4967 90.3508L95.4648 90.3379Z" fill="#060717"/>
<path d="M120.44 98.0732C119.697 100.867 118.372 102.986 115.807 104.474C113.581 105.767 110.931 106.117 108.445 105.448C108.04 105.34 107.552 105.169 107.16 105.008C104.941 106.595 103.209 107.248 100.467 107.439C98.6962 108.931 96.8691 110.449 95.1201 111.966L94.2173 122.705C94.0828 124.288 93.8317 126.447 93.7805 127.998L133.786 127.999C132.236 123.609 130.996 119.021 129.462 114.616C129.144 113.702 128.755 112.756 128.484 111.834C128.064 110.883 127.709 109.907 127.274 108.959C125.538 105.17 123.236 101.186 120.44 98.0732Z" fill="#F0883E"/>
<path d="M89.9036 67.8281C89.1313 67.8541 88.0742 68.0177 87.316 68.1691L86.9906 68.2446C84.8537 68.815 82.7487 69.6358 80.9463 70.9435C84.2058 71.3514 86.7508 73.9571 87.081 77.2251C87.1295 77.7048 87.1285 78.1882 87.0783 78.6672L87.1101 78.5926C87.4647 78.333 90.0482 78.536 90.8264 78.4055C91.1747 81.1341 92.334 82.9614 94.784 84.2716C95.5319 83.6011 95.871 84.0751 96.2292 83.8607C96.4058 82.9334 97.7627 81.2288 98.7912 81.4447C99.2156 81.5336 99.8613 83.1787 100.059 83.6118C100.252 84.0321 100.458 84.4458 100.677 84.8532C101.005 83.8872 101.273 83.4225 102.053 82.7742C102.569 82.4866 102.764 82.3568 103.371 82.3332C103.951 81.6232 104.258 80.9613 104.576 80.1151C104.645 79.8921 104.646 79.7235 104.795 79.6239C105.79 80.3417 108.004 83.1801 108.957 83.416C109.746 82.5842 108.915 82.643 108.682 81.961C108.408 81.9008 105.363 78.7662 104.913 78.3137C104.945 76.6521 104.706 75.9622 104.049 74.5057L104.097 74.4111C103.894 74.3286 103.407 73.5806 103.24 73.3526L103.208 73.2163L103.009 73.1647L102.941 73.0206C100.262 70.5319 97.1647 70.208 94.0047 72.0195C92.183 70.7282 91.1577 69.6584 89.9036 67.8281Z" fill="white"/>
<path d="M89.9039 67.8281C89.1316 67.8541 88.0745 68.0177 87.3163 68.1691L86.9909 68.2446C84.854 68.815 82.749 69.6358 80.9466 70.9435C84.2061 71.3514 86.7511 73.9571 87.0813 77.2251L87.1915 77.461C88.3242 77.4137 89.6862 77.4503 90.8361 77.4503C90.8467 77.2968 90.8626 77.1433 90.8837 76.9906C91.196 74.7768 92.2533 73.3196 94.005 72.0195C92.1833 70.7282 91.158 69.6584 89.9039 67.8281Z" fill="white"/>
<path d="M102.941 73.0205C100.262 70.5319 97.1647 70.208 94.0047 72.0194C92.253 73.3196 91.1957 74.7768 90.8834 76.9905C90.8623 77.1433 90.8464 77.2968 90.8358 77.4502C89.6859 77.4502 88.3239 77.4137 87.1912 77.461L87.081 77.225C87.1295 77.7048 87.1285 78.1881 87.0783 78.6672L87.1101 78.5926C87.4647 78.333 90.0482 78.536 90.8264 78.4054C91.1747 81.1341 92.334 82.9613 94.784 84.2715C95.5319 83.601 95.871 84.075 96.2292 83.8606C96.0569 83.738 95.437 83.4762 95.2118 83.3665C94.1094 82.8265 93.3394 82.1617 92.6934 81.1133C91.8402 79.725 91.5809 78.0526 91.9736 76.4713C92.4038 74.7273 93.4196 73.5168 94.9323 72.606C97.4369 73.8976 99.9797 74.7158 102.848 74.5007L102.908 74.5165L103.068 74.771C103.933 76.4118 104.223 77.9486 103.657 79.768C103.629 79.8569 103.6 79.9451 103.569 80.0333C103.039 81.2976 102.557 81.9409 101.489 82.81C100.935 83.1837 100.658 83.3228 100.059 83.6118C100.252 84.032 100.458 84.4458 100.677 84.8531C101.005 83.8872 101.273 83.4225 102.053 82.7742C102.569 82.4866 102.764 82.3568 103.371 82.3331C103.951 81.6232 104.258 80.9613 104.576 80.1151C104.645 79.892 104.646 79.7235 104.795 79.6238C105.79 80.3417 108.004 83.1801 108.957 83.416C109.746 82.5841 108.915 82.6429 108.682 81.961C108.408 81.9007 105.363 78.7662 104.913 78.3136C104.945 76.6521 104.706 75.9622 104.049 74.5057L104.097 74.411C103.894 74.3286 103.407 73.5806 103.24 73.3526L103.208 73.2163L103.009 73.1647L102.941 73.0205Z" fill="#FE9701"/>
<path d="M102.848 74.5004C102.841 74.4847 102.834 74.4689 102.827 74.4531C101.413 72.2487 98.4409 71.3385 95.9872 72.1526C95.5638 72.2924 95.2852 72.4294 94.9325 72.6058C97.437 73.8973 99.9799 74.7156 102.848 74.5004Z" fill="#060717"/>
<path d="M87.1916 77.4615L87.0814 77.2256C87.1299 77.7053 87.129 78.1887 87.0787 78.6677L87.1105 78.5931C87.4652 78.3335 90.0486 78.5365 90.8268 78.406C90.4864 78.3235 87.6714 78.3644 87.1854 78.3673L87.1916 77.4615Z" fill="#FAA546"/>
<path d="M95.9853 74.9551C94.0165 75.0096 93.4949 77.9656 95.6697 78.7745C97.9204 78.6892 98.1594 75.5152 95.9853 74.9551Z" fill="#060717"/>
<path d="M108.958 83.4162C108.004 83.1803 105.79 80.3419 104.795 79.624C104.646 79.7237 104.645 79.8922 104.577 80.1153C104.258 80.9615 103.952 81.6234 103.372 82.3333C103.749 82.4545 104.268 82.6374 104.412 83.0569C105.121 85.1144 105.555 87.2987 106.187 89.3777C106.774 91.3089 106.191 93.0372 106.095 95.02L107.015 94.0677C106.876 92.4828 106.395 90.3329 106.77 88.8133C107.052 87.6673 108.649 85.7698 109.878 86.9638C110.452 87.4902 111.241 90.2382 111.397 90.9661L111.534 91.0084C112.265 90.5681 112.841 89.9112 113.181 89.1288C113.606 88.1292 113.612 87.0011 113.197 85.9971C112.707 84.806 111.648 83.9426 110.382 83.7023C109.942 83.6191 109.348 83.6005 108.958 83.4162Z" fill="white"/>
<path d="M104.955 74.2891L104.097 74.411L104.049 74.5056C104.707 75.9621 104.945 76.652 104.913 78.3136C105.363 78.7661 108.408 81.9007 108.682 81.9609C107.971 78.8141 106.866 76.8291 104.955 74.2891Z" fill="white"/>
<path d="M111.534 91.0081L111.397 90.9658C111.535 92.408 112.658 94.4317 112.879 95.9362C112.904 96.1083 112.993 96.6555 113.072 96.7918L113.054 96.7875L113.186 96.6792C113.277 96.2173 112.925 95.5755 112.786 95.0993C112.388 93.7375 111.897 92.3786 111.534 91.0081Z" fill="#1A1A2C"/>
<path d="M96.3595 86.156L95.6796 84.7139C95.3847 85.1248 95.304 85.2503 95.0933 85.7078C95.3384 85.9595 95.9974 86.1761 96.3595 86.156Z" fill="white"/>
<path d="M62.5108 38.2348C61.8078 32.8227 58.986 27.9106 54.6644 24.5769C50.3227 21.2349 44.8304 19.7543 39.397 20.4606C33.9227 21.1745 28.9641 24.0556 25.6337 28.4577C23.3377 31.466 21.7461 35.5091 21.5144 39.3025C21.4599 40.1669 21.4477 41.0335 21.4771 41.8992C22.3127 52.9941 30.4833 61.1011 41.6708 61.4756L43.9661 65.5076C44.1655 65.858 44.8677 67.1263 45.0772 67.3881C45.1905 67.6379 45.2328 67.6141 45.1798 67.8187L44.9517 67.97C44.9545 68.285 45.6402 69.3463 45.8361 69.6941C46.0505 69.5778 46.5196 69.3068 46.7241 69.2176L47.8366 71.1443L46.8395 71.7228C47.1494 72.2643 47.4815 72.8724 47.8014 73.4024L48.7992 72.8451C49.4289 73.9581 51.1074 77.1149 51.8691 77.8701C52.3196 78.3204 52.8791 78.6467 53.4931 78.8167C54.0267 78.9615 54.5131 78.983 55.056 78.874C55.112 74.0607 55.0568 69.1514 55.051 64.331L50.8198 64.3289L51.1863 64.119C52.316 64.1869 53.8883 64.1407 55.0503 64.1419C55.0446 63.3986 55.0438 62.6552 55.0481 61.9118L55.259 61.7875L55.254 64.1313L62.8178 64.1267C64.0278 64.1258 65.6977 64.1757 66.879 64.1077L66.2141 62.9276L66.6624 62.6314C66.4207 62.2074 65.986 61.3107 65.6532 61.0331C65.4516 61.1028 65.4617 61.1094 65.2522 61.0981C65.0406 60.9776 64.9646 60.7589 64.8513 60.5369L64.1304 59.2887L64.7214 58.9398C64.1806 57.9382 63.6599 57.3564 63.1441 56.4802C62.089 54.6884 61.0533 52.8384 60.0218 51.03C60.5562 50.0645 60.8539 49.3764 61.2656 48.3671L61.3187 48.29L61.3344 48.199C62.5524 45.5556 62.8737 41.1117 62.5108 38.2348Z" fill="#FDCE4B"/>
<path d="M62.5109 38.2348C61.8079 32.8227 58.9861 27.9106 54.6645 24.5769C50.3228 21.2349 44.8305 19.7543 39.3971 20.4606C33.9228 21.1745 28.9642 24.0556 25.6338 28.4577C23.3378 31.466 21.7462 35.5091 21.5145 39.3025C21.46 40.1669 21.4478 41.0335 21.4772 41.8992C22.3128 52.9941 30.4834 61.1011 41.6709 61.4756L43.9662 65.5076C44.1656 65.858 44.8678 67.1263 45.0773 67.3881C45.1906 67.6379 45.2329 67.6141 45.1798 67.8187L44.9517 67.97C44.9546 68.285 45.6403 69.3463 45.8362 69.6941C46.0506 69.5778 46.5197 69.3068 46.7242 69.2176L47.8367 71.1443L46.8396 71.7228C47.1495 72.2643 47.4816 72.8724 47.8015 73.4024L48.7993 72.8451C49.429 73.9581 51.1075 77.1149 51.8692 77.8701C52.3197 78.3204 52.8792 78.6467 53.4932 78.8167C54.0268 78.9615 54.5132 78.983 55.0561 78.874C55.1121 74.0607 55.0569 69.1514 55.0511 64.331L50.8199 64.3289C49.5295 64.9722 47.2557 66.3394 45.9961 67.0842C44.7315 64.9335 43.4921 62.7101 42.2533 60.5402C31.2624 60.2906 22.9512 52.5246 22.4269 41.4614L22.429 40.2162C22.7073 35.9585 23.9367 32.1135 26.623 28.7334C29.9074 24.5878 34.7204 21.9359 39.9803 21.3741C45.0959 20.8183 50.2259 22.2965 54.2614 25.4896C58.0443 28.5146 60.973 33.2614 61.5088 38.0998C61.7936 37.8944 61.9758 37.8564 62.3057 37.9862C62.3724 38.1253 62.3595 38.0782 62.3868 38.2313L62.5109 38.2348Z" fill="#060717"/>
<path d="M48.0863 43.5352C47.0046 44.2206 45.9746 44.449 44.7108 44.3457C44.0896 45.6766 43.3156 46.2375 42.1529 47.0872C42.5532 47.4767 42.7354 47.7009 43.0818 48.1454L43.2267 48.3535C42.8724 48.3521 42.3688 48.3009 42.0948 48.4781C44.6534 51.9448 47.0025 56.4033 49.1156 60.1797C49.5488 60.9549 50.8486 63.3307 51.1864 64.1194C52.3161 64.1873 53.8884 64.141 55.0504 64.1423C55.0447 63.3989 55.044 62.6556 55.0483 61.9122L55.2592 61.7879L57.028 60.7834C56.4599 59.8149 55.7225 58.6087 55.2362 57.6074L54.9665 57.1442C52.636 52.9963 49.9412 47.8987 48.0863 43.5352Z" fill="#FDCE4B"/>
<path d="M52.0388 63.6118C50.3367 60.3421 48.5599 57.112 46.7101 53.9239C45.7869 52.3324 44.31 49.8082 43.2262 48.3527C42.8719 48.3512 42.3684 48.3 42.0943 48.4772C44.6529 51.9439 47.002 56.4024 49.1151 60.1788C49.5484 60.954 50.8481 63.3299 51.1859 64.1185C52.3157 64.1864 53.8879 64.1402 55.0499 64.1415C55.0442 63.3981 55.0435 62.6547 55.0478 61.9113C54.0486 62.4845 53.0451 63.0513 52.0388 63.6118Z" fill="#060717"/>
<path d="M55.1643 57.7959L55.1242 57.8391C54.9979 58.301 55.0302 61.2251 55.0998 61.7899L55.2189 61.6226C55.2856 61.0989 55.3028 58.2747 55.1643 57.7959Z" fill="#EECB72"/>
<path d="M43.6406 38.5808C42.2247 35.9554 39.7451 32.4715 36.9218 31.2282C36.0044 30.8244 34.666 31.5489 34.4601 32.5372C34.123 34.1583 35.0963 35.8892 35.909 37.2228C37.6391 39.8747 40.694 43.1771 43.7461 44.1535C43.1651 45.0913 42.3696 45.8272 41.4328 46.4076C40.8647 45.8966 40.0535 45.3022 39.3577 44.9775L39.0765 44.8163C37.434 43.896 34.7614 43.1524 32.8749 43.638C32.3348 43.777 31.7151 44.2661 31.9661 44.883C32.4101 45.9743 33.8052 46.726 34.7994 47.247C36.6285 48.1334 38.8061 48.4421 40.7457 47.7518C40.9193 47.6891 41.0914 47.6219 41.2614 47.5506L41.8345 48.1667L42.0942 48.4777C42.3682 48.3005 42.8717 48.3517 43.226 48.3531L43.0812 48.1449C42.7347 47.7005 42.5525 47.4763 42.1523 47.0868C43.315 46.2371 44.0889 45.6762 44.7101 44.3453C45.974 44.4486 47.004 44.2202 48.0856 43.5347C49.9405 47.8983 52.6354 52.9959 54.9658 57.1438C55.105 56.8881 55.0584 55.6897 55.0569 55.3406C54.8023 54.8185 54.491 54.2672 54.2134 53.7539C52.299 50.2048 50.5223 46.6517 48.8976 42.9615C49.8566 42.0775 50.1672 41.641 50.8321 40.5468C50.9397 40.2567 51.3249 39.5353 51.4791 39.2267L51.7294 38.5264C51.043 38.4839 51.4762 38.8116 50.8508 38.1867L50.457 39.1754L50.4326 39.164C50.2963 39.4446 50.1457 39.7767 49.9915 40.0428L49.782 40.3872C49.6249 40.6532 49.4922 40.8851 49.3115 41.1375L49.234 41.1971C49.0016 41.5345 48.7871 41.7229 48.4931 42.0062L48.0204 40.7046C47.6847 40.9138 47.5498 41.0151 47.1603 41.1256L47.1517 41.1656C47.3196 41.6187 47.5219 42.2193 47.7155 42.6497C46.6805 43.2146 46.0844 43.4239 44.8815 43.3859C44.9088 42.5163 44.8672 42.1034 44.6915 41.2503L44.6613 41.178C43.9986 41.0936 44.1678 41.0185 43.6478 40.8383L43.5617 40.8093C43.4678 40.643 43.1536 39.8582 43.0632 39.6475L42.9657 39.366C43.0066 39.0789 42.9563 38.9761 43.056 38.6771C43.2942 38.5371 43.3186 38.5876 43.6406 38.5808Z" fill="#060717"/>
<path d="M42.2045 37.9919C40.9478 35.9539 38.7228 32.9676 36.3937 32.0779C35.7805 31.8434 35.3637 32.6257 35.3817 33.1683C35.4598 35.5658 37.4689 37.7618 38.9387 39.5325C40.1129 40.8668 42.3171 42.7388 43.9503 43.1884C43.9087 42.4924 43.8592 41.7504 43.5924 41.0959L43.5623 40.8089C43.4683 40.6426 43.1541 39.8578 43.0638 39.6471L42.9662 39.3656L42.802 39.0871C42.6607 38.7379 42.4175 38.3004 42.2045 37.9919Z" fill="#FDCE4B"/>
<path d="M39.0502 45.8862C37.1852 44.8659 34.9954 44.1385 32.8636 44.6156C34.7228 46.7423 37.7677 47.6532 40.484 46.8531C40.1161 46.5926 39.6584 46.2485 39.284 46.0134L39.0502 45.8862Z" fill="#FDCE4B"/>
<path d="M43.0818 48.1455C42.6816 48.1521 42.2297 48.1487 41.8352 48.1673L42.0948 48.4783C42.3688 48.3011 42.8724 48.3523 43.2267 48.3537L43.0818 48.1455Z" fill="#1A1A2C"/>
<path d="M39.358 44.9776L39.0769 44.8164C39.069 45.1454 39.0718 45.5657 39.0503 45.8861L39.2842 46.0134C39.282 45.6699 39.2282 45.2781 39.358 44.9776Z" fill="#1A1A2C"/>
<path d="M60.2894 48.3477L60.2384 48.3575C59.8353 49.3524 59.4279 50.1165 58.9129 51.0624L62.6485 57.5759L57.8685 60.3049C56.9913 58.8081 56.1356 57.2988 55.3014 55.7776C55.287 55.7392 55.089 55.3967 55.0575 55.3406C55.0589 55.6897 55.1055 56.8881 54.9664 57.1438L55.2361 57.6069C55.7224 58.6082 56.4598 59.8145 57.0279 60.783L55.259 61.7875L55.254 64.1312L62.8178 64.1266C64.0278 64.1258 65.6977 64.1757 66.879 64.1076L66.2141 62.9276L66.6624 62.6313C66.4207 62.2074 65.986 61.3106 65.6532 61.0331C65.4516 61.1027 65.4617 61.1094 65.2522 61.098C65.0406 60.9776 64.9646 60.7588 64.8513 60.5369L64.1304 59.2887L64.7214 58.9398C64.1806 57.9381 63.6599 57.3564 63.1441 56.4802C62.089 54.6884 61.0533 52.8383 60.0218 51.0299C60.5562 50.0645 60.8539 49.3764 61.2656 48.367C60.9328 48.3747 60.62 48.3603 60.2894 48.3477Z" fill="#060717"/>
<path d="M55.0575 55.3398C55.059 55.6889 55.1056 56.8873 54.9664 57.1431L55.2361 57.6062C55.2871 56.9966 55.206 56.4262 55.3014 55.7769C55.2871 55.7384 55.0891 55.3959 55.0575 55.3398Z" fill="#35364B"/>
<path d="M50.469 32.516C50.0107 32.4477 49.8442 32.4016 49.3873 32.5151C48.2476 33.3263 47.904 34.5174 47.6773 35.8576C47.5826 36.4082 47.5246 36.9644 47.503 37.5226C47.3962 37.7708 47.4399 38.3071 47.4456 38.6034C47.2635 38.5938 46.6681 38.582 46.5383 38.5078L46.5297 38.5861C46.5648 38.8569 46.6028 39.0556 46.5763 39.3309L46.6301 39.3469L46.9012 40.449L46.9464 40.4687C47.0103 40.6796 47.0784 40.9256 47.1609 41.1257C47.5504 41.0152 47.6852 40.9139 48.0209 40.7047L48.4936 42.0063C48.7877 41.7229 49.0022 41.5346 49.2346 41.1972L49.312 41.1376C49.4928 40.8852 49.6255 40.6533 49.7826 40.3873L49.992 40.0429C50.1462 39.7768 50.2969 39.4447 50.4331 39.1641L50.4575 39.1755L50.8513 38.1868L50.8721 38.1317C51.4072 36.6465 52.0061 33.5639 50.469 32.516Z" fill="#FDCE4B"/>
<path d="M47.5033 37.5225C47.3964 37.7707 47.4401 38.307 47.4459 38.6033C47.2637 38.5936 46.6683 38.5819 46.5385 38.5077L46.5299 38.586C46.565 38.8568 46.6031 39.0555 46.5765 39.3308L46.6303 39.3468L46.9015 40.4489L46.9466 40.4686C47.0105 40.6795 47.0786 40.9254 47.1611 41.1256C47.5506 41.0151 47.6854 40.9138 48.0211 40.7046L48.0183 40.6453C47.783 40.0049 47.6123 39.3424 47.509 38.6678L47.5033 37.5225Z" fill="#060717"/>
<path d="M46.9463 40.4682C47.7626 40.5401 47.8321 39.3992 47.0596 39.1602C46.7447 39.2041 46.848 39.1468 46.63 39.3464L46.9011 40.4485L46.9463 40.4682Z" fill="#060717"/>
<path d="M62.3868 38.2316C62.3595 38.0784 62.3724 38.1255 62.3057 37.9865C61.9758 37.8567 61.7936 37.8947 61.5088 38.1001C61.648 39.2174 61.6666 39.9747 61.7061 41.0966L61.7032 41.4715C61.681 41.6171 61.6523 41.7774 61.6358 41.9222L61.6616 42.0885C61.6537 42.3329 61.653 42.7449 61.615 42.9726C61.3288 44.7762 61.0182 46.5351 60.2901 48.228L60.2894 48.3479C60.6201 48.3606 60.9328 48.375 61.2657 48.3673L61.3187 48.2902L61.3345 48.1992C62.5525 45.5558 62.8738 41.1119 62.5109 38.235L62.3868 38.2316Z" fill="#070815"/>
<path d="M48.069 32.3506C46.78 34.0731 46.4472 36.4067 46.5383 38.5084C46.6681 38.5826 47.2635 38.5943 47.4457 38.604C47.4399 38.3077 47.3962 37.7714 47.503 37.5232C47.5246 36.9649 47.5827 36.4087 47.6773 35.8582C47.904 34.518 48.2476 33.3269 49.3873 32.5157C49.1463 32.3722 48.4255 32.3824 48.069 32.3506Z" fill="#060717"/>
<path d="M51.7903 32.3887C51.441 32.3994 50.7395 32.3715 50.4691 32.5159C52.0062 33.5638 51.4073 36.6464 50.8722 38.1316L50.8514 38.1866C51.4769 38.8116 51.0436 38.4838 51.7301 38.5264L51.7824 38.4486L51.9783 37.7643L52.0034 37.7034C52.0206 37.6476 52.0371 37.5914 52.0529 37.5351C52.4976 35.9108 52.664 33.9015 51.7903 32.3887Z" fill="#060717"/>
<path d="M51.4794 39.227C51.9141 39.1665 52.4405 39.096 52.5783 38.6237L52.4621 38.4919C52.1579 38.4001 52.1084 38.4202 51.7821 38.449L51.7297 38.5267L51.4794 39.227Z" fill="#FDCE4B"/>
<path d="M51.4609 32.0395C50.5414 31.2996 49.1728 31.2142 48.3164 32.0992L48.0689 32.35C48.4254 32.3817 49.1463 32.3715 49.3873 32.515C49.8442 32.4016 50.0106 32.4476 50.4689 32.516C50.7394 32.3715 51.4409 32.3995 51.7902 32.3888C51.6912 32.2658 51.5721 32.1526 51.4609 32.0395Z" fill="#060717"/>
<path d="M51.4609 32.04C51.1267 32.2457 48.7051 32.2579 48.3164 32.0998L48.0689 32.3505C48.4254 32.3823 49.1463 32.3721 49.3873 32.5156C49.8442 32.4021 50.0106 32.4482 50.4689 32.5165C50.7394 32.3721 51.4409 32.4 51.7902 32.3893C51.6912 32.2664 51.5721 32.1531 51.4609 32.04Z" fill="#1A1A2C"/>
<path d="M43.6411 38.5806C43.319 38.5875 43.2946 38.5369 43.0565 38.677C42.9568 38.9759 43.007 39.0787 42.9661 39.3658L43.0636 39.6473C43.154 39.8581 43.4682 40.6428 43.5622 40.8091L43.6482 40.8381C44.1683 41.0183 43.999 41.0935 44.6618 41.1778C44.5814 40.9315 44.5248 40.7117 44.4602 40.4617L44.4007 40.3981C44.2321 39.858 43.9789 39.3078 43.7537 38.7855L43.6411 38.5806Z" fill="#060717"/>
<path d="M43.754 38.7861C43.6687 39.265 43.574 40.2417 44.0689 40.4993C44.3157 40.4704 44.2317 40.5235 44.401 40.3987C44.2325 39.8587 43.9793 39.3085 43.754 38.7861Z" fill="#060717"/>
<path d="M46.5766 39.3311C46.0049 39.7685 46.3901 40.5581 46.9015 40.4492L46.6304 39.347L46.5766 39.3311Z" fill="#FDCE4B"/>
<path d="M22.4292 40.2158L22.427 41.461C22.6931 41.3229 23.0353 41.1738 23.3121 41.0448C23.0288 40.7654 22.7218 40.4875 22.4292 40.2158Z" fill="white"/>
<path d="M58.7311 0H58.5202C53.2432 6.00804 48.1031 12.258 42.8138 18.2325L25.9483 9.08472L28.197 24.9236C26.5179 25.1089 24.7074 25.4026 23.0204 25.6443L13.9711 26.9423C12.5631 27.1443 10.876 27.4323 9.49526 27.5748C13.4532 31.443 17.6343 35.3915 21.5148 39.3025C21.7465 35.509 23.3381 31.4659 25.6342 28.4576C28.9645 24.0555 33.9231 21.1744 39.3974 20.4605C44.8309 19.7542 50.3231 21.2349 54.6648 24.5769C58.9865 27.9105 61.8083 32.8226 62.5112 38.2347C62.8741 41.1116 62.5528 45.5555 61.3349 48.1989L61.3191 48.2899C62.7171 48.5376 67.4597 48.1465 68.418 48.46L69.0091 48.1985C69.6776 47.8858 70.3497 47.5815 71.0261 47.2856L71.2563 47.1717C71.176 45.9358 71.2183 44.2568 71.214 42.9904C71.1989 40.7594 71.1968 38.5283 71.2076 36.2972L71.12 36.2332C70.6847 36.2177 66.4771 34.8882 65.8846 34.6593C67.6412 32.8079 69.3304 30.8358 71.0899 28.9765C71.577 29.0354 72.163 29.0508 72.6601 29.0764C72.6902 28.7998 72.7633 28.452 72.6586 28.2103C72.414 28.0478 72.4018 28.1022 72.0575 28.0824L72.0296 28.0482L72.0489 27.927C72.371 27.5494 73.6167 26.1032 73.9416 25.9286L74.0728 25.9962C74.75 25.8753 74.9826 25.7098 74.6517 25.0782C76.8583 22.4872 79.6032 19.6313 81.9328 17.0762C79.2777 17.6509 76.159 18.1433 73.4611 18.6368L56.9286 21.6578C57.1854 19.795 57.275 17.3033 57.4572 15.3688C57.9364 10.28 58.2175 5.07923 58.7311 0Z" fill="#FDCE4B"/>
<path d="M72.057 28.0831C71.2328 28.0305 70.375 27.9888 69.5551 27.9229L69.4992 28.8913C69.9934 28.9237 70.6038 28.9803 71.0894 28.9772C71.5764 29.0362 72.1624 29.0515 72.6595 29.0771C72.6896 28.8006 72.7628 28.4528 72.6581 28.2111C72.4135 28.0486 72.4013 28.103 72.057 28.0831Z" fill="#060717"/>
<path d="M73.5138 22.8008L72.6477 23.2351C72.8714 23.6756 73.8456 25.5472 73.9414 25.9288L74.0726 25.9964C74.7499 25.8755 74.9824 25.71 74.6516 25.0784L73.5138 22.8008Z" fill="#060717"/>
<path d="M71.2072 36.2974L71.1197 36.2334C71.0042 36.62 71.0179 40.2664 71.0322 40.8649C71.0817 42.9115 70.9533 45.2611 71.0257 47.2858L71.256 47.1719C71.1757 45.936 71.218 44.257 71.2137 42.9906C71.1986 40.7595 71.1965 38.5284 71.2072 36.2974Z" fill="#EECB72"/>
<path d="M69.0089 48.1986C68.0937 48.1071 66.2058 48.1579 65.2324 48.165C64.1414 48.173 62.3827 48.1154 61.3347 48.199L61.3189 48.29C62.7169 48.5377 67.4596 48.1466 68.4179 48.4601L69.0089 48.1986Z" fill="#EECB72"/>
<path d="M21.4772 41.8994L5.86908 49.2158L26.7356 55.0528C23.8944 60.5572 21.0497 66.2132 18.1433 71.6714L31.6763 66.1862C33.0255 72.0199 34.5884 77.9219 35.8932 83.7457C36.6886 82.457 37.5293 80.8592 38.281 79.511L42.5998 71.7653L44.1857 68.9225C44.403 68.5325 44.8291 67.7283 45.0773 67.3883C44.8678 67.1265 44.1656 65.8582 43.9662 65.5078L41.6709 61.4758C30.4834 61.1013 22.3128 52.9942 21.4772 41.8994Z" fill="#FDCE4B"/>
<path d="M73.4394 80.3115L71.2398 80.3158C71.2254 81.223 71.125 85.0883 71.3101 85.7172C71.224 85.9123 71.1472 86.1023 71.0404 86.2866C70.3468 87.7962 69.641 89.2993 68.9222 90.7966C69.184 92.5443 69.4315 94.3464 69.7213 96.0862L69.7478 96.3128C70.0814 98.5696 70.445 99.6797 71.1731 101.82L72.9512 107.04C73.2126 107.808 73.7433 109.245 73.9273 109.993C70.6925 116.137 67.3098 122.284 64.1193 128.437H73.1639C74.3603 124.398 75.6974 120.356 76.9697 116.339C78.7018 110.868 79.0187 107.481 83.6886 103.687C82.3466 101.958 80.4108 100.362 78.6617 99.0587C77.0685 97.8704 76.851 98.2203 75.8739 96.391C76.1728 96.2439 76.593 96.2992 76.9342 96.3121L76.7856 96.0604L73.3977 90.1355C73.6864 89.2003 74.4225 86.5735 74.4764 85.6993C74.5584 84.4644 74.1469 83.2474 73.332 82.3159C73.4736 81.9408 73.6143 81.3987 73.7291 81.0014C73.6204 80.7762 73.5237 80.546 73.4394 80.3115Z" fill="white"/>
<path d="M73.4395 80.3115L71.2398 80.3158C71.2255 81.223 71.1251 85.0883 71.3101 85.7172C71.5296 85.2762 72.437 83.1987 72.6981 83.0918C74.3794 84.6372 72.866 88.4057 72.3602 90.2237C73.2426 91.9046 74.6943 94.4626 75.691 96.0847L75.8739 96.391C76.1728 96.2439 76.5931 96.2992 76.9342 96.3121L76.7857 96.0604L73.3978 90.1355C73.6864 89.2003 74.4226 86.5735 74.4764 85.6993C74.5585 84.4644 74.1469 83.2474 73.3321 82.3159C73.4737 81.9408 73.6143 81.3987 73.7292 81.0014C73.6205 80.7762 73.5237 80.546 73.4395 80.3115Z" fill="#060717"/>
<path d="M76.9342 96.3123L76.7857 96.0605C76.3708 96.0914 76.1072 96.0957 75.691 96.0849L75.8739 96.3911C76.1728 96.2441 76.5931 96.2994 76.9342 96.3123Z" fill="#1A1A2C"/>
<path d="M57.5208 96.0283L57.4757 96.308C56.6673 102.554 59.2818 107.771 64.7461 110.9C63.0798 116.545 62.1961 122.356 60.7809 127.996L63.2613 128.005L63.0576 128.437H64.1199C67.3103 122.284 70.6931 116.137 73.9279 109.994C73.7439 109.246 73.2132 107.808 72.9518 107.041L71.1736 101.821C70.4456 99.6799 70.0819 98.5698 69.7484 96.313L69.7219 96.0864L61.4752 96.0986C60.7465 96.1008 58.0416 96.1517 57.5208 96.0283Z" fill="#060717"/>
<path d="M69.768 100.7C67.5028 103.771 65.9384 107.294 64.7456 110.9C63.0793 116.545 62.1956 122.356 60.7804 127.996L63.2608 128.005C64.2305 126.4 65.5267 123.747 66.4362 122.033L72.8991 109.864L69.768 100.7Z" fill="#F0883E"/>
<path d="M57.5201 96.0283L57.4749 96.308C61.3332 96.2011 65.8593 96.2765 69.7477 96.313L69.7212 96.0864L61.4745 96.0986C60.7458 96.1008 58.0409 96.1517 57.5201 96.0283Z" fill="#1A1A2C"/>
<path d="M71.2242 71.9912L70.9437 72.4953C70.4746 73.4298 70.0636 74.3922 69.7136 75.3775C67.0338 76.1756 65.0591 77.6199 63.6712 80.0876L63.5557 80.3206C62.436 82.5853 62.1821 84.9095 62.847 87.36C59.9664 89.6569 58.2356 92.3813 57.5205 96.0279C58.0412 96.1512 60.7461 96.1003 61.4749 96.0982L69.7215 96.086C69.4317 94.3462 69.1842 92.5441 68.9224 90.7964C69.6411 89.2991 70.3469 87.796 71.0406 86.2864C71.1474 86.1021 71.2242 85.9121 71.3103 85.717C71.1252 85.0881 71.2256 81.2228 71.24 80.3156L73.4396 80.3113C73.4132 80.2375 73.388 80.1636 73.3641 80.089L71.2242 80.1069V71.9912Z" fill="#060717"/>
<path d="M71.2242 71.9912L70.9437 72.4953C70.4746 73.4298 70.0636 74.3922 69.7136 75.3775C67.0338 76.1756 65.0591 77.6199 63.6712 80.0876L63.5557 80.3206L71.0183 80.3156C71.0398 82.3057 71.047 84.2964 71.0406 86.2864C71.1474 86.1021 71.2242 85.9121 71.3103 85.717C71.1252 85.0881 71.2256 81.2228 71.24 80.3156L73.4396 80.3113C73.4132 80.2375 73.388 80.1636 73.3641 80.089L71.2242 80.1069V71.9912Z" fill="#060717"/>
<path d="M55.2593 61.7881L55.0484 61.9124C55.0441 62.6557 55.0448 63.3991 55.0506 64.1425C53.8886 64.1412 52.3163 64.1875 51.1866 64.1195L50.82 64.3294L55.0513 64.3315C55.057 69.1519 55.1123 74.0612 55.0563 78.8746L55.2471 78.866C55.7162 78.7183 56.0749 78.5834 56.5095 78.3403C59.4454 76.701 62.3697 75.0415 65.2934 73.38C66.8807 72.4506 68.3483 71.9486 68.9064 70.0275C69.5261 67.8944 68.0679 66.2205 67.0715 64.4128L66.9783 64.3266L66.9826 64.2665L66.8793 64.1082C65.6979 64.1763 64.0281 64.1264 62.818 64.1272L55.2543 64.1318L55.2593 61.7881Z" fill="#060717"/>
<path d="M77.8515 64.3418C75.5609 66.0179 73.6023 68.1056 72.0756 70.4983C71.8554 70.8436 71.3662 71.6426 71.2242 71.9922V80.1079L73.3641 80.09C72.6272 77.7995 73.111 75.291 74.647 73.4387C76.1829 71.5859 78.5584 70.6453 80.9466 70.9442C82.7489 69.6365 84.854 68.8157 86.9909 68.2453L86.9867 64.3359L77.8515 64.3418Z" fill="#060717"/>
<path d="M102.948 64.2773C101.118 64.3401 99.1389 64.3122 97.3001 64.3174L87.207 64.3346C87.2036 64.9454 87.0433 67.7987 87.3033 68.1579C87.3067 68.1626 87.3122 68.1653 87.3166 68.1691C88.0748 68.0176 89.1319 67.854 89.9042 67.8281C91.1583 69.6584 92.1836 70.7281 94.0053 72.0194C97.1653 70.2079 100.263 70.5318 102.942 73.0205C103.071 70.8345 102.924 68.5389 102.978 66.3401C102.994 65.6822 102.994 64.9261 102.948 64.2773Z" fill="#060717"/>
<path d="M68.4174 48.4601C67.4591 48.1466 62.7164 48.5377 61.3184 48.29L61.2654 48.3671C60.8536 49.3765 60.556 50.0646 60.0216 51.03C61.053 52.8384 62.0888 54.6885 63.1439 56.4803C63.6597 57.3565 64.1804 57.9382 64.7212 58.9399L64.1302 59.2888L64.8511 60.537C66.8258 60.7387 68.8126 60.8728 70.7866 61.0618L71.0441 61.1306L71.2033 61.0677C71.217 60.177 71.1029 54.9317 71.2995 54.5042L71.1108 54.2489C70.7687 53.8889 70.0786 52.9792 69.7336 52.5491L66.9749 49.1322L68.4174 48.4601Z" fill="#FDCE4B"/>
<path d="M71.1108 54.249C70.9437 55.3673 71.1825 60.6402 70.9444 61.0132L70.7866 61.0619L71.0441 61.1307L71.2033 61.0678C71.217 60.1771 71.1029 54.9318 71.2995 54.5043L71.1108 54.249Z" fill="#EECB72"/>
<path d="M102.949 62.8716C98.728 60.6416 95.0158 59.6444 90.1612 59.8806C89.2495 59.925 88.0741 60.0314 87.2032 60.2701L86.8479 60.3351C84.0198 60.9286 80.5322 62.2928 78.2305 64.0694L77.8514 64.3406L86.9866 64.3348L86.9907 68.2441L87.3161 68.1687C87.3117 68.1649 87.3063 68.1622 87.3028 68.1575C87.0428 67.7983 87.2031 64.945 87.2065 64.3342L97.2996 64.3171C99.1384 64.3118 101.117 64.3397 102.947 64.277C102.994 64.9257 102.994 65.6818 102.978 66.3397C102.924 68.5386 103.071 70.8342 102.941 73.0201L103.009 73.1643L103.208 73.2159C103.141 72.668 103.18 70.9004 103.18 70.3012L103.187 64.3345L105.166 64.3279C105.023 64.2125 104.853 64.1051 104.699 64.002C104.176 63.6222 103.766 63.3717 103.216 63.0429L102.949 62.8716Z" fill="#060717"/>
<path d="M86.8483 60.335C84.0203 60.9285 80.5327 62.2927 78.231 64.0693C78.6771 64.1485 80.4817 64.1195 81.0528 64.1202L86.9865 64.1321C86.9921 63.2389 87 62.3436 86.9961 61.4507C86.9947 61.1356 87.0543 60.553 86.8483 60.335Z" fill="#060717"/>
<path d="M102.949 62.8721L102.974 64.1336L93.3937 64.107C91.7551 64.1036 89.7757 64.0485 88.1591 64.125C89.0534 64.2256 91.1884 64.1804 92.1534 64.1852L99.8812 64.2168C100.33 64.2168 102.651 64.1707 102.947 64.2774C102.994 64.9262 102.994 65.6823 102.978 66.3402C102.924 68.539 103.071 70.8346 102.941 73.0206L103.009 73.1647L103.208 73.2163C103.141 72.6685 103.18 70.9009 103.18 70.3017L103.187 64.3349L105.166 64.3283C105.023 64.213 104.853 64.1056 104.699 64.0025C104.176 63.6227 103.766 63.3721 103.216 63.0434L102.949 62.8721Z" fill="#1A1A2C"/>
<path d="M104.699 64.0021C104.176 63.6223 103.766 63.3717 103.216 63.043C103.192 63.4275 103.181 63.7382 103.183 64.1233C103.55 64.1272 104.439 64.1877 104.699 64.0021Z" fill="#060717"/>
<path d="M85.4689 40.6558C80.786 39.1329 75.9175 37.8058 71.207 36.2979C71.1962 38.5289 71.1984 40.76 71.2134 42.9911C71.2177 44.2575 71.1754 45.9365 71.2558 47.1724C75.8852 44.9651 80.7916 42.8 85.4689 40.6558Z" fill="#FDCE4B"/>
<path d="M71.3 54.5039C71.1034 54.9314 71.2175 60.1767 71.2038 61.0673L71.7877 61.1619C72.9612 61.1819 75.8341 61.4779 77.028 61.6149C75.1578 59.2427 73.2062 56.8503 71.3 54.5039Z" fill="#FDCE4B"/>
<path d="M70.787 61.0619C68.813 60.8729 66.8261 60.7388 64.8515 60.5371C64.9648 60.7591 65.0408 60.9778 65.2524 61.0983C65.4619 61.1096 65.4518 61.1029 65.6534 61.0333C65.9862 61.3108 66.4209 62.2076 66.6626 62.6316L66.2143 62.9278L66.8792 64.1078L66.9825 64.2661C67.6438 64.1214 70.244 64.1737 71.0466 64.1762C71.0517 63.1611 71.0509 62.1458 71.0445 61.1307L70.787 61.0619Z" fill="white"/>
<path d="M28.2199 76.7754C27.882 77.0042 25.4411 79.7407 25.0036 80.2212L16.6042 89.4521L17.9799 92.1714L18.6463 93.4967C21.7327 87.9117 25.1492 82.3704 28.2199 76.7754Z" fill="#FDCE4B"/>
<path d="M31.7995 81.5684C31.519 81.7548 25.6631 91.4353 24.9121 92.6559L26.0361 93.2819L28.1736 94.4573C29.2825 90.2234 30.6052 85.7987 31.7995 81.5684Z" fill="#FDCE4B"/>
<path d="M46.6826 90.6618C46.9903 90.4352 48.0175 90.6754 48.4077 90.4244C48.9277 90.0759 49.386 89.3616 49.5711 88.7779C49.8494 87.7603 48.9908 86.3848 47.9752 86.1288C46.3075 85.7079 45.2588 86.5684 44.827 88.1432C44.6577 88.7585 45.4188 89.6987 45.7638 90.215L44.875 90.9364L45.4819 91.6787C45.8233 91.4098 46.4165 90.9745 46.6826 90.6618Z" fill="#EDEEF1"/>
<path d="M46.6823 90.6626C46.3875 90.3843 46.3724 90.1297 46.0087 90.043L45.7634 90.2158L44.8747 90.9372L45.4815 91.6795C45.823 91.4105 46.4162 90.9752 46.6823 90.6626Z" fill="#060717"/>
<path d="M79.7476 54.5958C77.5639 54.5039 77.3049 54.7627 76.4244 56.7925C76.4827 56.9576 76.5493 57.1197 76.6239 57.2782C76.9664 57.9959 77.3307 58.7393 78.0933 59.0187C78.7987 59.0414 79.2844 59.0458 79.996 59.0065C80.5718 58.6564 81.0964 57.9136 81.2868 57.2774C81.5929 56.2542 80.7538 54.8669 79.7476 54.5958Z" fill="#EDEEF1"/>
<path d="M25.463 74.9238C25.1051 74.9697 23.4754 75.57 23.0637 75.7155L18.0205 77.5062L19.0605 78.8996L19.7649 79.8333C21.6248 78.1882 23.5802 76.556 25.463 74.9238Z" fill="#FDCE4B"/>
<path d="M79.1118 23.1104C78.914 23.2945 77.5692 25.399 77.3366 25.7583L78.1171 26.2704C78.3535 26.0525 79.6559 24.0025 79.9054 23.6187L79.1118 23.1104Z" fill="#060717"/>
<path d="M78.2114 32.113C78.1035 31.8967 77.9884 31.6493 77.8677 31.4434C77.572 31.5863 77.2095 31.7082 77.0669 31.9802L77.1713 32.1629L78.4714 34.7102L79.3361 34.2592C78.9764 33.5519 78.6097 32.7954 78.2114 32.113Z" fill="#060717"/>
<path d="M78.2116 32.113C78.1037 31.8967 77.9886 31.6493 77.8679 31.4434C77.5722 31.5863 77.2097 31.7082 77.0671 31.9802L77.1715 32.1629C77.5171 32.1675 77.8815 32.196 78.2116 32.113Z" fill="#060717"/>
<path d="M73.8127 31.2598C73.5327 31.5641 72.3394 33.4241 72.0425 33.8725L72.8124 34.3841C73.0425 34.1923 74.3306 32.1991 74.6046 31.793L73.8127 31.2598Z" fill="#060717"/>
<path d="M80.3409 28.5116L79.2682 28.4609L79.2288 29.4243L81.3664 29.532L82.3894 29.5647L82.4274 28.6158C81.7417 28.5666 81.0294 28.5435 80.3409 28.5116Z" fill="#060717"/>
<path d="M43.9033 89.1006L42.9536 89.239L43.1846 90.7937L44.1515 90.6302L43.9033 89.1006Z" fill="#060717"/>
<path d="M41.1695 90.7168C41.0447 90.8624 40.8596 91.3995 40.7786 91.6068L42.1931 92.1733C42.3365 91.9832 42.4922 91.5257 42.589 91.2819L41.1695 90.7168Z" fill="#060717"/>
<path d="M44.6361 93.832C44.3148 93.8571 44.0099 93.903 43.6907 93.9475C43.741 94.4581 43.8026 94.9672 43.8765 95.475C44.1907 95.4578 44.5192 95.4033 44.8327 95.3595L44.6361 93.832Z" fill="#060717"/>
<path d="M42.346 92.9268L41.1388 93.8841L41.7298 94.6134C41.968 94.4858 42.7276 93.8683 42.965 93.6805L42.346 92.9268Z" fill="#060717"/>
<path d="M45.7587 92.5029L45.6346 92.5058C45.4682 92.6765 45.3362 93.1182 45.2458 93.362L46.504 93.8318L46.6209 93.8468C46.7758 93.707 46.9257 93.215 47.0089 92.992L45.7587 92.5029Z" fill="#060717"/>
</g>
<defs>
<clipPath id="clip0_250_217">
<rect width="139" height="128.438" fill="white" transform="matrix(-1 0 0 1 139 0)"/>
</clipPath>
</defs>
</svg>
