<svg width="792" height="678" viewBox="0 0 792 678" fill="none" xmlns="http://www.w3.org/2000/svg">
<g clip-path="url(#clip0_256_598)">
<path d="M256.176 267.172C256.44 267.488 256.704 267.803 256.968 268.119C279.04 275.216 300.168 283.657 321.332 293.061C340.709 301.482 359.672 310.825 378.157 321.055C392.895 329.05 409.438 338.192 423.445 347.339C424.342 347.661 424.675 347.967 425.437 347.784C434.119 348.65 438.036 351.494 444.432 357.475C455.845 366.277 464.086 372.599 477.11 379.341C506.864 394.748 538.432 396.728 561.825 368.594C562.703 370.693 562.204 418.917 562.277 425.026L270.396 568.795L174.415 616.111C160.548 622.89 146.665 629.974 132.702 636.571C131.318 637.225 130.643 637.248 129.14 637.07L19.2729 627.453C23.1826 621.115 29.2392 613.08 33.5437 606.927L68.5253 557.357C73.1512 550.733 78.6631 543.378 82.9359 536.653C83.3664 535.876 84.1007 535.242 84.885 534.84C109.44 522.241 134.697 510.671 159.187 497.976C157.707 497.056 155.604 495.285 154.183 494.156C155.295 492.86 156.437 491.321 157.498 489.964C159.713 492.002 161.973 493.792 164.31 495.675C166.014 494.411 166.763 493.313 168.072 491.654C165.601 489.608 163.947 488.301 161.291 486.53L164.699 482.342C166.939 484.202 169.194 486.051 171.464 487.876C172.249 487.056 172.843 486.171 173.51 485.25C170.139 482.13 166.715 473.649 165.812 469.094C164.5 462.466 170.723 452.868 177.622 452.242C185.245 451.554 185.372 461.527 183.874 466.608C183.481 467.915 182.581 469.852 182.677 471.144L183.499 470.954C186.143 463.301 187.615 455.022 189.866 447.246C197.158 422.072 202.499 396.338 211.72 371.757C215.553 361.538 219.302 351.456 223.42 341.33C233.552 316.27 244.476 291.539 256.176 267.172Z" fill="#1C1410"/>
<path d="M256.176 267.172C256.44 267.488 256.704 267.803 256.968 268.119C279.04 275.216 300.168 283.657 321.332 293.061C340.709 301.482 359.672 310.825 378.157 321.055C392.895 329.05 409.439 338.192 423.446 347.339C424.343 347.661 424.675 347.967 425.437 347.784C434.119 348.65 438.036 351.494 444.433 357.475L303.959 426.724C301.862 430.846 298.183 442.691 296.59 447.478C292.849 458.715 289.143 470.111 285.253 481.325C282.294 489.856 279.428 500.876 276.005 509.036C264.947 510.954 254.034 513.266 243.015 515.292L129.417 536.576C136.694 527.62 144.643 519.067 152.068 510.223C155.07 506.646 158.241 503.44 160.967 499.647C160.422 499.005 159.824 498.533 159.187 497.976C157.707 497.056 155.605 495.285 154.184 494.156C155.295 492.86 156.438 491.321 157.498 489.964C159.713 492.002 161.973 493.792 164.311 495.675C166.015 494.411 166.763 493.313 168.072 491.654C165.601 489.608 163.947 488.301 161.292 486.53L164.699 482.342C166.939 484.202 169.194 486.051 171.464 487.876C172.249 487.056 172.844 486.17 173.51 485.25C170.139 482.13 166.715 473.649 165.813 469.094C164.501 462.466 170.723 452.868 177.622 452.242C185.245 451.554 185.372 461.527 183.874 466.608C183.482 467.915 182.581 469.852 182.677 471.144L183.5 470.954C186.144 463.301 187.615 455.022 189.867 447.246C197.158 422.072 202.5 396.338 211.721 371.757C215.554 361.538 219.302 351.456 223.421 341.33C233.552 316.27 244.476 291.539 256.176 267.172Z" fill="#FE9701"/>
<path d="M333.843 338.427C362.934 339.06 394.712 342.808 423.445 347.339C424.342 347.661 424.675 347.967 425.437 347.784C434.119 348.65 438.036 351.494 444.433 357.475L303.958 426.724C304.071 423.688 310.051 407.676 311.338 403.967L324.968 364.099C327.767 356.067 331.491 346.428 333.843 338.427Z" fill="white"/>
<path d="M173.51 485.25C170.139 482.129 166.715 473.649 165.812 469.094C164.5 462.466 170.723 452.868 177.622 452.242C185.245 451.554 185.372 461.526 183.874 466.608C183.481 467.915 182.581 469.852 182.676 471.143L183.499 470.954C187.115 467.497 190.499 465.66 195.698 463.564C210.029 457.791 230.133 471.948 217.737 486.774C214.419 490.741 203.655 491.433 198.976 490.849C192.663 490.323 186.553 488.638 180.418 487.191C178.234 486.673 175.361 485.347 173.51 485.25Z" fill="#1C1410"/>
<path d="M200.33 468.043C201.541 467.927 202.758 467.884 203.973 467.919C220.097 468.298 223.656 488.905 197.767 485.556C191.287 484.798 185.551 483.031 179.26 481.43C184.529 476.206 192.878 468.762 200.33 468.043Z" fill="#FE9701"/>
<path d="M178.1 457.412C178.485 457.571 178.643 457.772 178.982 458.058C180.566 462.064 177.096 474.322 174.167 476.557L173.654 475.946C169.791 467.458 168.282 462.4 178.1 457.412Z" fill="white"/>
<path d="M157.498 489.964C159.713 492.002 161.973 493.792 164.311 495.675C167.373 498.003 170.372 500.412 173.306 502.899L169.912 506.874C166.997 504.384 164.014 501.975 160.967 499.647C160.422 499.005 159.823 498.533 159.187 497.976C157.707 497.056 155.604 495.285 154.184 494.156C155.295 492.86 156.437 491.321 157.498 489.964Z" fill="#1C1410"/>
<path d="M164.699 482.343C166.939 484.203 169.194 486.051 171.464 487.876C173.764 489.682 178.355 493.132 180.102 495.227L177.132 499.025C173.813 496.488 171.195 494.435 168.072 491.654C165.601 489.609 163.947 488.302 161.292 486.531L164.699 482.343Z" fill="#1C1410"/>
<path d="M82.9359 536.654C85.3282 539.11 92.8487 556.24 94.715 560.169L114.055 600.919C116.463 605.988 130.574 634.275 130.353 636.58L129.14 637.071L19.2729 627.454C23.1826 621.116 29.2392 613.08 33.5437 606.928L68.5253 557.358C73.1512 550.734 78.6631 543.379 82.9359 536.654Z" fill="#1C1410"/>
<path d="M82.541 546.286C83.9058 548.084 92.1525 566.077 93.3247 568.622C102.876 589.348 113.862 610.473 123.033 631.227C117.733 631.065 110.702 630.175 105.267 629.661L74.5437 626.749C61.106 625.021 42.7535 623.695 29.1323 622.565C45.6635 597.438 65.2903 571.239 82.541 546.286Z" fill="white"/>
<path d="M133.057 65.4346C135.368 70.5822 141.354 80.1398 144.297 85.3203C147.46 90.8899 151.747 98.8658 155.199 103.974C156.397 102.548 156.059 102.495 157.542 102.041C158.897 102.512 159.929 103.893 160.962 104.997L157.878 108.988C158.573 110.114 159.326 111.288 159.988 112.425L164.536 107.412L168.419 110.788L162.596 117.35L164.898 120.953C169.667 116.239 173.701 110.949 181.771 110.588C188.473 110.288 200.979 118.021 194.037 125.613C190.91 129.033 179.575 129.199 175.461 128.364C174.117 128.176 170.925 127.691 169.897 127.921C169.547 128.893 169.855 129.511 170.135 130.527C171.514 133.204 173.3 133.356 176.325 134.35C185.317 137.303 194.899 139.527 203.899 142.263C234.024 151.419 266.238 159.906 295.51 171.541C309.875 177.253 324.067 183.388 338.069 189.939C340.237 190.961 349.155 195.631 350.759 195.525C349.35 194.497 347.564 193.263 346.232 192.194C351.448 175.326 357.079 157.235 361.999 140.249C364.239 132.407 366.584 124.595 369.032 116.816C370.881 110.832 372.423 101.764 378.547 98.9667C381.854 97.4563 385.112 97.1605 388.575 98.2931C394.415 101.122 401.418 106.517 406.79 110.313L435.36 130.43L461.452 148.756C466.36 152.207 471.36 155.607 476.063 159.332C479.009 161.668 480.456 167.039 479.547 170.629C473.943 192.758 466.108 214.514 459.94 236.5C476.635 229.467 493.152 220.312 509.835 213.093C512.047 212.135 514.17 210.561 516.622 210.841C519.348 210.457 522.62 208.492 525.245 207.484C539.991 201.825 551.449 189.96 567.897 195.291C569.772 190.624 572.019 189.559 576.961 189.632C578.682 190.014 580.225 190.373 581.977 190.621C585.844 191.254 611.712 195.739 612.524 195.294L612.725 194.573L613.038 195.593C614.744 196.28 616.113 196.438 617.582 197.33C621.991 202.03 619.183 209.503 618.36 215.524C637.069 222.372 633.283 247.438 634.091 264.002C634.261 271.247 635.132 279.499 634.961 286.405C636.141 287.221 637.525 287.981 637.676 289.394C638.256 294.89 638.117 301.113 638.306 306.628L639.115 331.401C639.246 335.158 639.571 339.341 639.49 343.065C639.436 346.031 639.041 348.981 638.314 351.856C636.497 351.896 634.637 351.823 632.815 351.78L632.537 353.02C631.334 355.916 629.601 358.563 627.432 360.826C622.029 366.45 615.169 369.037 607.485 369.12C594.29 369.261 589.719 361.13 581.648 353.115L581.281 352.574L579.997 351.43C578.234 352.224 574.946 351.912 572.951 351.794L572.704 352.685L572.379 352.716C569.509 357.74 566.841 361.792 563.484 366.518L563.461 366.928L562.939 366.965L561.825 368.595C538.433 396.729 506.865 394.749 477.111 379.342C464.086 372.599 455.845 366.277 444.433 357.475C438.036 351.494 434.119 348.651 425.437 347.785C424.675 347.968 424.343 347.662 423.446 347.34C409.439 338.192 392.895 329.05 378.157 321.055C359.672 310.825 340.709 301.483 321.333 293.062C300.169 283.658 279.04 275.217 256.968 268.12C256.704 267.804 256.44 267.488 256.176 267.172L256.606 265.836C254.785 264.147 244.154 261.509 241.303 260.694C204.045 250.147 165.998 242.622 127.531 238.19C119.185 237.22 109.075 235.88 100.776 235.378C102.119 222.428 107.25 201.193 109.733 187.766L133.057 65.4346Z" fill="#FE9701"/>
<path d="M346.232 192.194C351.448 175.326 357.079 157.235 361.999 140.248C364.239 132.407 366.583 124.595 369.032 116.816C370.881 110.832 372.423 101.764 378.547 98.9666C381.853 97.4562 385.112 97.1604 388.575 98.293C394.414 101.122 401.418 106.516 406.789 110.313L435.36 130.43L461.452 148.756C466.36 152.207 471.36 155.607 476.062 159.332C479.009 161.668 480.455 167.039 479.547 170.629C473.943 192.758 466.108 214.514 459.94 236.5C476.635 229.466 493.151 220.312 509.834 213.093C512.046 212.135 514.17 210.561 516.621 210.841C519.348 210.457 522.619 208.491 525.245 207.484C539.991 201.824 551.449 189.96 567.896 195.291C569.772 190.624 572.019 189.559 576.961 189.632C578.682 190.014 580.225 190.373 581.977 190.62C585.844 191.254 611.712 195.739 612.524 195.294L612.725 194.573L613.038 195.593C614.744 196.28 616.113 196.438 617.582 197.33C621.991 202.03 619.183 209.503 618.359 215.523C637.069 222.372 633.283 247.438 634.091 264.002C634.261 271.247 635.131 279.499 634.961 286.405C636.141 287.221 637.525 287.981 637.676 289.394C638.256 294.89 638.117 301.113 638.306 306.628L639.115 331.401C639.246 335.158 639.571 339.341 639.49 343.065C639.436 346.031 639.041 348.98 638.314 351.855C636.496 351.896 634.636 351.823 632.815 351.78L632.536 353.02C631.334 355.916 629.601 358.563 627.432 360.826C622.029 366.45 615.169 369.037 607.485 369.12C594.29 369.261 589.719 361.13 581.648 353.115L581.281 352.574L579.997 351.43C578.233 352.224 574.946 351.912 572.951 351.794L572.823 351.619L571.961 350.604C569.784 349.451 566.392 346.888 564.284 345.392C564.138 345.195 562.745 344.154 562.451 343.93C558.832 341.922 554.094 338.176 550.444 335.672C549.218 334.755 547.42 333.612 546.116 332.731C537.976 326.855 529.774 321.062 521.517 315.354C516.946 312.639 509.691 307.211 505.144 304L475.602 283.17L394.148 226.07C380.337 216.36 364.62 204.613 350.759 195.524C349.35 194.497 347.564 193.263 346.232 192.194Z" fill="#1C1410"/>
<path d="M576.961 189.631C578.682 190.014 580.225 190.373 581.977 190.62C585.844 191.254 611.712 195.739 612.524 195.293L612.725 194.573L613.038 195.593C614.743 196.279 616.112 196.437 617.582 197.33C621.991 202.029 619.183 209.502 618.359 215.523C637.069 222.372 633.283 247.438 634.091 264.001C634.261 271.247 635.131 279.499 634.961 286.405C636.141 287.221 637.525 287.98 637.676 289.394C638.256 294.89 638.117 301.113 638.306 306.627L639.114 331.4C639.246 335.157 639.571 339.34 639.49 343.065C639.435 346.03 639.041 348.98 638.314 351.855C636.496 351.896 634.636 351.823 632.815 351.779L632.536 353.02C631.334 355.915 629.601 358.562 627.432 360.826C622.029 366.45 615.169 369.037 607.485 369.119C594.29 369.261 589.719 361.13 581.648 353.114L581.281 352.573L579.997 351.43C578.233 352.223 574.946 351.912 572.951 351.794L572.823 351.619L571.961 350.603C570.955 349.099 565.015 342.907 563.449 341.221L561.805 339.45C562.594 338.016 562.339 334.29 562.32 332.451C556.538 326.352 521.699 287.798 518.249 286.333C514.034 284.545 504.196 286.272 498.747 285.217L498.171 285.103C496.69 283.867 495.278 282.287 493.936 280.877C500.677 279.92 507.642 279.503 514.421 278.782C515.272 278.691 516.556 277.721 516.888 276.987C517.453 275.734 517.348 275.82 517.039 274.697C514.015 271.778 492.71 277.311 487.397 275.519C483.255 274.122 482.822 273.239 480.769 269.601C484.458 269.539 515.19 265.836 517.317 264.806C517.89 264.019 518.292 263.407 518.195 262.38C518.141 261.831 517.828 261.252 517.371 260.955C515.229 259.56 487.637 263.936 483.553 264.457C481.82 262.266 481.024 261.522 480.977 258.658C482.52 257.035 511.892 253.064 516.436 252.033C526.204 249.817 533.505 258.773 539.995 264.478C547.211 270.826 554.616 278.74 562.227 284.905L563.623 286.116C563.441 284.041 563.248 281.759 564.319 279.913C564.18 279.727 562.37 277.968 562.103 277.702C552.315 269.407 542.926 259.36 533.01 251.188C529.491 248.286 523.079 244.323 518.98 241.384C521.927 239.494 529.982 231.204 532.844 228.333L536.657 224.972C531.974 221.108 522.055 214.663 516.621 210.84C519.348 210.457 522.619 208.491 525.245 207.484C539.991 201.824 551.449 189.96 567.896 195.291C569.772 190.624 572.019 189.559 576.961 189.631Z" fill="white"/>
<path d="M576.961 189.631C578.682 190.014 580.225 190.373 581.977 190.62C585.844 191.254 611.712 195.739 612.524 195.293L612.725 194.573L613.038 195.593C614.744 196.279 616.113 196.437 617.582 197.33C621.991 202.029 619.183 209.502 618.36 215.523C637.069 222.372 633.283 247.438 634.091 264.001C634.261 271.247 635.132 279.499 634.961 286.405C619.918 276.539 604.805 270.013 586.316 273.642C585.044 266.811 584.069 258.748 582.983 251.757C581.053 252.033 579.556 251.966 577.63 251.933C580.09 266.121 582.6 283.163 583.798 297.585C578.249 293.047 569.629 285.054 564.319 279.913C564.18 279.727 562.37 277.968 562.104 277.702C552.316 269.407 542.926 259.36 533.011 251.188C529.492 248.286 523.08 244.323 518.981 241.384C521.927 239.494 529.983 231.204 532.844 228.333L536.657 224.972C531.974 221.108 522.055 214.663 516.622 210.84C519.348 210.457 522.62 208.491 525.245 207.484C539.991 201.824 551.449 189.96 567.897 195.291C569.772 190.624 572.019 189.559 576.961 189.631Z" fill="#FDCC43"/>
<path d="M577.63 251.934C577.282 249.428 576.725 247.375 579.722 246.453C582.801 247.052 582.754 249.153 582.982 251.757C581.053 252.034 579.556 251.967 577.63 251.934Z" fill="#1C1410"/>
<path d="M582.982 251.757C584.069 258.748 585.044 266.811 586.316 273.643C604.805 270.013 619.918 276.539 634.961 286.405C636.141 287.221 637.525 287.98 637.676 289.394C638.256 294.89 638.117 301.113 638.306 306.628L639.115 331.4C639.246 335.157 639.571 339.34 639.49 343.065C639.436 346.03 639.041 348.98 638.314 351.855C636.497 351.896 634.636 351.823 632.815 351.779C635.777 343.395 632.765 303.307 632.625 291.069C630.069 289.226 627.393 287.552 624.617 286.057C614.14 280.372 598.339 275.469 586.517 279.001C587.267 283.472 590.55 303.119 589.212 306.247C588.048 307.315 588.714 307.022 587.147 307.163C584.131 306.015 566.879 289.431 563.623 286.116C563.441 284.041 563.248 281.759 564.319 279.914C569.629 285.054 578.249 293.047 583.798 297.585C582.6 283.163 580.09 266.121 577.63 251.934C579.556 251.966 581.053 252.033 582.982 251.757Z" fill="#1C1410"/>
<path d="M562.32 332.451L563.967 334.155C569.289 339.94 574.718 345.622 579.997 351.43C578.233 352.224 574.946 351.912 572.951 351.794L572.823 351.619L571.961 350.604C570.955 349.099 565.015 342.907 563.449 341.221L561.806 339.45C562.595 338.016 562.339 334.291 562.32 332.451Z" fill="#1C1410"/>
<path d="M562.32 332.451L563.967 334.155C563.221 335.607 563.457 339.342 563.449 341.221L561.806 339.45C562.595 338.016 562.339 334.291 562.32 332.451Z" fill="#2C2D46"/>
<path d="M458.161 243.311C461.677 241.046 473.646 235.907 478.224 233.729L499.594 223.7C504.626 221.308 510.357 218.3 515.5 216.389C521.197 220.236 527.005 224.887 532.844 228.333C529.983 231.204 521.927 239.494 518.981 241.384C513.71 238.095 502.92 227.339 499.223 238.322C497.846 242.415 498.968 245.704 500.828 249.306C494.262 250.463 484.721 251.834 478.661 253.437C473.754 254.734 477.327 262.519 477.319 265.013C477.319 265.231 475.212 266.243 475.223 266.215C475.03 266.629 474.527 267.99 474.33 268.525C469.925 266.097 459.329 258.035 454.511 254.755C455.621 250.859 456.622 247.063 458.161 243.311Z" fill="white"/>
<path d="M506.153 290.932C509.517 291.004 512.886 291.046 516.25 291.058C531.711 306.466 546.488 324.133 561.806 339.45L563.449 341.221C565.015 342.907 570.955 349.099 571.961 350.604C569.784 349.452 566.392 346.889 564.284 345.392C564.137 345.195 562.745 344.154 562.451 343.93C558.832 341.922 554.094 338.176 550.444 335.672C549.218 334.755 547.42 333.613 546.116 332.731C537.976 326.855 529.774 321.062 521.517 315.354C531.885 303.197 513.528 297.598 506.153 290.932Z" fill="#FDCC43"/>
<path d="M562.104 277.702C562.37 277.968 564.18 279.727 564.319 279.914C563.248 281.759 563.442 284.041 563.623 286.116L562.227 284.905C562.51 282.873 562.223 279.837 562.104 277.702Z" fill="#1C1410"/>
<path d="M406.341 170.072C408.533 169.349 410.95 169.871 412.652 171.436C414.353 173.001 415.077 175.364 414.539 177.612C414.001 179.861 412.288 181.643 410.065 182.271C406.723 183.213 403.247 181.313 402.23 177.995C401.217 174.676 403.042 171.156 406.341 170.072Z" fill="white"/>
<path d="M504.973 238.378C506.864 238.882 515.689 244.871 516.579 246.523L515.407 246.747L507.502 248.101C503.937 244.998 502.591 242.806 504.973 238.378Z" fill="white"/>
<path d="M187.908 182.447C199.162 184.492 212.266 186.558 223.261 189.21C313.02 210.863 392.628 251.819 470.401 300.132C486.399 310.147 502.123 320.601 517.546 331.48C523.107 335.392 533.722 342.631 538.425 346.912C541.105 342.153 543.657 337.616 546.116 332.731C547.42 333.612 549.218 334.755 550.444 335.672L540.335 354.7C516.625 336.639 492.08 319.702 466.777 303.946C395.11 258.61 314.693 218.041 232.153 196.894C219.788 193.726 199.488 188.868 187.099 187.807C187.411 186.112 187.655 184.172 187.908 182.447Z" fill="#1C1410"/>
<path d="M164.897 120.953C169.667 116.239 173.701 110.949 181.771 110.588C188.473 110.288 200.979 118.021 194.037 125.613C190.91 129.033 179.575 129.199 175.461 128.364C174.116 128.176 170.925 127.691 169.897 127.921C169.546 128.893 169.854 129.51 170.134 130.527C171.635 139.872 173.978 150.456 166.971 158.229C162.654 162.926 156.622 166.633 150.214 167.194C144.796 167.67 139.92 163.371 140.4 157.987C141.618 144.32 155.831 130.343 164.897 120.953Z" fill="#1C1410"/>
<path d="M164.302 129.512C164.933 130.207 165.163 131.832 165.321 132.779C166.495 139.857 168.596 147.14 163.981 153.501C160.135 158.803 155.012 161.133 148.763 162.178C137.679 157.947 159.364 133.334 164.302 129.512Z" fill="#FE9701"/>
<path d="M180.333 115.676C183.671 115.715 188.704 116.673 190.113 120.108C189.677 123.852 184.409 123.666 181.467 123.715C177.746 123.682 174.054 122.99 170.402 122.34C173.655 119.625 176.296 116.972 180.333 115.676Z" fill="white"/>
<path d="M256.606 265.835C257.078 265.019 257.609 263.733 258.531 263.856C263.038 264.455 273.769 268.285 277.656 269.702C307.155 280.584 335.978 293.215 363.974 307.528C383.352 317.466 402.462 328.39 421.005 339.763C423.237 341.133 425.634 342.598 427.97 343.756C427.158 345.129 426.388 346.504 425.437 347.784C424.675 347.968 424.343 347.662 423.446 347.34C409.439 338.192 392.895 329.05 378.157 321.055C359.672 310.825 340.709 301.483 321.332 293.061C300.169 283.657 279.04 275.216 256.968 268.12C256.704 267.804 256.44 267.488 256.176 267.172L256.606 265.835Z" fill="#1C1410"/>
<path d="M563.461 352.896C566.06 352.696 569.703 352.753 572.379 352.715C569.509 357.74 566.841 361.791 563.484 366.518C563.565 362.082 563.473 357.356 563.461 352.896Z" fill="#FE9701"/>
<path d="M563.457 351.864C563.411 349.989 562.892 346.58 564.285 345.392C566.392 346.888 569.784 349.451 571.961 350.603L572.823 351.619C570.882 352.072 565.669 351.884 563.457 351.864Z" fill="#FE9701"/>
<path d="M155.199 103.974C156.397 102.548 156.059 102.495 157.542 102.041C158.897 102.512 159.929 103.893 160.962 104.997L157.878 108.988C154.209 112.878 151.385 116.229 148.085 120.402C146.749 119.416 145.265 117.987 144.012 116.854C147.788 112.602 151.518 108.309 155.199 103.974Z" fill="#1C1410"/>
<path d="M164.536 107.412L168.419 110.788L162.596 117.351L155.322 126.038L151.12 122.524C154.284 119.347 157.246 115.974 159.987 112.425L164.536 107.412Z" fill="#1C1410"/>
<path d="M707.51 227.567C717.503 223.384 726.007 215.83 736.104 220.354C753.065 227.955 760.03 246.597 767.567 262.277C770.328 268.018 773.994 275.475 776.288 281.032C777.026 282.874 777.726 284.733 778.384 286.607L778.635 287.226L779.772 291.848L780.356 294.609C787.066 296.438 794.792 300.967 785.14 307.101C784.517 307.496 781.593 308.074 780.58 308.37L780.507 308.526C780.252 310.082 780.136 310.886 779.66 312.372C779.165 313.558 778.709 314.723 778.109 315.86L777.386 317.237L776.048 319.114C772.165 322.791 767.923 324.081 762.996 326.326L761.476 327.028C759.562 327.937 757.54 328.944 755.614 329.797L722.209 346.133C720.159 347.143 710.959 351.952 709.807 352.161C709.142 352.507 707.471 353.429 706.837 353.642C692.857 360.68 677.493 368.492 663.292 375.023L661.653 375.985C661.823 368.564 661.668 360.497 661.664 353.028C655.987 353.042 650.31 353.021 644.633 352.964C641.996 352.918 635.259 352.571 633.163 352.969L632.537 353.02L632.815 351.78C634.636 351.824 636.497 351.896 638.314 351.856C639.041 348.981 639.436 346.031 639.49 343.065C639.571 339.341 639.246 335.158 639.115 331.401L638.306 306.628C638.117 301.113 638.256 294.89 637.676 289.395C637.525 287.981 636.141 287.221 634.961 286.405C635.132 279.5 634.261 271.247 634.091 264.002C641.605 260.456 648.926 256.6 656.583 253.028C658.497 251.963 660.697 250.888 662.666 249.873C674.724 243.582 687.455 238.135 699.427 231.64C702.301 230.079 704.381 228.69 707.51 227.567Z" fill="#1C1410"/>
<path d="M707.51 227.567C717.503 223.384 726.007 215.83 736.104 220.354C753.065 227.955 760.03 246.597 767.567 262.277C770.328 268.018 773.995 275.475 776.288 281.032C777.026 282.874 777.726 284.733 778.384 286.607L778.635 287.226L779.772 291.848L780.356 294.609C787.066 296.438 794.792 300.967 785.14 307.101C784.517 307.496 781.594 308.074 780.58 308.37L780.507 308.526C780.252 310.082 780.136 310.886 779.66 312.372C779.165 313.558 778.709 314.723 778.109 315.86L777.386 317.237L776.048 319.114C772.165 322.791 767.923 324.081 762.996 326.326L761.476 327.028C759.562 327.937 757.54 328.944 755.614 329.797C753.839 328.581 750.745 321.161 749.658 318.765L749.906 318.206C752.439 316.769 752.048 316.063 752.686 313.409L752.435 313.15L751.994 311.792L750.03 307.696L749.681 307.373C749.229 306.019 748.761 304.669 748.278 303.326L747.988 303.262C746.947 300.988 745.876 298.73 744.766 296.489L744.786 296.086C743.993 295.148 743.332 293.436 742.806 292.263L742.643 292.092C736.378 279.776 730.732 265.987 724.375 253.568L723.485 251.695C721.47 252.266 719.9 251.926 718.647 252.49C716.83 249.927 707.057 229.794 707.51 227.567Z" fill="white"/>
<path d="M707.51 227.567C717.503 223.384 726.007 215.83 736.104 220.354C753.065 227.955 760.03 246.597 767.567 262.277C770.328 268.018 773.995 275.475 776.288 281.032C777.026 282.874 777.726 284.733 778.384 286.607C777.537 287.697 775.039 289.291 773.836 289.654C772.455 284.484 766.829 273.236 764.307 267.999L756.012 250.336C751.132 240.211 741.05 223.613 727.871 224.416C724.491 224.621 716.721 228.847 713.539 230.432C715.933 236.446 720.635 245.64 723.485 251.695C721.47 252.266 719.9 251.926 718.647 252.49C716.83 249.927 707.057 229.794 707.51 227.567Z" fill="#1C1410"/>
<path d="M744.785 296.086C749.318 293.356 752.945 301.221 748.278 303.325L747.987 303.262C746.947 300.987 745.876 298.729 744.766 296.489L744.785 296.086Z" fill="white"/>
<path d="M752.686 313.408L754.403 316.77C755.328 318.907 755.954 321.393 757.806 322.427C759.021 322.514 759.686 321.998 760.784 321.422L762.849 320.469C762.884 322.282 762.872 324.559 762.996 326.325L761.476 327.028C759.562 327.937 757.54 328.943 755.614 329.796C753.839 328.58 750.745 321.16 749.658 318.765L749.906 318.205C752.439 316.769 752.048 316.063 752.686 313.408Z" fill="#1C1410"/>
<path d="M781.157 299.431C782.719 299.706 783.171 299.651 784.343 300.615C784.892 302.027 784.73 301.565 784.49 303.245C783.369 303.686 782.796 304.074 781.659 303.745C780.913 302.747 781.149 300.789 781.157 299.431Z" fill="white"/>
<path d="M773.967 312.89C775.441 315.666 773.762 317.171 775.839 318.662C775.909 318.812 775.978 318.963 776.048 319.113C772.165 322.79 767.923 324.081 762.996 326.325C762.872 324.559 762.884 322.282 762.849 320.469L765.657 319.138C769.57 317.564 771.496 316.253 773.967 312.89Z" fill="#1C1410"/>
<path d="M778.384 286.606L778.635 287.226L779.772 291.848L780.356 294.609C780.522 296.065 780.793 297.915 780.805 299.346C778.999 298.611 777.494 297.848 775.565 297.674C775.244 296.818 774.099 290.909 773.836 289.654C775.039 289.291 777.537 287.697 778.384 286.606Z" fill="#1C1410"/>
<path d="M775.572 307.021C777.212 307.28 779.459 307.359 780.507 308.526C780.251 310.081 780.135 310.885 779.66 312.372C779.165 313.557 778.708 314.723 778.109 315.859L777.386 317.237L776.048 319.113C775.978 318.963 775.909 318.813 775.839 318.662C773.762 317.171 775.441 315.667 773.967 312.89L774.485 311.558L774.404 311.346C774.826 310.011 775.209 308.396 775.572 307.021Z" fill="#1C1410"/>
<path d="M774.485 311.557C776.141 311.389 775.816 311.155 776.895 311.88C777.231 313.275 777.146 313.858 777.111 315.316C777.896 313.713 778.167 313.356 779.66 312.372C779.165 313.557 778.708 314.723 778.109 315.859L777.386 317.237L776.048 319.113C775.978 318.963 775.909 318.812 775.839 318.662C773.762 317.171 775.441 315.666 773.967 312.89L774.485 311.557Z" fill="#1C1410"/>
<path d="M775.564 297.674C777.494 297.847 778.999 298.61 780.805 299.346L780.824 304.093C780.766 305.469 780.746 307.019 780.58 308.369L780.507 308.525C779.459 307.359 777.212 307.279 775.572 307.021C775.804 305.532 775.762 303.709 775.781 302.175L775.932 299.983L775.564 297.674Z" fill="#1C1410"/>
<path d="M775.932 299.983C776.249 301.893 776.148 302.5 777.487 303.717C778.809 303.951 779.486 304.038 780.824 304.093C780.766 305.469 780.747 307.02 780.58 308.37L780.507 308.526C779.459 307.36 777.212 307.28 775.572 307.022C775.804 305.532 775.762 303.709 775.781 302.176L775.932 299.983Z" fill="#1C1410"/>
<path d="M656.583 253.027L661.865 253.11L661.668 351.791C653.922 351.797 646.045 351.737 638.314 351.855C639.041 348.98 639.436 346.031 639.49 343.065C639.571 339.34 639.246 335.158 639.115 331.401L638.307 306.628C638.117 301.113 638.256 294.89 637.676 289.394C637.525 287.981 636.141 287.221 634.961 286.405C635.132 279.499 634.261 271.247 634.091 264.002C641.605 260.455 648.926 256.6 656.583 253.027Z" fill="#1C1410"/>
<path d="M707.509 227.566C707.057 229.794 716.829 249.927 718.647 252.49C715.368 252.097 707.66 252.298 704.122 252.301L676.444 252.326C672.798 252.33 667.306 252.529 663.841 252.086C662.789 251.247 663.114 251.455 662.666 249.873C674.723 243.582 687.454 238.135 699.427 231.64C702.3 230.079 704.381 228.69 707.509 227.566Z" fill="#1C1410"/>
<path d="M663.215 353.019C669.109 353.015 704.509 352.518 706.837 353.642C692.857 360.68 677.493 368.492 663.292 375.023C662.948 368.828 663.211 359.456 663.215 353.019Z" fill="#1C1410"/>
<path d="M718.767 253.323C721.049 253.283 722.101 253.254 724.375 253.568C730.732 265.987 736.378 279.776 742.643 292.092C741.618 293.081 739.708 294.824 738.865 295.856C738.567 295.286 738.184 294.301 737.917 293.676C731.567 281.161 724.649 266.142 718.767 253.323Z" fill="#1C1410"/>
<path d="M742.643 292.092L742.805 292.263C743.331 293.436 743.993 295.148 744.785 296.086L744.766 296.489C745.876 298.73 746.947 300.988 747.987 303.262L748.277 303.326C748.761 304.669 749.229 306.019 749.681 307.373C747.492 307.715 746.661 307.92 744.449 307.688L743.679 307.357C744.182 305.691 740.303 299.399 739.468 297.496C739.271 297.052 738.95 297.138 738.428 297L738.865 295.856C739.708 294.824 741.618 293.081 742.643 292.092Z" fill="#1C1410"/>
<path d="M747.988 303.262L747.288 303.875C742.388 305.025 740.199 297.913 744.767 296.489C745.876 298.73 746.948 300.988 747.988 303.262Z" fill="#1C1410"/>
<path d="M744.449 307.687C746.661 307.919 747.493 307.715 749.681 307.372L750.03 307.695L751.994 311.791L752.435 313.149L750.3 312.93C748.858 312.783 748.61 312.877 747.292 313.529C746.646 312.491 745.06 308.959 744.449 307.687Z" fill="#1C1410"/>
<path d="M752.435 313.15L752.686 313.408C752.048 316.063 752.439 316.769 749.906 318.205C747.57 317.749 748.297 316.902 746.359 317.498L746.313 316.837L746.781 316.322C746.835 314.909 746.862 314.896 747.291 313.529C748.61 312.878 748.858 312.783 750.3 312.93L752.435 313.15Z" fill="#1C1410"/>
<path d="M604.225 77.7475C602.229 71.5909 601.831 67.8272 602.141 61.3555C603.185 39.5112 627.645 26.1575 646.981 36.1476C654.181 39.8364 659.603 46.2536 662.036 53.967C664.588 62.0133 663.872 70.7406 660.044 78.2645C654.692 88.5915 644.185 94.0462 632.823 94.4584C636.067 98.7674 638.859 102.787 640.658 107.706C647.731 127.078 642.112 149.976 625.355 162.471C624.079 163.422 622.358 164.767 621.186 165.85C619.655 175.808 618.642 187.256 617.582 197.329C616.113 196.437 614.744 196.279 613.038 195.592L612.725 194.573L612.524 195.293C611.712 195.739 585.844 191.254 581.977 190.62C580.225 190.373 578.682 190.014 576.961 189.631C577.058 186.906 577.387 183.853 577.619 181.11C575.24 180.846 572.646 180.554 570.337 179.953C554.017 175.707 549.38 159.302 549.995 144.328C547.625 141.503 546.264 139.678 545.741 135.963C544.338 125.973 549.261 116.511 559.783 115.455C561.655 112.924 563.542 110.405 565.445 107.899C562.626 106.798 555.815 104.328 553.615 103.053C555.727 99.1815 556.879 97.1324 559.648 93.6015C556.067 96.5462 552.409 103.018 549.547 103.581C548.325 103.371 548.356 103.426 547.315 102.629C546.19 99.5272 550.525 95.5017 552.459 93.3966C558.805 86.5034 566.539 81.1902 575.581 78.5588C581.71 76.6002 598.165 76.5994 604.225 77.7475Z" fill="#1C1410"/>
<path d="M564.927 117.186C571.416 108.246 576.242 104.291 586.212 99.748C586.61 105.382 587.395 111.866 589.224 117.235C598.509 121.212 609.504 125.084 619.152 129.006C622.699 125.071 627.339 119.032 633.074 124.478C639.741 130.808 634.923 145.505 625.119 144.621C622.149 144.41 622.142 141.608 619.083 143.394C617.01 146.241 613.282 187.827 612.725 194.573L612.524 195.294C611.712 195.739 585.844 191.254 581.977 190.62C580.225 190.373 578.682 190.014 576.961 189.632C577.058 186.906 577.387 183.854 577.619 181.111C575.24 180.847 572.646 180.555 570.337 179.954C554.017 175.707 549.38 159.302 549.995 144.328C547.625 141.503 546.264 139.678 545.741 135.964C544.338 125.974 549.261 116.511 559.783 115.455C561.984 116.006 562.885 116.179 564.927 117.186Z" fill="white"/>
<path d="M571.234 131.373C573.194 127.9 576.435 122.839 580.704 122.081C589.568 120.508 593.988 125.943 594.506 134.754C595.129 145.252 585.654 157.411 574.467 150.417C570.688 148.053 569.602 141.432 569.695 136.81L569.138 136.441C567.173 136.093 566.075 135.459 565.8 133.383C566.686 130.799 567.989 130.878 570.414 131.322L571.234 131.373Z" fill="#FDCC43"/>
<path d="M569.138 136.441C567.173 136.093 566.075 135.459 565.8 133.383C566.686 130.799 567.989 130.878 570.414 131.322L571.234 131.372C573.45 132.302 575.07 132.94 574.242 135.674C572.572 137.365 572.011 137.091 569.695 136.81L569.138 136.441Z" fill="#FF7BAC"/>
<path d="M582.062 127.243C592.685 126.074 591.37 142.097 582.387 147.314C572.313 147.833 573.697 135.173 578.361 129.919C579.421 128.724 580.693 128.03 582.062 127.243Z" fill="white"/>
<path d="M549.995 144.328C547.625 141.503 546.264 139.678 545.741 135.964C544.338 125.974 549.261 116.511 559.783 115.455C561.984 116.006 562.885 116.179 564.927 117.186C569.869 122.215 570.252 124.35 570.414 131.322C567.989 130.878 566.686 130.799 565.801 133.383C566.075 135.46 567.173 136.093 569.138 136.441C565.499 142.433 562.776 146.147 555.193 146.521C552.772 145.787 552.204 145.556 549.995 144.328Z" fill="#FDCC43"/>
<path d="M556.009 122.304C557.497 119.94 560.146 120.66 562.386 121.418C567.892 128.513 565.201 140.2 555.498 141.148C552.868 140.08 551.975 139.302 551.322 136.521C549.028 133.326 551.925 123.012 556.009 122.304Z" fill="#1C1410"/>
<path d="M562.386 121.417C567.892 128.512 565.201 140.199 555.498 141.148C557.18 132.533 558.549 129.336 562.386 121.417Z" fill="white"/>
<path d="M551.322 136.521C549.028 133.325 551.925 123.011 556.009 122.304C554.315 126.982 552.37 131.69 551.322 136.521Z" fill="white"/>
<path d="M549.995 144.328C552.203 145.556 552.772 145.787 555.193 146.521C555.429 155.531 556.082 163.673 563.055 170.31C572.653 179.453 585.879 175.833 595.195 168.306C597.299 166.607 600.338 163.039 603.038 163.614C604.202 164.78 603.884 164.192 604.345 165.792C603.401 171.879 588.706 178.685 583.009 180.052C582.712 183.346 582.452 187.403 581.977 190.62C580.225 190.373 578.682 190.014 576.961 189.632C577.058 186.906 577.386 183.854 577.618 181.111C575.24 180.847 572.645 180.555 570.337 179.954C554.017 175.707 549.38 159.302 549.995 144.328Z" fill="#1C1410"/>
<path d="M571.412 155.304C573.291 155.23 574.362 155.368 574.919 157.287C574.181 161.401 568.774 164.378 564.838 164.392C562.649 163.684 561.504 163.32 561.083 160.976C562.065 158.173 563.936 158.679 566.33 159.372C568.507 158.083 569.556 157.016 571.412 155.304Z" fill="#1C1410"/>
<path d="M632.861 38.4766L634.996 38.4598C646.648 38.3533 657.306 48.8976 658.118 60.3991C657.588 59.4779 657.136 57.4617 656.656 56.3944C654.989 52.6613 652.476 48.2685 649.463 45.4618C645.055 41.359 638.929 38.3799 632.861 38.4766Z" fill="#E5E6EC"/>
<path d="M580.449 351.43L581.733 352.573L582.101 353.114C590.171 361.13 594.742 369.261 607.937 369.119C615.621 369.037 622.482 366.45 627.884 360.826C630.054 358.562 631.786 355.915 632.989 353.019L633.615 352.968C635.711 352.57 642.448 352.917 645.085 352.964C650.762 353.021 656.439 353.042 662.116 353.027C662.12 360.496 662.275 368.563 662.105 375.985C649.54 382.323 636.899 388.499 624.179 394.516L624.067 394.829L624.303 395.375C626.024 399.261 622.211 395.744 622.211 395.744C622.211 395.744 613.677 400.348 610.897 401.315C607.2 402.599 604.224 404.601 604.224 404.601L597.902 407.714C597.902 407.714 575.468 418.549 564.339 424.137L562.73 425.026C562.656 418.917 563.155 370.692 562.277 368.594L563.391 366.964L563.913 366.928L563.936 366.518C567.293 361.791 569.961 357.74 572.831 352.715L573.156 352.685L573.403 351.794C575.399 351.911 578.686 352.223 580.449 351.43Z" fill="#1C1410"/>
<path d="M632.536 353.019L633.163 352.968C634.516 353.089 636.469 353.07 637.877 353.101C632.869 366.624 621.151 374.544 606.669 374.408C591.672 374.266 583.895 362.924 574.451 353.055C576.756 352.988 579.32 353.079 581.648 353.114C589.719 361.129 594.29 369.261 607.485 369.119C615.169 369.036 622.029 366.449 627.432 360.825C629.601 358.562 631.334 355.915 632.536 353.019Z" fill="#1C1410"/>
<path d="M562.939 366.964L563.461 366.928C563.604 379.994 563.643 393.062 563.577 406.129C563.581 410.073 563.341 420.831 563.886 424.137L562.278 425.027C562.204 418.917 562.703 370.693 561.825 368.594L562.939 366.964Z" fill="#1C1410"/>
</g>
<defs>
<clipPath id="clip0_256_598">
<rect width="792" height="677.101" fill="white"/>
</clipPath>
</defs>
</svg>
