<svg width="24" height="24" viewBox="0 0 24 24" fill="none" xmlns="http://www.w3.org/2000/svg">
<g clip-path="url(#clip0_275_3)">
<path d="M4.27404 4.2199H20.062V20.0079H4.27404V4.2199Z" fill="#F5F0E8"/>
<path d="M6.80237 2.26445H5.6521L5.72879 1.82239H6.71215L6.80237 2.26445ZM6.25204 1.09163L5.79645 2.81026H5.16493L6.05808 0H6.4415L7.33465 2.81026H6.69411L6.25204 1.09163Z" fill="#E0660E"/>
<path d="M9.19312 0H9.87426L10.6772 1.69608L10.6321 0H11.232V0.0496193C11.217 0.0676628 11.2065 0.0872099 11.2005 0.10826C11.1974 0.129311 11.1959 0.165398 11.1959 0.216521V2.81026H10.5734L9.75698 1.00141V2.81026H9.19312V0Z" fill="#E0660E"/>
<path d="M13.8213 2.81026V0.52777H13.095V0H15.1971V0.52777H14.4257V2.81026H13.8213Z" fill="#E0660E"/>
<path d="M17.245 2.81026V2.30054H17.7908V0.509726H17.2721V0H18.9321V0.509726H18.3862V2.30054H18.9546V2.81026H17.245Z" fill="#E0660E"/>
<path d="M21.1356 9.97124C21.1356 9.81787 21.1642 9.67202 21.2213 9.53369C21.2785 9.39837 21.3657 9.27808 21.4829 9.17282C21.6002 9.06757 21.7491 8.98487 21.9295 8.92473C22.113 8.86759 22.3295 8.83902 22.5791 8.83902C22.7986 8.83902 22.9911 8.86157 23.1565 8.90668C23.3219 8.9548 23.4617 9.01795 23.576 9.09614C23.6903 9.17733 23.782 9.26755 23.8511 9.36679C23.9233 9.46903 23.9744 9.57429 24.0045 9.68255C24.0376 9.79382 24.0541 9.90358 24.0541 10.0118C24.0541 10.2314 24.0075 10.4178 23.9143 10.5712C23.8211 10.7246 23.6857 10.8433 23.5083 10.9275L23.1926 10.5757L23.1655 10.5441L23.2016 10.5125C23.2256 10.5125 23.2497 10.5095 23.2738 10.5035C23.2978 10.4975 23.3294 10.481 23.3685 10.4539C23.4346 10.3968 23.4782 10.3351 23.4993 10.269C23.5234 10.2028 23.5354 10.1351 23.5354 10.066C23.5354 9.99981 23.5158 9.93215 23.4767 9.86298C23.4407 9.79382 23.3835 9.72916 23.3053 9.66902C23.2302 9.61188 23.1339 9.56527 23.0166 9.52918C22.8994 9.49309 22.761 9.47505 22.6016 9.47505C22.4483 9.47505 22.3129 9.48708 22.1957 9.51114C22.0784 9.5382 21.9791 9.57429 21.8979 9.6194C21.8198 9.66751 21.7596 9.72315 21.7175 9.7863C21.6784 9.85246 21.6589 9.92463 21.6589 10.0028C21.6589 10.075 21.6664 10.1381 21.6814 10.1923C21.6965 10.2464 21.725 10.296 21.7671 10.3411C21.8092 10.3862 21.8679 10.4298 21.9431 10.4719L21.6138 10.905C21.4303 10.7907 21.304 10.6569 21.2348 10.5035C21.1687 10.3502 21.1356 10.1727 21.1356 9.97124Z" fill="#E0660E"/>
<path d="M22.3851 5.23936H22.8858V6.59261H22.3851V5.23936Z" fill="#E0660E"/>
<path d="M21.1356 13.819C21.1356 13.5784 21.1927 13.3784 21.307 13.2191C21.4213 13.0597 21.5867 12.9394 21.8032 12.8582C22.0227 12.78 22.2889 12.7409 22.6016 12.7409C22.9114 12.7409 23.173 12.78 23.3865 12.8582C23.603 12.9394 23.7684 13.0597 23.8827 13.2191C23.997 13.3784 24.0541 13.5784 24.0541 13.819C24.0541 14.0566 23.997 14.2551 23.8827 14.4144C23.7684 14.5738 23.603 14.6941 23.3865 14.7753C23.173 14.8565 22.9114 14.8971 22.6016 14.8971C22.2889 14.8971 22.0227 14.8565 21.8032 14.7753C21.5837 14.6941 21.4168 14.5738 21.3025 14.4144C21.1912 14.2551 21.1356 14.0566 21.1356 13.819ZM21.6408 13.819C21.6408 13.9122 21.6739 13.9919 21.7401 14.0581C21.8092 14.1242 21.9145 14.1754 22.0558 14.2114C22.2002 14.2505 22.3851 14.2701 22.6107 14.2701C22.8182 14.2701 22.9911 14.2505 23.1294 14.2114C23.2707 14.1754 23.376 14.1242 23.4452 14.0581C23.5143 13.9919 23.5489 13.9122 23.5489 13.819C23.5489 13.7228 23.5143 13.6401 23.4452 13.5709C23.376 13.5047 23.2707 13.4536 23.1294 13.4175C22.9911 13.3845 22.8182 13.3679 22.6107 13.3679C22.3851 13.3679 22.2002 13.3845 22.0558 13.4175C21.9145 13.4536 21.8092 13.5047 21.7401 13.5709C21.6739 13.6401 21.6408 13.7228 21.6408 13.819Z" fill="#E0660E"/>
<path d="M24 16.7511V17.4322L22.3039 18.2351L24 18.19V18.79H23.9504C23.9323 18.7749 23.9128 18.7644 23.8917 18.7584C23.8707 18.7554 23.8346 18.7539 23.7835 18.7539H21.1897V18.1314L22.9986 17.3149H21.1897V16.7511H24Z" fill="#E0660E"/>
<path d="M18.1381 21.0815C18.3276 21.0815 18.511 21.107 18.6885 21.1582C18.8629 21.2123 19.0042 21.295 19.1125 21.4063L18.8058 21.916L18.7832 21.9521L18.7381 21.925C18.7321 21.904 18.7246 21.8814 18.7155 21.8573C18.7035 21.8363 18.6779 21.8092 18.6389 21.7761C18.5667 21.728 18.4885 21.6874 18.4043 21.6544C18.3201 21.6213 18.2329 21.6032 18.1427 21.6002C18.0795 21.6002 18.0239 21.6047 17.9758 21.6138C17.9246 21.6228 17.881 21.6378 17.8449 21.6589C17.8089 21.6799 17.7818 21.7085 17.7637 21.7446C17.7427 21.7837 17.7322 21.8303 17.7322 21.8844C17.7322 21.9115 17.7367 21.9385 17.7457 21.9656C17.7517 21.9957 17.7637 22.0242 17.7818 22.0513C17.7998 22.0814 17.8284 22.1115 17.8675 22.1415C17.9036 22.1716 17.9502 22.2047 18.0073 22.2408C18.0645 22.2769 18.1366 22.3144 18.2239 22.3535C18.4163 22.4468 18.5697 22.5355 18.684 22.6197C18.7952 22.7039 18.8764 22.7956 18.9275 22.8948C18.9757 22.9971 18.9997 23.1189 18.9997 23.2602C18.9997 23.3986 18.9591 23.5234 18.8779 23.6346C18.7937 23.7459 18.681 23.8346 18.5396 23.9008C18.3983 23.9669 18.2434 24 18.075 24C17.9457 24 17.8284 23.9865 17.7231 23.9594C17.6149 23.9323 17.5156 23.8917 17.4254 23.8376C17.3322 23.7835 17.2465 23.7143 17.1683 23.6301L17.5517 23.2151L17.5788 23.1835L17.6194 23.2196C17.6224 23.2437 17.6269 23.2662 17.6329 23.2873C17.6389 23.3113 17.6585 23.3414 17.6916 23.3775C17.7397 23.4196 17.7908 23.4467 17.8449 23.4587C17.8991 23.4737 17.9622 23.4813 18.0344 23.4813C18.0855 23.4813 18.1321 23.4752 18.1742 23.4632C18.2163 23.4542 18.2524 23.4392 18.2825 23.4181C18.3126 23.4001 18.3366 23.379 18.3547 23.3549C18.3697 23.3309 18.3772 23.3053 18.3772 23.2783C18.3772 23.2512 18.3742 23.2256 18.3682 23.2016C18.3622 23.1805 18.3502 23.158 18.3321 23.1339C18.3141 23.1099 18.287 23.0843 18.2509 23.0572C18.2118 23.0302 18.1622 22.9986 18.1021 22.9625C18.0389 22.9294 17.9607 22.8903 17.8675 22.8452C17.7231 22.773 17.6014 22.7039 17.5021 22.6377C17.4029 22.5716 17.3247 22.5024 17.2676 22.4302C17.2074 22.3611 17.1653 22.2844 17.1412 22.2002C17.1142 22.116 17.1007 22.0197 17.1007 21.9115C17.1007 21.7701 17.1367 21.6363 17.2089 21.51C17.2811 21.3837 17.3939 21.28 17.5472 21.1988C17.7006 21.1206 17.8976 21.0815 18.1381 21.0815Z" fill="#E0660E"/>
<path d="M14.146 21.0725C14.4588 21.0725 14.7039 21.1657 14.8813 21.3521C15.0587 21.5416 15.1475 21.8002 15.1475 22.128V23.9459H14.4708V23.8963C14.4859 23.8782 14.4964 23.8587 14.5024 23.8376C14.5054 23.8166 14.5069 23.7805 14.5069 23.7293V22.1235C14.5069 21.9551 14.4813 21.8228 14.4302 21.7265C14.3761 21.6303 14.2799 21.5822 14.1415 21.5822C14.0002 21.5822 13.9025 21.6303 13.8483 21.7265C13.7942 21.8258 13.7671 21.9626 13.7671 22.137V23.9459H13.1356V22.1415C13.1356 21.8979 13.1792 21.6965 13.2664 21.5371C13.3536 21.3807 13.4739 21.2634 13.6273 21.1852C13.7777 21.11 13.9506 21.0725 14.146 21.0725Z" fill="#E0660E"/>
<path d="M11.205 21.1356V23.9459H10.6276L10.181 22.7144L9.73894 23.9504H9.15703V21.1356H9.69383V22.9941L10.0231 22.0242H10.3569L10.6727 22.9941V21.1356H11.205Z" fill="#E0660E"/>
<path d="M7.19481 21.1356V23.9459H6.19791C5.97538 23.9459 5.79043 23.9068 5.64308 23.8286C5.49572 23.7534 5.38596 23.6512 5.31379 23.5218C5.24161 23.3955 5.20553 23.2557 5.20553 23.1023C5.20553 22.9881 5.22658 22.8798 5.26868 22.7776C5.30777 22.6783 5.36792 22.5911 5.44911 22.5159C5.5273 22.4407 5.62804 22.3806 5.75134 22.3355C5.87163 22.2934 6.01297 22.2723 6.17536 22.2723H6.54525V21.1356H7.19481ZM6.54525 22.7911H6.21145C6.14228 22.7911 6.08214 22.8046 6.03101 22.8317C5.97688 22.8588 5.93478 22.8963 5.90471 22.9445C5.87464 22.9926 5.8596 23.0467 5.8596 23.1069C5.8596 23.17 5.87464 23.2241 5.90471 23.2692C5.93478 23.3144 5.97538 23.3489 6.0265 23.373C6.07763 23.397 6.13777 23.4091 6.20694 23.4091H6.54525V22.7911Z" fill="#E0660E"/>
<path d="M2.86439 18.6366H0.5819L0.5819 19.3628H0.0541304L0.0541303 17.2608H0.5819L0.5819 18.0321H2.86439V18.6366Z" fill="#E0660E"/>
<path d="M2.86439 15.2129H2.35467V14.667H0.563857L0.563857 15.1858H0.0541304L0.0541303 13.5258H0.563857L0.563857 14.0716H2.35467V13.5032H2.86439V15.2129Z" fill="#E0660E"/>
<path d="M2.91852 10.4088C2.91852 10.6494 2.86139 10.8494 2.74711 11.0087C2.63284 11.1681 2.46744 11.2884 2.25092 11.3696C2.03139 11.4478 1.76525 11.4869 1.4525 11.4869C1.14275 11.4869 0.881121 11.4478 0.667607 11.3696C0.451086 11.2884 0.285688 11.1681 0.171413 11.0087C0.0571376 10.8494 1.05163e-08 10.6494 0 10.4088C-1.03843e-08 10.1712 0.0571375 9.97275 0.171413 9.81336C0.285688 9.65398 0.451086 9.53369 0.667607 9.4525C0.88112 9.3713 1.14275 9.3307 1.4525 9.3307C1.76525 9.3307 2.03139 9.3713 2.25092 9.4525C2.47044 9.53369 2.63735 9.65398 2.75162 9.81336C2.86289 9.97275 2.91852 10.1712 2.91852 10.4088ZM2.41331 10.4088C2.41331 10.3156 2.38023 10.2359 2.31407 10.1697C2.2449 10.1036 2.13965 10.0524 1.99831 10.0164C1.85396 9.97726 1.66902 9.95771 1.44347 9.95771C1.23597 9.95771 1.06306 9.97726 0.924725 10.0164C0.783385 10.0524 0.678132 10.1036 0.608966 10.1697C0.539799 10.2359 0.505216 10.3156 0.505216 10.4088C0.505216 10.505 0.539799 10.5877 0.608966 10.6569C0.678132 10.7231 0.783385 10.7742 0.924725 10.8103C1.06306 10.8433 1.23597 10.8599 1.44347 10.8599C1.66902 10.8599 1.85396 10.8433 1.99831 10.8103C2.13965 10.7742 2.2449 10.7231 2.31407 10.6569C2.38023 10.5877 2.41331 10.505 2.41331 10.4088Z" fill="#E0660E"/>
<path d="M0.0541304 7.47674L0.0541304 6.7956L1.75021 5.99267L0.0541303 6.03778L0.0541303 5.43783H0.10375C0.121793 5.45287 0.14134 5.4634 0.162391 5.46941C0.183442 5.47242 0.219528 5.47392 0.270651 5.47392L2.86439 5.47392V6.09642L1.05554 6.91288H2.86439V7.47674H0.0541304Z" fill="#E0660E"/>
</g>
<defs>
<clipPath id="clip0_275_3">
<rect width="24" height="24" fill="white"/>
</clipPath>
</defs>
</svg>
