<svg width="57" height="57" viewBox="0 0 57 57" fill="none" xmlns="http://www.w3.org/2000/svg">
<path d="M10.128 9.99972H47.5401V47.4118H10.128V9.99972Z" fill="#F5F0E8"/>
<path d="M16.1193 5.36596H13.3935L13.5752 4.31842H15.9055L16.1193 5.36596ZM14.8152 2.58678L13.7356 6.65935H12.2391L14.3556 0H15.2641L17.3806 6.65935H15.8627L14.8152 2.58678Z" fill="#E0660E"/>
<path d="M21.7845 0H23.3986L25.3013 4.01913L25.1944 0H26.616V0.117581C26.5804 0.160338 26.5555 0.206657 26.5412 0.25654C26.5341 0.306423 26.5305 0.391936 26.5305 0.51308V6.65935H25.0554L23.1207 2.373V6.65935H21.7845V0Z" fill="#E0660E"/>
<path d="M32.7516 6.65935V1.25063H31.0307V0H36.0118V1.25063H34.184V6.65935H32.7516Z" fill="#E0660E"/>
<path d="M40.8647 6.65935V5.45148H42.1581V1.20788H40.9288V0H44.8624V1.20788H43.5691V5.45148H44.9159V6.65935H40.8647Z" fill="#E0660E"/>
<path d="M50.0841 23.6284C50.0841 23.265 50.1518 22.9194 50.2872 22.5916C50.4226 22.2709 50.6293 21.9858 50.9072 21.7364C51.1851 21.487 51.5378 21.291 51.9654 21.1485C52.4001 21.0131 52.9132 20.9454 53.5046 20.9454C54.0248 20.9454 54.4809 20.9989 54.8729 21.1058C55.2648 21.2198 55.5962 21.3694 55.8669 21.5547C56.1377 21.7471 56.3551 21.9609 56.519 22.1961C56.69 22.4383 56.8112 22.6878 56.8824 22.9443C56.9608 23.208 57 23.4681 57 23.7246C57 24.2448 56.8895 24.6866 56.6686 25.0501C56.4477 25.4135 56.1271 25.695 55.7066 25.8945L54.9584 25.0608L54.8942 24.9859L54.9797 24.9111C55.0368 24.9111 55.0938 24.904 55.1508 24.8897C55.2078 24.8755 55.2826 24.8363 55.3752 24.7722C55.532 24.6368 55.6353 24.4907 55.6852 24.3339C55.7422 24.1771 55.7707 24.0168 55.7707 23.8529C55.7707 23.6961 55.7244 23.5358 55.6318 23.3719C55.5463 23.208 55.4109 23.0548 55.2256 22.9122C55.0474 22.7768 54.8194 22.6664 54.5415 22.5809C54.2636 22.4954 53.9358 22.4526 53.5581 22.4526C53.1947 22.4526 52.874 22.4811 52.5961 22.5381C52.3181 22.6022 52.083 22.6878 51.8906 22.7947C51.7053 22.9087 51.5628 23.0405 51.463 23.1902C51.3704 23.3469 51.324 23.518 51.324 23.7032C51.324 23.8743 51.3419 24.0239 51.3775 24.1522C51.4131 24.2804 51.4808 24.398 51.5806 24.5049C51.6804 24.6118 51.8193 24.7151 51.9975 24.8149L51.2172 25.8411C50.7825 25.5703 50.4832 25.2532 50.3193 24.8897C50.1625 24.5263 50.0841 24.1059 50.0841 23.6284Z" fill="#E0660E"/>
<path d="M53.045 12.4155H54.2315V15.6222H53.045V12.4155Z" fill="#E0660E"/>
<path d="M50.0841 32.7463C50.0841 32.1762 50.2195 31.7023 50.4903 31.3246C50.7611 30.9469 51.153 30.6619 51.6661 30.4695C52.1863 30.2842 52.817 30.1916 53.5581 30.1916C54.2921 30.1916 54.912 30.2842 55.418 30.4695C55.9311 30.6619 56.323 30.9469 56.5938 31.3246C56.8646 31.7023 57 32.1762 57 32.7463C57 33.3092 56.8646 33.7796 56.5938 34.1572C56.323 34.5349 55.9311 34.82 55.418 35.0124C54.912 35.2048 54.2921 35.301 53.5581 35.301C52.817 35.301 52.1863 35.2048 51.6661 35.0124C51.1459 34.82 50.7504 34.5349 50.4796 34.1572C50.2159 33.7796 50.0841 33.3092 50.0841 32.7463ZM51.2813 32.7463C51.2813 32.9672 51.3597 33.156 51.5165 33.3128C51.6804 33.4696 51.9298 33.5907 52.2647 33.6762C52.6068 33.7689 53.045 33.8152 53.5795 33.8152C54.0712 33.8152 54.4809 33.7689 54.8087 33.6762C55.1436 33.5907 55.3931 33.4696 55.557 33.3128C55.7209 33.156 55.8028 32.9672 55.8028 32.7463C55.8028 32.5182 55.7209 32.3223 55.557 32.1584C55.3931 32.0016 55.1436 31.8804 54.8087 31.7949C54.4809 31.7165 54.0712 31.6774 53.5795 31.6774C53.045 31.6774 52.6068 31.7165 52.2647 31.7949C51.9298 31.8804 51.6804 32.0016 51.5165 32.1584C51.3597 32.3223 51.2813 32.5182 51.2813 32.7463Z" fill="#E0660E"/>
<path d="M56.8717 39.6942V41.3083L52.8526 43.211L56.8717 43.1041V44.5257H56.7542C56.7114 44.4901 56.6651 44.4652 56.6152 44.4509C56.5653 44.4438 56.4798 44.4402 56.3587 44.4402H50.2124V42.9651L54.4987 41.0304H50.2124V39.6942H56.8717Z" fill="#E0660E"/>
<path d="M42.9812 49.9558C43.4301 49.9558 43.8648 50.0164 44.2852 50.1376C44.6985 50.2658 45.0335 50.4618 45.29 50.7255L44.5632 51.9333L44.5097 52.0188L44.4028 51.9547C44.3886 51.9048 44.3707 51.8514 44.3494 51.7944C44.3209 51.7445 44.2603 51.6804 44.1676 51.602C43.9966 51.4879 43.8113 51.3917 43.6118 51.3134C43.4123 51.235 43.2056 51.1922 42.9918 51.1851C42.8422 51.1851 42.7104 51.1958 42.5963 51.2172C42.4752 51.2385 42.3719 51.2742 42.2864 51.324C42.2008 51.3739 42.1367 51.4416 42.094 51.5271C42.0441 51.6198 42.0191 51.7302 42.0191 51.8585C42.0191 51.9226 42.0298 51.9868 42.0512 52.0509C42.0654 52.1222 42.094 52.1899 42.1367 52.254C42.1795 52.3253 42.2472 52.3965 42.3398 52.4678C42.4253 52.5391 42.5358 52.6174 42.6712 52.703C42.8066 52.7885 42.9776 52.8775 43.1842 52.9702C43.6403 53.1911 44.0037 53.4013 44.2745 53.6008C44.5382 53.8004 44.7306 54.0177 44.8518 54.2529C44.9658 54.4952 45.0228 54.7838 45.0228 55.1187C45.0228 55.4465 44.9266 55.7422 44.7342 56.0059C44.5346 56.2696 44.2674 56.4798 43.9325 56.6366C43.5976 56.7933 43.2306 56.8717 42.8315 56.8717C42.5251 56.8717 42.2472 56.8397 41.9977 56.7755C41.7412 56.7114 41.5061 56.6152 41.2923 56.4869C41.0714 56.3587 40.8683 56.1947 40.683 55.9952L41.5916 55.0118L41.6557 54.937L41.7519 55.0225C41.759 55.0795 41.7697 55.133 41.784 55.1828C41.7982 55.2398 41.8445 55.3111 41.9229 55.3966C42.0369 55.4964 42.1581 55.5605 42.2864 55.589C42.4146 55.6247 42.5643 55.6425 42.7353 55.6425C42.8564 55.6425 42.9669 55.6282 43.0667 55.5997C43.1664 55.5783 43.2519 55.5427 43.3232 55.4928C43.3945 55.4501 43.4515 55.4002 43.4942 55.3432C43.5299 55.2862 43.5477 55.2256 43.5477 55.1615C43.5477 55.0973 43.5406 55.0368 43.5263 54.9797C43.512 54.9299 43.4835 54.8764 43.4408 54.8194C43.398 54.7624 43.3339 54.7018 43.2484 54.6377C43.1557 54.5736 43.0382 54.4987 42.8956 54.4132C42.746 54.3348 42.5607 54.2422 42.3398 54.1353C41.9977 53.9643 41.7091 53.8004 41.474 53.6436C41.2388 53.4868 41.0535 53.3229 40.9181 53.1519C40.7756 52.988 40.6759 52.8063 40.6188 52.6068C40.5547 52.4072 40.5226 52.1792 40.5226 51.9226C40.5226 51.5877 40.6082 51.2706 40.7792 50.9713C40.9502 50.672 41.2174 50.4262 41.5809 50.2338C41.9443 50.0485 42.4111 49.9558 42.9812 49.9558Z" fill="#E0660E"/>
<path d="M33.5212 49.9345C34.2624 49.9345 34.8431 50.1554 35.2636 50.5972C35.684 51.0461 35.8942 51.659 35.8942 52.4357V56.7435H34.2909V56.6259C34.3265 56.5831 34.3514 56.5368 34.3657 56.4869C34.3728 56.437 34.3764 56.3515 34.3764 56.2304V52.425C34.3764 52.026 34.3158 51.7124 34.1947 51.4844C34.0664 51.2564 33.8383 51.1423 33.5105 51.1423C33.1756 51.1423 32.944 51.2564 32.8158 51.4844C32.6875 51.7196 32.6233 52.0438 32.6233 52.4571V56.7435H31.1269V52.4678C31.1269 51.8906 31.2302 51.4131 31.4368 51.0354C31.6435 50.6649 31.9286 50.387 32.292 50.2017C32.6483 50.0235 33.058 49.9345 33.5212 49.9345Z" fill="#E0660E"/>
<path d="M26.5519 50.0841V56.7435H25.1837L24.1255 53.8253L23.0779 56.7542H21.699V50.0841H22.971V54.488L23.7513 52.1899H24.5423L25.2906 54.488V50.0841H26.5519Z" fill="#E0660E"/>
<path d="M17.0492 50.0841V56.7435H14.6869C14.1596 56.7435 13.7213 56.6508 13.3722 56.4655C13.023 56.2874 12.7629 56.0451 12.5918 55.7387C12.4208 55.4394 12.3353 55.108 12.3353 54.7446C12.3353 54.4738 12.3852 54.2173 12.485 53.975C12.5776 53.7398 12.7201 53.5331 12.9125 53.355C13.0978 53.1768 13.3365 53.0343 13.6287 52.9274C13.9137 52.8277 14.2487 52.7778 14.6335 52.7778H15.51V50.0841H17.0492ZM15.51 54.007H14.719C14.5551 54.007 14.4126 54.0391 14.2914 54.1032C14.1631 54.1674 14.0634 54.2564 13.9921 54.3705C13.9209 54.4845 13.8852 54.6128 13.8852 54.7553C13.8852 54.9049 13.9209 55.0332 13.9921 55.1401C14.0634 55.247 14.1596 55.3289 14.2807 55.3859C14.4019 55.4429 14.5444 55.4714 14.7083 55.4714H15.51V54.007Z" fill="#E0660E"/>
<path d="M6.78762 44.1623H1.3789L1.3789 45.8833H0.12827L0.12827 40.9021H1.3789L1.3789 42.73H6.78762V44.1623Z" fill="#E0660E"/>
<path d="M6.78762 36.0492H5.57975V34.7558H1.33615L1.33615 35.9851H0.12827L0.12827 32.0515H1.33615L1.33615 33.3449H5.57975V31.998H6.78762V36.0492Z" fill="#E0660E"/>
<path d="M6.91589 24.6653C6.91589 25.2353 6.7805 25.7092 6.5097 26.0869C6.23891 26.4646 5.84698 26.7496 5.3339 26.9421C4.81369 27.1273 4.18303 27.22 3.44191 27.22C2.70792 27.22 2.08795 27.1273 1.582 26.9421C1.06892 26.7496 0.676981 26.4646 0.406189 26.0869C0.135396 25.7092 2.49199e-08 25.2353 0 24.6653C-2.46072e-08 24.1023 0.135396 23.632 0.406189 23.2543C0.676981 22.8766 1.06892 22.5916 1.582 22.3992C2.08795 22.2068 2.70792 22.1105 3.44191 22.1105C4.18303 22.1105 4.81369 22.2068 5.3339 22.3992C5.8541 22.5916 6.2496 22.8766 6.52039 23.2543C6.78406 23.632 6.91589 24.1023 6.91589 24.6653ZM5.71871 24.6653C5.71871 24.4443 5.64032 24.2555 5.48354 24.0987C5.31964 23.942 5.07023 23.8208 4.7353 23.7353C4.39325 23.6427 3.95499 23.5963 3.42053 23.5963C2.92883 23.5963 2.51908 23.6427 2.19128 23.7353C1.85635 23.8208 1.60694 23.942 1.44304 24.0987C1.27914 24.2555 1.19719 24.4443 1.19719 24.6653C1.19719 24.8933 1.27914 25.0893 1.44304 25.2532C1.60694 25.4099 1.85635 25.5311 2.19128 25.6166C2.51908 25.695 2.92883 25.7342 3.42053 25.7342C3.95499 25.7342 4.39325 25.695 4.7353 25.6166C5.07023 25.5311 5.31964 25.4099 5.48354 25.2532C5.64032 25.0893 5.71871 24.8933 5.71871 24.6653Z" fill="#E0660E"/>
<path d="M0.12827 17.7173L0.12827 16.1032L4.1474 14.2006L0.12827 14.3075L0.12827 12.8858H0.245851C0.288608 12.9214 0.334928 12.9464 0.38481 12.9606C0.434693 12.9677 0.520206 12.9713 0.64135 12.9713L6.78762 12.9713V14.4464L2.50127 16.3812H6.78762V17.7173H0.12827Z" fill="#E0660E"/>
</svg>
